<svg width="113" height="113" viewBox="0 0 113 113" fill="none" xmlns="http://www.w3.org/2000/svg">
<path d="M21.1875 21.1875H105.938L95.3438 67.0938H31.7812M95.3438 81.2188H35.3125L17.6562 7.0625H7.0625" stroke="#DF2F4F" stroke-width="7.0625" stroke-linecap="round" stroke-linejoin="round"/>
<path d="M88.2812 102.406C92.1818 102.406 95.3438 99.2443 95.3438 95.3438C95.3438 91.4432 92.1818 88.2812 88.2812 88.2812C84.3807 88.2812 81.2188 91.4432 81.2188 95.3438C81.2188 99.2443 84.3807 102.406 88.2812 102.406Z" stroke="#DF2F4F" stroke-width="7.0625" stroke-linecap="round" stroke-linejoin="round"/>
<path d="M42.375 102.406C46.2755 102.406 49.4375 99.2443 49.4375 95.3438C49.4375 91.4432 46.2755 88.2812 42.375 88.2812C38.4745 88.2812 35.3125 91.4432 35.3125 95.3438C35.3125 99.2443 38.4745 102.406 42.375 102.406Z" stroke="#DF2F4F" stroke-width="7.0625" stroke-linecap="round" stroke-linejoin="round"/>
</svg>
