<svg width="124" height="64" viewBox="0 0 124 64" fill="none" xmlns="http://www.w3.org/2000/svg">
<path d="M0 42.007C0 40.6127 0.383928 39.4246 1.15583 38.4425C1.9257 37.4625 2.97847 36.6603 4.31616 36.0339C5.65789 35.4095 7.21785 34.9548 8.99604 34.6679C10.7742 34.3769 12.6777 34.2314 14.7105 34.2314C15.6804 34.2314 16.6221 34.2436 17.5394 34.2638C18.4609 34.2799 19.3015 34.3082 20.0612 34.3446C20.821 34.3769 21.4757 34.4173 22.0253 34.4658C22.575 34.5143 22.9751 34.5689 23.2297 34.6275C23.4661 34.6881 23.654 34.7548 23.7955 34.8296C23.9409 34.9003 24.048 34.9831 24.1188 35.0801C24.1935 35.1731 24.242 35.2822 24.2642 35.4115C24.2905 35.5368 24.3047 35.6823 24.3047 35.848C24.3047 35.9894 24.2845 36.147 24.2481 36.3249C24.2097 36.4986 24.1551 36.6603 24.0864 36.8098C24.0157 36.9553 23.9268 37.0826 23.8197 37.1897C23.7106 37.2988 23.5792 37.3514 23.4236 37.3514C23.3267 37.3514 23.2216 37.311 23.1084 37.2301C22.9953 37.1453 22.8336 37.0361 22.6235 36.9068C22.4174 36.7735 22.1385 36.636 21.7829 36.4946C21.4313 36.3491 20.9604 36.2117 20.3684 36.0824C19.7743 35.949 19.0388 35.8399 18.1618 35.7591C17.2828 35.6742 16.224 35.6298 14.9853 35.6298V47.1153H22.4214V48.6995H14.9853V55.6991C14.9853 56.2649 15.0682 56.7478 15.2359 57.1459C15.4016 57.546 15.64 57.8774 15.9472 58.1401C16.2583 58.4048 16.6342 58.5967 17.0707 58.7139C17.5071 58.8331 17.9941 58.8917 18.5336 58.8917C19.1418 58.8917 19.7501 58.8311 20.3603 58.7058C20.9685 58.5826 21.5444 58.427 22.09 58.237C22.6336 58.0431 23.1286 57.8289 23.5772 57.5904C24.0238 57.3479 24.3855 57.1136 24.6603 56.8872L25.3554 57.6551C25.0584 57.8935 24.6603 58.2189 24.1592 58.6331C23.658 59.0433 23.0438 59.4474 22.3163 59.8455C21.5929 60.2395 20.7523 60.581 19.7945 60.872C18.8347 61.163 17.7435 61.3085 16.521 61.3085C16.1169 61.3085 15.6521 61.2862 15.1308 61.2438C14.6135 61.2054 14.0801 61.1246 13.5304 61.0013C12.9808 60.872 12.4393 60.6861 11.9058 60.4436C11.3764 60.1971 10.9056 59.8697 10.4913 59.4656C10.0811 59.0615 9.74773 58.5644 9.48908 57.9703C9.23044 57.3783 9.10111 56.669 9.10111 55.8446V48.6995H6.3045V47.1153H9.10111V35.848C8.71719 35.8803 8.2787 35.949 7.78363 36.0501C7.28655 36.1531 6.77734 36.2986 6.25601 36.4865C5.73871 36.6704 5.2295 36.8886 4.72838 37.1412C4.22725 37.3898 3.77866 37.6807 3.38665 38.0141C2.99262 38.3496 2.67133 38.7234 2.42481 39.1376C2.18233 39.5478 2.06109 39.9924 2.06109 40.4713C2.06109 40.8552 2.1116 41.1583 2.21466 41.3846C2.31569 41.6109 2.43289 41.7807 2.56221 41.8938C2.69154 42.007 2.82288 42.0797 2.95827 42.1121C3.09769 42.1404 3.20075 42.1525 3.26541 42.1525C3.56043 42.1525 3.80291 42.104 3.99285 42.007C4.18684 41.906 4.36061 41.7968 4.51823 41.6837C4.67382 41.5665 4.81931 41.4574 4.95469 41.3604C5.09412 41.2593 5.25375 41.2068 5.43157 41.2068C5.571 41.2068 5.72255 41.2391 5.8842 41.3038C6.04586 41.3685 6.19336 41.4735 6.32875 41.619C6.46818 41.7605 6.5874 41.9484 6.68439 42.1848C6.78138 42.4172 6.82988 42.7001 6.82988 43.0335C6.82988 43.5144 6.7349 43.9287 6.54698 44.2782C6.3631 44.6298 6.12264 44.9208 5.82762 45.1512C5.53665 45.3775 5.20121 45.5472 4.82537 45.6604C4.45356 45.7735 4.08176 45.8301 3.70996 45.8301C3.13811 45.8301 2.62081 45.7331 2.15808 45.5391C1.69939 45.3411 1.3094 45.0683 0.986089 44.7228C0.662781 44.3732 0.416259 43.9691 0.250564 43.5104C0.0828475 43.0476 0 42.5465 0 42.007Z" fill="#DF2F4F"/>
<path d="M36.1909 52.1023C36.1909 50.5948 36.1201 49.3905 35.9807 48.4893C35.8453 47.5901 35.6655 46.9031 35.4392 46.4282C35.2129 45.9554 34.9623 45.6442 34.6875 45.4987C34.4127 45.3492 34.1298 45.2724 33.8388 45.2724C33.4933 45.2724 33.1861 45.3674 32.9174 45.5553C32.6466 45.7392 32.4122 45.9493 32.2142 46.1857C32.0202 46.4242 31.8525 46.6626 31.7131 46.9051C31.5777 47.1435 31.4625 47.3213 31.3655 47.4385V59.409C31.3655 59.5666 31.3412 59.7545 31.2928 59.9748C31.2483 60.1971 31.1331 60.4072 30.9452 60.6052C30.7613 60.7992 30.4865 60.9649 30.1208 61.0983C29.7591 61.2377 29.26 61.3084 28.6255 61.3084C27.995 61.3084 27.4959 61.2317 27.1302 61.0821C26.7624 60.9366 26.4856 60.7649 26.2976 60.5648C26.1077 60.3607 25.9905 60.1506 25.942 59.9344C25.8935 59.7202 25.8693 59.5444 25.8693 59.409V45.5795C25.8693 45.2299 25.7884 44.9289 25.6268 44.6743C25.4651 44.4156 25.1923 44.2863 24.8104 44.2863C24.6043 44.2863 24.4305 44.3247 24.2851 44.3994C24.1436 44.4702 23.99 44.5692 23.8243 44.6985L23.4445 44.254C23.7193 44.0236 24.0264 43.7973 24.3659 43.575C24.7094 43.3548 25.0792 43.1608 25.4732 42.9931C25.8652 42.8274 26.2896 42.69 26.7422 42.5808C27.1989 42.4737 27.6798 42.4192 28.1809 42.4192C28.9569 42.4192 29.559 42.5485 29.9914 42.8072C30.4218 43.0658 30.7371 43.377 30.9371 43.7367C31.1412 44.0923 31.2624 44.4641 31.3008 44.8521C31.3433 45.24 31.3655 45.5674 31.3655 45.8301C31.8121 45.1956 32.3152 44.6258 32.877 44.1246C33.1033 43.9104 33.3559 43.7023 33.6367 43.5023C33.9156 43.2982 34.2146 43.1143 34.5339 42.9526C34.8512 42.791 35.1846 42.6617 35.5362 42.5647C35.8857 42.4677 36.2474 42.4192 36.6192 42.4192C37.4316 42.4192 38.1509 42.5768 38.7773 42.888C39.4078 43.2012 39.9352 43.7205 40.3615 44.4479C40.7919 45.1754 41.1213 46.1413 41.3476 47.3415C41.578 48.5438 41.6952 50.0331 41.6952 51.8113C41.6952 53.547 41.5376 55.0524 41.2264 56.3295C40.9132 57.6066 40.507 58.6957 40.0059 59.5949C39.5048 60.4901 38.9349 61.2195 38.3004 61.7853C37.67 62.3552 37.0315 62.7997 36.3849 63.119C35.7423 63.4423 35.126 63.6645 34.5339 63.7898C33.9398 63.9192 33.4286 63.9879 32.9982 64L32.8042 63.2645C33.1599 63.1836 33.4872 63.0503 33.7903 62.8684C34.0974 62.6906 34.3763 62.4279 34.6309 62.0844C34.8835 61.7388 35.1037 61.3004 35.2937 60.7669C35.4877 60.2334 35.6513 59.5686 35.7867 58.7705C35.9262 57.9683 36.0292 57.0206 36.0939 55.9254C36.1585 54.8322 36.1909 53.5571 36.1909 52.1023Z" fill="#DF2F4F"/>
<path d="M54.8345 48.6267C54.4627 48.6267 54.1495 48.5701 53.8969 48.457C53.6484 48.3438 53.4463 48.1943 53.2907 48.0043C53.1392 47.8103 53.026 47.5982 52.9512 47.3658C52.8805 47.1294 52.8462 46.8869 52.8462 46.6384C52.8462 46.315 52.8664 46.0059 52.9108 45.7088C52.9533 45.4078 52.9593 45.139 52.927 44.9006C52.8947 44.6581 52.7997 44.4682 52.6441 44.3267C52.4926 44.1812 52.2198 44.1085 51.8277 44.1085C51.4074 44.1085 50.9629 44.2297 50.4941 44.4722C50.0293 44.7106 49.607 45.0845 49.2251 45.5957C48.8412 46.1089 48.5239 46.7677 48.2714 47.5759C48.0228 48.3842 47.8996 49.3541 47.8996 50.4857C47.8996 51.7426 48.0147 52.8863 48.2471 53.9209C48.4835 54.9554 48.8331 55.8365 49.2979 56.5639C49.7606 57.2913 50.3405 57.8571 51.0356 58.2613C51.7308 58.6614 52.5431 58.8594 53.4766 58.8594C53.8909 58.8594 54.2869 58.8109 54.6648 58.7139C55.0406 58.6169 55.3963 58.4856 55.7317 58.3178C56.0651 58.1522 56.3823 57.9582 56.6854 57.7359C56.9926 57.5156 57.2876 57.2812 57.5745 57.0327L58.0272 57.4611C57.7524 57.8288 57.3987 58.235 56.9683 58.6816C56.5359 59.1241 56.0166 59.5383 55.4084 59.9263C54.7981 60.3143 54.0869 60.6376 53.2746 60.8962C52.4602 61.1488 51.5368 61.2761 50.5022 61.2761C49.4615 61.2761 48.4492 61.0761 47.4631 60.678C46.477 60.2739 45.6 59.6919 44.8362 58.9321C44.0704 58.1683 43.4561 57.2388 42.9934 56.1436C42.5347 55.0504 42.3063 53.8037 42.3063 52.4013C42.3063 51.3182 42.4437 50.32 42.7186 49.4026C42.9934 48.4873 43.3652 47.6608 43.834 46.9212C44.3068 46.1837 44.8564 45.5351 45.4828 44.9733C46.1133 44.4075 46.772 43.9367 47.4631 43.5588C48.1582 43.183 48.8654 42.9001 49.5888 42.7102C50.3163 42.5162 51.0134 42.4192 51.6823 42.4192C52.5653 42.4192 53.3352 42.5222 53.9939 42.7263C54.6506 42.9324 55.1982 43.2012 55.6347 43.5346C56.0712 43.87 56.3965 44.254 56.6127 44.6904C56.8269 45.1269 56.936 45.5775 56.936 46.0402C56.936 46.3918 56.8895 46.7252 56.7986 47.0425C56.7057 47.3557 56.5743 47.6305 56.4026 47.8669C56.2288 48.0993 56.0105 48.2852 55.7479 48.4246C55.4831 48.56 55.178 48.6267 54.8345 48.6267Z" fill="#DF2F4F"/>
<path d="M66.5639 51.7385C66.5639 51.4435 66.4669 51.2172 66.2729 51.0596C66.083 50.904 65.8405 50.8252 65.5455 50.8252C65.1252 50.8252 64.7251 50.9222 64.3492 51.1162C63.9714 51.3061 63.64 51.585 63.355 51.9568C63.0681 52.3286 62.8418 52.7873 62.6761 53.3308C62.5084 53.8764 62.4255 54.5069 62.4255 55.2222C62.4255 55.9132 62.474 56.4871 62.571 56.9438C62.6721 57.3964 62.8095 57.7581 62.9832 58.0269C63.1611 58.2916 63.3631 58.4775 63.5894 58.5846C63.8158 58.6937 64.0542 58.7462 64.3088 58.7462C64.6159 58.7462 64.9069 58.6694 65.1817 58.5118C65.4565 58.3502 65.695 58.1441 65.9011 57.8895C66.1052 57.6369 66.2668 57.356 66.3861 57.0489C66.5033 56.7377 66.5639 56.4245 66.5639 56.1113V51.7385ZM63.7107 43.8902C63.3065 43.8902 62.9287 43.9387 62.5791 44.0357C62.2336 44.1327 61.9345 44.254 61.6819 44.3994C61.4334 44.5409 61.2374 44.6965 61.0919 44.8682C60.9504 45.042 60.8817 45.2057 60.8817 45.3613C60.8817 45.5391 60.9727 45.6684 61.1566 45.7493C61.3445 45.826 61.5526 45.915 61.7789 46.016C62.0052 46.119 62.2093 46.2645 62.3932 46.4525C62.5811 46.6363 62.6761 46.9192 62.6761 47.3011C62.6761 47.5497 62.6236 47.778 62.5225 47.9882C62.4195 48.1983 62.2821 48.3842 62.1103 48.5459C61.9365 48.7075 61.7324 48.8348 61.496 48.9258C61.2636 49.0126 61.0232 49.0551 60.7767 49.0551C60.1078 49.0551 59.5663 48.8288 59.152 48.3761C58.7418 47.9195 58.5378 47.3153 58.5378 46.5656C58.5378 45.8341 58.7277 45.2077 59.1116 44.6904C59.4935 44.1691 59.9926 43.7407 60.6069 43.4053C61.2212 43.0719 61.9163 42.8233 62.6923 42.6617C63.4682 42.5 64.2441 42.4192 65.0201 42.4192C65.9516 42.4192 66.8407 42.5222 67.6874 42.7263C68.5381 42.9324 69.2898 43.2557 69.9424 43.6963C70.5931 44.1388 71.1144 44.7026 71.5024 45.3855C71.8904 46.0645 72.0844 46.8869 72.0844 47.8508V57.9784C72.0844 58.0875 72.0884 58.2087 72.1005 58.3421C72.1106 58.4714 72.1409 58.5906 72.1894 58.6977C72.2379 58.8069 72.3107 58.8958 72.4077 58.9645C72.5047 59.0352 72.6421 59.0695 72.8199 59.0695C73.0341 59.0695 73.2341 58.9887 73.418 58.8271C73.5999 58.6654 73.7656 58.5017 73.911 58.334L74.3556 58.7139C74.1778 58.9685 73.9616 59.2433 73.709 59.5383C73.4604 59.8354 73.1553 60.1162 72.7956 60.3789C72.44 60.6436 72.0217 60.8639 71.5428 61.0417C71.068 61.2195 70.5264 61.3084 69.9182 61.3084C69.1625 61.3084 68.4916 61.0841 67.9056 60.6376C67.3236 60.191 66.9397 59.502 66.7579 58.5684C66.3739 59.0857 65.9759 59.5181 65.5616 59.8616C65.1514 60.2072 64.7311 60.4881 64.3007 60.7022C63.8744 60.9185 63.444 61.07 63.0075 61.163C62.571 61.2599 62.1305 61.3084 61.69 61.3084C61.1121 61.3084 60.5544 61.2195 60.0169 61.0417C59.4834 60.8639 59.0025 60.581 58.5782 60.193C58.1518 59.8051 57.8103 59.3019 57.5517 58.6816C57.2971 58.0572 57.1718 57.2974 57.1718 56.4022C57.1718 55.3151 57.386 54.426 57.8184 53.735C58.2488 53.0398 58.8126 52.4579 59.5077 51.9891C60.2068 51.5163 61.003 51.1121 61.8921 50.7767C62.7852 50.4433 63.6965 50.0897 64.624 49.7179C65.3191 49.443 65.8243 49.0349 66.1436 48.4893C66.4608 47.9457 66.6205 47.388 66.6205 46.8162C66.6205 45.9331 66.3578 45.2239 65.8364 44.6904C65.3191 44.157 64.6099 43.8902 63.7107 43.8902Z" fill="#DF2F4F"/>
<path d="M85.3707 52.1023C85.3707 50.5948 85.3 49.3905 85.1606 48.4893C85.0252 47.5901 84.8454 46.9031 84.619 46.4282C84.3927 45.9554 84.1422 45.6442 83.8674 45.4987C83.5925 45.3492 83.3096 45.2724 83.0187 45.2724C82.6731 45.2724 82.366 45.3674 82.0972 45.5553C81.8265 45.7392 81.5921 45.9493 81.3941 46.1857C81.2001 46.4242 81.0324 46.6626 80.8929 46.9051C80.7575 47.1435 80.6424 47.3213 80.5454 47.4385V59.409C80.5454 59.5666 80.5211 59.7545 80.4726 59.9748C80.4282 60.1971 80.313 60.4072 80.1251 60.6052C79.9412 60.7992 79.6664 60.9649 79.3006 61.0983C78.9389 61.2377 78.4398 61.3084 77.8053 61.3084C77.1749 61.3084 76.6758 61.2317 76.31 61.0821C75.9423 60.9366 75.6654 60.7649 75.4775 60.5648C75.2876 60.3607 75.1704 60.1506 75.1219 59.9344C75.0734 59.7202 75.0491 59.5444 75.0491 59.409V45.5795C75.0491 45.2299 74.9683 44.9289 74.8067 44.6743C74.645 44.4156 74.3722 44.2863 73.9903 44.2863C73.7842 44.2863 73.6104 44.3247 73.4649 44.3994C73.3235 44.4702 73.1699 44.5692 73.0042 44.6985L72.6243 44.254C72.8991 44.0236 73.2063 43.7973 73.5458 43.575C73.8893 43.3548 74.2591 43.1608 74.6531 42.9931C75.0451 42.8274 75.4694 42.69 75.9221 42.5808C76.3787 42.4737 76.8597 42.4192 77.3608 42.4192C78.1367 42.4192 78.7389 42.5485 79.1713 42.8072C79.6017 43.0658 79.9169 43.377 80.117 43.7367C80.3211 44.0923 80.4423 44.4641 80.4807 44.8521C80.5231 45.24 80.5454 45.5674 80.5454 45.8301C80.9919 45.1956 81.4951 44.6258 82.0568 44.1246C82.2831 43.9104 82.5357 43.7023 82.8166 43.5023C83.0955 43.2982 83.3945 43.1143 83.7138 42.9526C84.031 42.791 84.3644 42.6617 84.716 42.5647C85.0656 42.4677 85.4273 42.4192 85.7991 42.4192C86.6114 42.4192 87.3308 42.5768 87.9572 42.888C88.5876 43.2012 89.115 43.7205 89.5414 44.4479C89.9718 45.1754 90.3012 46.1413 90.5275 47.3415C90.7579 48.5438 90.875 50.0331 90.875 51.8113C90.875 53.547 90.7174 55.0524 90.4063 56.3295C90.0931 57.6066 89.6869 58.6957 89.1858 59.5949C88.6846 60.4901 88.1148 61.2195 87.4803 61.7853C86.8499 62.3552 86.2113 62.7997 85.5647 63.119C84.9221 63.4423 84.3058 63.6645 83.7138 63.7898C83.1197 63.9192 82.6085 63.9879 82.1781 64L81.9841 63.2645C82.3397 63.1836 82.6671 63.0503 82.9702 62.8684C83.2773 62.6906 83.5562 62.4279 83.8108 62.0844C84.0634 61.7388 84.2836 61.3004 84.4736 60.7669C84.6675 60.2334 84.8312 59.5686 84.9666 58.7705C85.106 57.9683 85.2091 57.0206 85.2737 55.9254C85.3384 54.8322 85.3707 53.5571 85.3707 52.1023Z" fill="#DF2F4F"/>
<path d="M98.4454 43.9631V57.2106C98.4454 57.8411 98.5626 58.2816 98.801 58.5281C99.0374 58.7706 99.3668 58.8918 99.7871 58.8918C100.11 58.8918 100.395 58.8029 100.644 58.6251C100.896 58.4473 101.113 58.2432 101.29 58.0108C101.505 57.7643 101.691 57.4733 101.848 57.1379L102.406 57.3885C102.222 57.7724 102.006 58.1886 101.759 58.6413C101.517 59.0939 101.193 59.5142 100.789 59.9022C100.385 60.2901 99.872 60.6175 99.2536 60.8802C98.6394 61.1429 97.8654 61.2762 96.9339 61.2762C96.4106 61.2762 95.9074 61.1974 95.4224 61.0418C94.9375 60.8862 94.5051 60.6417 94.1292 60.3063C93.7514 59.9729 93.4503 59.5546 93.224 59.0535C92.9976 58.5524 92.8845 57.9502 92.8845 57.243V43.9631H90.88V42.6699C91.2134 42.6699 91.6802 42.585 92.2783 42.4112C92.8764 42.2395 93.4866 41.9505 94.1131 41.5464C94.7374 41.1382 95.3194 40.5926 95.8589 39.9137C96.3964 39.2347 96.7803 38.3921 97.0067 37.3838H98.4454V42.6699H101.363C102.317 42.6699 102.794 42.5123 102.794 42.193C102.794 42.0697 102.733 41.9889 102.616 41.9505C102.497 41.9081 102.361 41.8535 102.212 41.7889C102.066 41.7242 101.931 41.6333 101.808 41.514C101.689 41.3908 101.63 41.1907 101.63 40.9159C101.63 40.5825 101.735 40.3218 101.945 40.1319C102.155 39.9379 102.426 39.8409 102.762 39.8409C102.976 39.8409 103.166 39.8874 103.327 39.9783C103.489 40.0652 103.622 40.1844 103.731 40.334C103.839 40.4855 103.919 40.6573 103.974 40.8513C104.026 41.0412 104.055 41.2291 104.055 41.4171C104.055 42.193 103.828 42.8133 103.376 43.2761C102.927 43.7348 102.208 43.9631 101.218 43.9631H98.4454Z" fill="#DF2F4F"/>
<path d="M101.906 51.8517C101.906 50.2837 102.132 48.9136 102.585 47.7376C103.042 46.5575 103.648 45.5755 104.404 44.7874C105.163 44.0014 106.044 43.4113 107.047 43.0173C108.053 42.6192 109.108 42.4192 110.207 42.4192C111.306 42.4192 112.357 42.6031 113.359 42.9688C114.361 43.3366 115.242 43.8963 116.002 44.65C116.762 45.3997 117.368 46.3514 117.821 47.5032C118.273 48.657 118.5 50.023 118.5 51.6011C118.5 53.1651 118.273 54.5493 117.821 55.7556C117.368 56.964 116.762 57.9784 116.002 58.8028C115.242 59.6272 114.361 60.2537 113.359 60.678C112.357 61.0983 111.306 61.3084 110.207 61.3084C109.108 61.3084 108.053 61.1084 107.047 60.7103C106.044 60.3123 105.163 59.7202 104.404 58.9321C103.648 58.14 103.042 57.1539 102.585 55.9739C102.132 54.7898 101.906 53.4157 101.906 51.8517ZM112.931 51.6739C112.931 50.7161 112.894 49.7906 112.826 48.9015C112.761 48.0124 112.634 47.2244 112.446 46.5333C112.256 45.8382 111.981 45.2865 111.621 44.8763C111.266 44.4621 110.793 44.254 110.207 44.254C109.619 44.254 109.144 44.4722 108.784 44.9087C108.429 45.3411 108.154 45.9109 107.96 46.6222C107.77 47.3335 107.647 48.1458 107.588 49.0551C107.528 49.9603 107.499 50.8939 107.499 51.8517C107.499 52.8055 107.528 53.741 107.588 54.6564C107.647 55.5677 107.77 56.382 107.96 57.0974C108.154 57.8147 108.429 58.3906 108.784 58.8271C109.144 59.2635 109.619 59.4818 110.207 59.4818C110.793 59.4818 111.266 59.2554 111.621 58.8028C111.981 58.3502 112.256 57.7561 112.446 57.0165C112.634 56.2729 112.761 55.4364 112.826 54.5028C112.894 53.5713 112.931 52.6276 112.931 51.6739Z" fill="#DF2F4F"/>
<path d="M7.94529 6.5488C7.94529 6.19922 7.81596 5.94058 7.55732 5.77286C7.30271 5.60717 7.02588 5.5223 6.7248 5.5223C6.11456 5.5223 5.5225 5.61121 4.94661 5.78903C4.3687 5.96685 3.8514 6.21337 3.39473 6.52455C2.93604 6.83169 2.56626 7.20148 2.2874 7.63188C2.01259 8.0643 1.87518 8.52906 1.87518 9.03019C1.87518 9.37572 1.91964 9.65255 2.01259 9.8627C2.10958 10.0688 2.21668 10.2224 2.3359 10.3234C2.4531 10.4265 2.57434 10.4932 2.69962 10.5255C2.82288 10.5538 2.91179 10.5659 2.96635 10.5659C3.24116 10.5659 3.46343 10.5214 3.63721 10.4285C3.81503 10.3315 3.97264 10.2325 4.11409 10.1294C4.25352 10.0284 4.38486 9.93141 4.51014 9.83846C4.6334 9.74753 4.77889 9.70105 4.94661 9.70105C5.07593 9.70105 5.21334 9.73136 5.35883 9.78996C5.50836 9.85058 5.64576 9.94353 5.77104 10.0729C5.8943 10.2022 5.99938 10.376 6.08627 10.5901C6.17114 10.8003 6.21559 11.0569 6.21559 11.358C6.21559 11.7945 6.13072 12.1723 5.96503 12.4896C5.79731 12.8028 5.57908 13.0675 5.31033 13.2817C5.04562 13.4918 4.7405 13.6494 4.39699 13.7505C4.05751 13.8535 3.71804 13.9041 3.37857 13.9041C2.85521 13.9041 2.38439 13.8151 1.96409 13.6373C1.54784 13.4595 1.1922 13.215 0.897179 12.9018C0.606202 12.5846 0.381907 12.2127 0.226315 11.7864C0.0747648 11.362 0 10.9094 0 10.4285C0 9.0706 0.341494 7.95519 1.0265 7.08226C1.70949 6.20529 2.64304 5.51219 3.82311 5.00501C5.00723 4.49984 6.38533 4.15228 7.95337 3.96234C9.52545 3.77442 11.1986 3.67944 12.9727 3.67944C14.9974 3.67944 16.8282 3.88555 18.4609 4.29373C20.0976 4.69786 21.5 5.35862 22.6639 6.27399C23.8278 7.18531 24.725 8.37953 25.3554 9.85462C25.9899 11.3257 26.3092 13.1241 26.3092 15.2458C26.3092 17.3695 25.9717 19.2528 25.2988 20.8956C24.63 22.5343 23.7166 23.9104 22.5588 25.0258C21.3989 26.1413 20.039 26.9899 18.477 27.5719C16.9191 28.1538 15.248 28.4448 13.4658 28.4448C12.2796 28.4448 11.3239 28.3882 10.5964 28.2751C9.87301 28.1619 9.3153 27.9679 8.92329 27.6931C8.53532 27.4143 8.27264 27.0425 8.13927 26.5777C8.00995 26.115 7.94529 25.531 7.94529 24.8238V6.5488ZM13.3364 24.9693C13.3364 25.5896 13.4739 26.0342 13.7487 26.3029C14.0275 26.5676 14.4377 26.699 14.9772 26.699C15.7956 26.699 16.5493 26.5211 17.2404 26.1655C17.9294 25.8058 18.5255 25.1875 19.0267 24.3146C19.5278 23.4376 19.9178 22.2696 20.1987 20.8148C20.4836 19.3558 20.627 17.5211 20.627 15.3104C20.627 13.8353 20.5341 12.5542 20.3522 11.4712C20.1744 10.3881 19.936 9.47069 19.6409 8.71496C19.35 7.95519 19.0145 7.33888 18.6387 6.86402C18.2669 6.39119 17.883 6.0214 17.4909 5.7567C17.103 5.48795 16.7191 5.30811 16.3432 5.21516C15.9653 5.12423 15.6319 5.07775 15.341 5.07775C14.6337 5.07775 14.1225 5.23738 13.8052 5.55463C13.492 5.86783 13.3364 6.43362 13.3364 7.25199V24.9693Z" fill="#DF2F4F"/>
<path d="M26.861 19.7157C26.861 18.2931 27.0671 17.0463 27.4834 15.9734C27.8976 14.9024 28.4493 14.0073 29.1403 13.2899C29.8294 12.5685 30.6296 12.029 31.5409 11.6734C32.4563 11.3137 33.4161 11.1318 34.4183 11.1318C35.4206 11.1318 36.3764 11.2996 37.2877 11.633C38.2031 11.9623 39.0053 12.4715 39.6963 13.1606C40.3854 13.8456 40.937 14.7125 41.3533 15.7632C41.7675 16.8099 41.9757 18.0506 41.9757 19.4893C41.9757 20.9119 41.7675 22.1728 41.3533 23.272C40.937 24.3713 40.3854 25.2988 39.6963 26.0525C39.0053 26.8022 38.2031 27.37 37.2877 27.7579C36.3764 28.1398 35.4206 28.3318 34.4183 28.3318C33.4161 28.3318 32.4563 28.1499 31.5409 27.7903C30.6296 27.4245 29.8294 26.883 29.1403 26.1656C28.4493 25.4503 27.8976 24.5531 27.4834 23.4741C27.0671 22.3971 26.861 21.1443 26.861 19.7157ZM36.8997 19.554C36.8997 18.6871 36.8694 17.8486 36.8108 17.0403C36.7502 16.228 36.633 15.5046 36.4552 14.8741C36.2814 14.2396 36.0308 13.7345 35.7035 13.3627C35.3802 12.9868 34.9518 12.7969 34.4183 12.7969C33.8849 12.7969 33.4525 12.9969 33.1251 13.395C32.8018 13.7951 32.5512 14.3164 32.3734 14.963C32.1996 15.6096 32.0865 16.3492 32.0339 17.1777C31.9794 18.0021 31.9531 18.8488 31.9531 19.7157C31.9531 20.5886 31.9794 21.4433 32.0339 22.2779C32.0865 23.1084 32.1996 23.85 32.3734 24.5006C32.5512 25.1533 32.8018 25.6787 33.1251 26.0767C33.4525 26.4708 33.8849 26.6668 34.4183 26.6668C34.9518 26.6668 35.3802 26.4627 35.7035 26.0525C36.0308 25.6383 36.2814 25.0947 36.4552 24.4198C36.633 23.7469 36.7502 22.9871 36.8108 22.1405C36.8694 21.2898 36.8997 20.4269 36.8997 19.554Z" fill="#DF2F4F"/>
<path d="M53.6091 16.7816C53.2737 16.7816 52.9908 16.7311 52.7604 16.6281C52.5341 16.521 52.3502 16.3815 52.2108 16.2078C52.0693 16.036 51.9643 15.844 51.8956 15.6339C51.8309 15.4197 51.7986 15.1974 51.7986 14.9711C51.7986 14.6761 51.8168 14.3932 51.8551 14.1224C51.8915 13.8476 51.8976 13.6031 51.8713 13.3869C51.843 13.1667 51.7602 12.9909 51.6207 12.8615C51.4793 12.7322 51.2287 12.6675 50.8691 12.6675C50.4912 12.6675 50.0891 12.7787 49.6647 12.9989C49.2384 13.2152 48.8504 13.5566 48.5008 14.0254C48.1553 14.4902 47.8663 15.0903 47.636 15.8279C47.4097 16.5614 47.2965 17.4444 47.2965 18.479C47.2965 19.6227 47.4016 20.6654 47.6117 21.607C47.8259 22.5446 48.1452 23.3448 48.5655 24.0076C48.9898 24.6703 49.5192 25.1856 50.1497 25.5514C50.7842 25.9191 51.5258 26.101 52.3724 26.101C52.7543 26.101 53.116 26.0585 53.4555 25.9717C53.799 25.8807 54.1223 25.7595 54.4254 25.6079C54.7326 25.4584 55.0236 25.2826 55.2984 25.0826C55.5772 24.8785 55.848 24.6623 56.1066 24.4359L56.5189 24.8239C56.2643 25.1634 55.9409 25.5352 55.5489 25.9393C55.161 26.3394 54.6881 26.7153 54.1345 27.0709C53.5788 27.4225 52.9322 27.7155 52.1946 27.9519C51.4551 28.1823 50.6124 28.2995 49.6647 28.2995C48.715 28.2995 47.7916 28.1176 46.8924 27.7579C45.9972 27.3922 45.2031 26.8608 44.508 26.1656C43.8129 25.4705 43.2552 24.6259 42.8349 23.6277C42.4146 22.6315 42.2044 21.4979 42.2044 20.2249C42.2044 19.2347 42.3277 18.3234 42.5762 17.4929C42.8288 16.6584 43.1703 15.9047 43.6027 15.2298C44.0331 14.5569 44.5342 13.9648 45.1061 13.4516C45.6759 12.9403 46.2781 12.514 46.9085 12.1745C47.539 11.831 48.1816 11.5723 48.8403 11.3986C49.497 11.2207 50.1295 11.1318 50.7397 11.1318C51.548 11.1318 52.2512 11.2268 52.8493 11.4147C53.4474 11.5986 53.9425 11.8431 54.3365 12.1503C54.7346 12.4534 55.0316 12.8029 55.2256 13.201C55.4237 13.595 55.5247 14.0052 55.5247 14.4296C55.5247 14.7488 55.4802 15.0519 55.3954 15.3429C55.3145 15.6299 55.1953 15.8764 55.0397 16.0865C54.8821 16.2967 54.6841 16.4664 54.4416 16.5957C54.2032 16.721 53.9263 16.7816 53.6091 16.7816Z" fill="#DF2F4F"/>
<path d="M61.1538 20.5805C61.1538 20.9321 61.2043 21.312 61.3073 21.7202C61.4144 22.1243 61.566 22.5345 61.76 22.9487C61.954 23.365 62.1924 23.761 62.4793 24.1369C62.7703 24.5087 63.1037 24.8441 63.4816 25.1391C63.8574 25.4301 64.2737 25.6645 64.7263 25.8423C65.183 26.0161 65.6841 26.101 66.2297 26.101C66.6116 26.101 66.9652 26.0585 67.2885 25.9717C67.6159 25.8807 67.921 25.7595 68.2019 25.6079C68.4868 25.4584 68.7596 25.2826 69.0182 25.0826C69.2809 24.8785 69.5436 24.6623 69.8023 24.4359L70.2145 24.8239C69.9599 25.1634 69.6366 25.5352 69.2446 25.9393C68.8566 26.3394 68.3837 26.7153 67.8301 27.0709C67.2744 27.4225 66.6278 27.7155 65.8902 27.9519C65.1507 28.1823 64.308 28.2995 63.3604 28.2995C62.4106 28.2995 61.4872 28.1297 60.588 27.7903C59.6928 27.4468 58.8987 26.9315 58.2036 26.2465C57.5085 25.5635 56.9508 24.7087 56.5305 23.6843C56.1102 22.6618 55.9 21.4656 55.9 20.0955C55.9 19.1054 56.0233 18.1961 56.2718 17.3717C56.5244 16.5432 56.8659 15.7955 57.2983 15.1328C57.7287 14.47 58.2299 13.888 58.8017 13.3869C59.3715 12.8858 59.9737 12.4715 60.6042 12.1422C61.2346 11.8088 61.8772 11.5582 62.5359 11.3905C63.1926 11.2187 63.8251 11.1318 64.4353 11.1318C65.2436 11.1318 65.9468 11.2207 66.5449 11.3986C67.1431 11.5723 67.6381 11.8067 68.0321 12.1018C68.4302 12.3927 68.7273 12.7322 68.9212 13.1202C69.1193 13.5041 69.2203 13.9082 69.2203 14.3326C69.2203 14.8458 69.0708 15.3065 68.7758 15.7147C68.4848 16.1189 68.0928 16.4745 67.6038 16.7816L61.1538 20.5805ZM64.4353 17.2666C64.5748 17.1817 64.69 17.0969 64.7829 17.016C64.8799 16.9352 64.9547 16.8382 65.0092 16.7251C65.0618 16.6119 65.1022 16.4725 65.1305 16.3048C65.1567 16.133 65.1709 15.9229 65.1709 15.6743C65.1709 15.3995 65.1406 15.0984 65.082 14.769C65.0213 14.4356 64.9203 14.1224 64.7748 13.8315C64.6334 13.5364 64.4556 13.2899 64.2414 13.0959C64.0252 12.8979 63.7645 12.7969 63.4573 12.7969C63.0633 12.7969 62.7259 12.9161 62.447 13.1525C62.1722 13.3849 61.9459 13.686 61.7681 14.0578C61.5902 14.4255 61.4468 14.8458 61.3397 15.3187C61.2366 15.7935 61.1578 16.2704 61.1053 16.7493C61.0507 17.2302 61.0184 17.6909 61.0083 18.1314C60.9962 18.5679 60.9921 18.9397 60.9921 19.2469L64.4353 17.2666Z" fill="#DF2F4F"/>
<path d="M80.9561 0C81.0248 0.0222275 81.0915 0.0444551 81.1359 0.113158C81.1804 0.17984 81.2713 0.224295 81.3824 0.246522C81.5158 0.26875 81.629 0.357659 81.7846 0.470817C81.9199 0.581954 82.0755 0.670863 82.2109 0.739566C82.3443 0.806249 82.4352 0.850704 82.4574 0.895158C82.4797 0.939613 82.613 1.05277 82.8373 1.25282C83.0839 1.43266 83.195 1.56804 83.2172 1.63472C83.2394 1.70141 83.3081 1.74586 83.4637 1.81254C83.5991 1.88125 83.6658 1.94793 83.688 1.99238C83.7103 2.03684 83.7547 2.12777 83.8679 2.23891C83.979 2.35004 84.0457 2.41875 84.0457 2.4632C84.0457 2.50766 84.0901 2.52988 84.1589 2.57434C84.2478 2.61879 84.3589 2.75418 84.4943 2.932C84.6276 3.13406 84.7408 3.26743 84.8297 3.3139C84.9186 3.35836 84.9631 3.42504 84.9631 3.4695C84.9631 3.51395 84.9853 3.53618 85.0318 3.53618C85.0762 3.53618 85.1429 3.64934 85.2763 3.89586C85.4117 4.14238 85.4783 4.25352 85.5228 4.27574C85.5673 4.29797 85.6137 4.34243 85.636 4.40911C85.6582 4.47781 85.7026 4.54449 85.7471 4.56672C85.7916 4.58895 85.836 4.65563 85.8582 4.74656C85.9047 4.8577 85.9269 4.90215 85.9714 4.92438C85.9936 4.94661 86.0381 5.01531 86.1048 5.14868C86.1735 5.28204 86.2179 5.37297 86.2846 5.41743C86.3513 5.46188 86.3735 5.52856 86.3957 5.61949C86.418 5.7084 86.4644 5.79731 86.5533 5.86601C86.6423 5.9327 86.6867 5.99938 86.6867 6.06606C86.6867 6.13274 86.7089 6.15699 86.7554 6.15699C86.7776 6.15699 86.7776 6.15699 86.7999 6.15699C86.7999 6.17922 86.7999 6.20145 86.7999 6.22367C86.7999 6.2459 86.7999 6.26813 86.7999 6.29036C86.8221 6.29036 86.8221 6.29036 86.8443 6.29036C86.8666 6.29036 86.8666 6.29036 86.8666 6.29036L86.8443 6.31258C86.8221 6.33481 86.8443 6.37927 86.8888 6.42372C86.9332 6.4702 86.9555 6.53688 86.9777 6.64802C86.9777 6.73895 87.0221 6.82786 87.0686 6.91676C87.1131 7.00567 87.1575 7.05215 87.202 7.07438C87.2464 7.0966 87.2687 7.14106 87.2687 7.20774C87.2687 7.27442 87.2909 7.3209 87.3151 7.34313C87.3374 7.36535 87.3818 7.40981 87.3818 7.49872C87.4041 7.5654 87.4707 7.74524 87.6283 7.96954C87.7839 8.21606 87.8971 8.43833 87.9416 8.6404C87.986 8.86469 88.0305 9.02029 88.1194 9.11122C88.1881 9.22235 88.2548 9.35774 88.2992 9.55779C88.3437 9.75985 88.3881 9.87099 88.4548 9.93969C88.5235 10.0064 88.5457 10.1175 88.5457 10.2529C88.568 10.3863 88.568 10.4772 88.6124 10.4994C88.6346 10.5216 88.6569 10.5661 88.6346 10.5883C88.6124 10.6106 88.6569 10.6995 88.7013 10.8126C88.77 10.9238 88.7923 11.0127 88.7923 11.1258C88.7923 11.1925 88.8145 11.237 88.8145 11.3036C88.9256 11.237 89.0368 11.1481 89.1277 11.0591C89.3298 10.9015 89.4409 10.8126 89.4409 10.7904C89.4409 10.7682 89.4853 10.7439 89.5743 10.6995C89.6652 10.655 89.7319 10.6106 89.7985 10.5216C89.8652 10.4307 89.9117 10.4085 89.9562 10.4085C90.0006 10.4085 90.0451 10.364 90.1118 10.2974C90.1784 10.2307 90.2471 10.162 90.3583 10.1397C90.4472 10.1175 90.5159 10.0731 90.5381 10.0286C90.5603 9.98415 90.6048 9.96192 90.7159 9.96192C90.8069 9.96192 90.918 9.89322 91.0291 9.78208C91.1423 9.67094 91.2534 9.60224 91.3423 9.58001C91.4333 9.58001 91.5222 9.53556 91.5889 9.46887C91.6798 9.40219 91.7243 9.35774 91.7687 9.35774C91.7909 9.35774 91.8132 9.35774 91.8132 9.35774C91.8132 9.35774 91.8132 9.33551 91.8132 9.31126V9.28904C91.8354 9.28904 91.8798 9.28904 91.9021 9.31126C91.9708 9.33551 92.0152 9.31126 92.0819 9.26681C92.1486 9.22235 92.2173 9.20013 92.3062 9.20013C92.3729 9.20013 92.4396 9.1779 92.484 9.13344C92.5083 9.08899 92.575 9.06676 92.6861 9.04453C92.775 9.02029 92.8882 8.97583 93.0215 8.90915C93.1569 8.84247 93.2903 8.77578 93.4479 8.75356C93.6035 8.72931 93.7389 8.68485 93.8055 8.6404C93.8722 8.57372 93.9632 8.57372 94.0521 8.59594C94.141 8.61817 94.2986 8.59594 94.4764 8.55149C94.6562 8.50704 94.7674 8.46258 94.7896 8.43833C94.8361 8.39388 94.925 8.39388 95.0806 8.4161C95.2382 8.43833 95.4403 8.41611 95.6625 8.34942C95.9091 8.28274 96.0667 8.26051 96.1778 8.26051C96.291 8.28274 96.3799 8.26051 96.4243 8.23829C96.4688 8.21606 96.5375 8.21606 96.6264 8.23829C96.7153 8.26051 96.782 8.26051 96.8042 8.23829C96.8285 8.21606 96.9174 8.21606 97.0507 8.21606C97.2084 8.23829 97.275 8.21606 97.2973 8.19383C97.3195 8.1716 97.4327 8.1716 97.6327 8.21606C97.8348 8.26051 97.9924 8.26051 98.0591 8.26051C98.148 8.26051 98.2834 8.26051 98.4834 8.30497C98.6855 8.34942 98.8653 8.37165 98.9987 8.34942C99.1341 8.3272 99.2452 8.34942 99.3119 8.37165C99.4008 8.41611 99.4695 8.4161 99.5584 8.4161C99.6473 8.4161 99.7382 8.43833 99.8272 8.48481C99.9161 8.55149 100.074 8.57372 100.251 8.61817C100.454 8.66263 100.567 8.68485 100.567 8.70708C100.567 8.72931 100.611 8.72931 100.678 8.72931C100.745 8.72931 100.811 8.72931 100.858 8.77578C100.924 8.82024 101.013 8.86469 101.171 8.88692C101.326 8.93138 101.44 8.97583 101.506 9.02029C101.573 9.08899 101.617 9.08899 101.684 9.08899C101.731 9.08899 101.82 9.11122 101.975 9.15567C102.133 9.22235 102.222 9.24458 102.222 9.28904C102.222 9.33551 102.313 9.35774 102.49 9.42442C102.67 9.4911 102.781 9.53556 102.848 9.60224C102.917 9.67094 102.983 9.7154 103.072 9.7154C103.163 9.73763 103.23 9.75985 103.274 9.82653C103.319 9.89322 103.386 9.91747 103.43 9.91747C103.476 9.91747 103.499 9.93969 103.521 9.98415C103.521 10.0286 103.565 10.0508 103.588 10.0508C103.632 10.0508 103.654 10.0731 103.699 10.1397C103.745 10.2084 103.923 10.3196 104.258 10.5216C104.594 10.7217 104.796 10.8571 104.863 10.946C104.931 11.0349 104.976 11.0814 104.976 11.1258C104.976 11.1703 105.043 11.237 105.154 11.3501C105.267 11.4613 105.333 11.5279 105.378 11.5279C105.422 11.5279 105.445 11.5502 105.445 11.5946C105.469 11.6411 105.536 11.7078 105.669 11.7967C105.804 11.8856 105.893 11.9765 105.915 12.0877C105.938 12.1766 105.982 12.2453 106.027 12.2675C106.073 12.2897 106.14 12.3564 106.206 12.4676C106.273 12.5807 106.364 12.6696 106.453 12.7141C106.542 12.7585 106.609 12.8717 106.633 13.0051C106.677 13.1404 106.722 13.2293 106.811 13.296C106.902 13.3647 106.946 13.4314 106.946 13.4981C106.946 13.5648 106.968 13.6315 107.035 13.7224C107.102 13.8113 107.124 13.8558 107.146 13.8558C107.168 13.8558 107.215 13.9467 107.304 14.1023C107.393 14.2821 107.415 14.371 107.415 14.4155C107.393 14.4377 107.415 14.4822 107.483 14.5509C107.55 14.6176 107.572 14.6842 107.595 14.7731C107.617 14.8863 107.661 14.9752 107.728 15.0419C107.797 15.1106 107.841 15.1995 107.841 15.2662C107.841 15.3329 107.863 15.4016 107.886 15.4238C107.908 15.446 107.952 15.4905 107.952 15.5794C107.952 15.6461 107.975 15.7148 108.019 15.7592C108.065 15.7815 108.065 15.8259 108.065 15.8704C108.065 15.9148 108.065 15.9613 108.11 15.9613C108.154 15.9835 108.154 16.0502 108.154 16.1391C108.132 16.228 108.154 16.2967 108.177 16.319C108.199 16.319 108.221 16.4301 108.243 16.6099C108.265 16.812 108.31 16.9231 108.332 16.9676C108.379 17.012 108.401 17.0787 108.379 17.1474C108.379 17.2141 108.379 17.303 108.423 17.4162C108.468 17.5273 108.49 17.6385 108.468 17.7738C108.445 17.9072 108.445 17.9759 108.49 18.0204C108.512 18.0426 108.534 18.1093 108.534 18.176C108.534 18.2426 108.512 18.2891 108.49 18.3113C108.468 18.3336 108.468 18.4003 108.49 18.5114C108.512 18.6245 108.556 18.7135 108.601 18.7801C108.67 18.8488 108.67 19.0489 108.647 19.3843C108.623 19.5642 108.601 19.7218 108.601 19.8996C108.714 19.8329 108.847 19.7662 108.961 19.6995C109.183 19.5642 109.407 19.4753 109.631 19.4308C109.834 19.3843 109.945 19.3399 109.967 19.3176C109.967 19.2732 110.011 19.2732 110.08 19.2732C110.147 19.2732 110.191 19.251 110.258 19.2065C110.302 19.162 110.393 19.1398 110.527 19.1176C110.662 19.1176 110.818 19.0489 110.997 18.9377C111.175 18.8488 111.444 18.7579 111.826 18.669C112.206 18.6023 112.43 18.5114 112.519 18.4447C112.608 18.378 112.743 18.3336 112.899 18.3336C113.057 18.3336 113.145 18.3336 113.145 18.3113C113.145 18.2891 113.212 18.2891 113.281 18.2891C113.347 18.2891 113.414 18.2669 113.414 18.2426C113.436 18.2204 113.527 18.1982 113.727 18.1982C113.907 18.1982 114.109 18.176 114.309 18.1093C114.511 18.0426 114.713 18.0204 114.869 18.0204C115.049 18.0426 115.182 18.0204 115.273 17.9981C115.362 17.9517 115.451 17.9517 115.564 17.9517C115.675 17.9759 115.742 17.9517 115.786 17.9294C115.833 17.9072 115.944 17.8628 116.168 17.8628C116.391 17.8628 116.659 17.8628 117.019 17.9072C117.354 17.9294 117.668 17.9517 117.936 17.9294C118.205 17.9072 118.339 17.9294 118.383 17.9517C118.405 17.9759 118.496 17.9981 118.652 17.9981C118.809 17.9981 118.965 18.0204 119.123 18.087C119.278 18.1537 119.391 18.1537 119.436 18.1315C119.502 18.1093 119.547 18.1093 119.616 18.1093C119.682 18.1093 119.727 18.1315 119.771 18.176C119.816 18.1982 119.86 18.2204 119.929 18.1982C119.995 18.176 120.04 18.1982 120.062 18.2426C120.084 18.2669 120.153 18.3113 120.286 18.3336C120.398 18.3558 120.511 18.4003 120.555 18.4225C120.6 18.4447 120.666 18.4892 120.757 18.5114C120.824 18.5336 120.868 18.5336 120.868 18.5579C120.868 18.5801 120.957 18.6023 121.093 18.6245C121.248 18.6468 121.339 18.669 121.361 18.7135C121.384 18.7579 121.406 18.7579 121.45 18.7579C121.495 18.7357 121.539 18.7801 121.63 18.8488C121.719 18.9155 121.764 18.96 121.808 18.96C121.852 18.96 121.875 18.9822 121.875 19.0044C121.899 19.0267 121.943 19.0711 122.01 19.0933C122.077 19.1176 122.168 19.162 122.234 19.251C122.301 19.3176 122.39 19.3843 122.503 19.453C122.614 19.5197 122.681 19.5864 122.725 19.6995C122.772 19.8107 122.816 19.8551 122.861 19.8774C122.905 19.8996 122.927 19.9218 122.927 19.9663C122.927 20.0127 122.95 20.035 123.041 20.0794C123.107 20.1239 123.174 20.1906 123.218 20.2815C123.285 20.3704 123.332 20.5482 123.398 20.817C123.465 21.0857 123.465 21.31 123.443 21.4676C123.421 21.6455 123.398 21.7364 123.354 21.7586C123.307 21.7808 123.307 21.8253 123.307 21.8697C123.307 21.892 123.307 21.9364 123.307 21.9587H123.285C123.263 21.9587 123.218 22.0274 123.152 22.183C123.085 22.3406 123.016 22.4295 122.927 22.4739C122.839 22.5184 122.816 22.5628 122.816 22.5871C122.816 22.6315 122.75 22.6982 122.614 22.8094C122.481 22.9225 122.412 22.9892 122.412 23.0337C122.412 23.0781 122.346 23.1003 122.234 23.1448C122.121 23.1913 122.01 23.2579 121.943 23.3246C121.852 23.4135 121.764 23.4378 121.719 23.4135C121.652 23.3913 121.473 23.4822 121.182 23.6601C120.891 23.8399 120.735 23.9066 120.666 23.9066C120.6 23.9066 120.577 23.9066 120.511 23.951C120.444 23.9955 120.286 24.042 120.018 24.1087C119.749 24.1753 119.593 24.1976 119.569 24.242C119.525 24.2642 119.502 24.2865 119.458 24.2642C119.414 24.242 119.302 24.2865 119.123 24.3552C119.034 24.3996 118.943 24.4441 118.854 24.4663C118.898 24.4663 118.943 24.4663 118.987 24.4663C119.078 24.4663 119.145 24.4885 119.167 24.5108C119.189 24.5552 119.302 24.6017 119.48 24.6684C119.682 24.7351 119.838 24.824 119.973 24.9149C120.107 25.0038 120.22 25.0705 120.309 25.0927C120.398 25.115 120.511 25.1837 120.622 25.2948C120.735 25.4059 120.846 25.4746 120.935 25.4746C121.026 25.4969 121.093 25.5413 121.159 25.608C121.226 25.6747 121.271 25.7434 121.339 25.7878C121.406 25.8101 121.45 25.8767 121.473 25.9434C121.495 26.0101 121.517 26.0566 121.562 26.0566C121.608 26.0566 121.652 26.0788 121.697 26.1455C121.741 26.2122 121.786 26.2344 121.786 26.2789C121.786 26.3253 121.852 26.3698 121.966 26.4587C122.077 26.5476 122.143 26.6163 122.19 26.7052C122.234 26.7941 122.301 26.8608 122.368 26.883C122.434 26.9295 122.481 26.9962 122.503 27.1073C122.525 27.2205 122.592 27.3539 122.725 27.4892C122.839 27.6226 122.905 27.7115 122.905 27.758C122.905 27.7802 122.927 27.8691 122.994 28.0025C123.063 28.1379 123.107 28.249 123.107 28.2935C123.107 28.3622 123.152 28.4511 123.218 28.54C123.307 28.6531 123.332 28.7198 123.332 28.7421C123.332 28.7643 123.332 28.8087 123.354 28.8087C123.376 28.8087 123.398 28.8976 123.421 29.033C123.443 29.1886 123.465 29.2796 123.509 29.324C123.554 29.3685 123.554 29.3907 123.532 29.4129C123.532 29.4351 123.509 29.4351 123.487 29.4351C123.487 29.4351 123.509 29.4574 123.532 29.4574C123.554 29.4574 123.554 29.5483 123.554 29.7261C123.554 29.906 123.554 29.9726 123.532 29.9949C123.509 30.0171 123.509 30.1747 123.509 30.4879C123.509 30.8011 123.509 30.981 123.465 31.0476C123.443 31.1143 123.421 31.1588 123.443 31.2275C123.443 31.2942 123.443 31.3609 123.376 31.4275C123.307 31.4942 123.263 31.6074 123.218 31.7852C123.174 31.965 123.13 32.0782 123.063 32.1226C122.994 32.1671 122.972 32.256 122.95 32.3692C122.927 32.4803 122.861 32.5692 122.772 32.6137C122.681 32.6824 122.57 32.7935 122.434 32.9733C122.301 33.1512 122.19 33.2866 122.099 33.3532C122.01 33.4199 121.943 33.4421 121.899 33.4421C121.852 33.4421 121.808 33.4644 121.741 33.5331C121.675 33.5998 121.608 33.6442 121.517 33.6664C121.406 33.6887 121.339 33.7331 121.271 33.7776C121.204 33.8241 121.159 33.8685 121.093 33.8685C121.026 33.8685 120.913 33.8907 120.78 33.9574C120.644 34.0241 120.555 34.0463 120.511 34.0241C120.466 34.0019 120.398 34.0463 120.286 34.0908C120.175 34.1373 120.062 34.1817 119.951 34.1817C119.838 34.1817 119.749 34.2039 119.682 34.2484C119.616 34.2928 119.325 34.3151 118.787 34.3373C118.25 34.3373 117.959 34.3595 117.892 34.3838C117.823 34.406 117.779 34.406 117.712 34.3595C117.645 34.3151 117.532 34.2928 117.377 34.3151C117.31 34.3151 117.219 34.3373 117.13 34.3373V34.3151V34.2928C117.108 34.2928 117.108 34.2928 117.086 34.2928C117.041 34.2928 117.019 34.2928 117.019 34.3151C116.997 34.3373 116.973 34.3373 116.906 34.3373C116.861 34.3373 116.839 34.3373 116.795 34.3373V34.3151V34.2928C116.728 34.2928 116.659 34.2928 116.593 34.2928C116.459 34.2928 116.368 34.2706 116.302 34.2484C116.235 34.2262 116.077 34.1817 115.809 34.1373C115.54 34.0908 115.34 34.0463 115.182 33.9796C115.049 33.913 114.936 33.913 114.847 33.9352C114.802 33.9574 114.78 33.9574 114.736 33.9796C114.78 34.0686 114.825 34.1595 114.869 34.2262C114.958 34.406 114.982 34.5171 114.958 34.5616C114.936 34.6061 114.958 34.7637 115.027 34.988C115.093 35.2102 115.116 35.4123 115.116 35.5921C115.093 35.77 115.116 35.8831 115.138 35.9498C115.16 36.0165 115.182 36.0832 115.182 36.1296C115.182 36.1741 115.138 36.263 115.093 36.3297C115.027 36.3984 114.982 36.4873 114.982 36.5762C114.982 36.6429 114.936 36.7561 114.891 36.8894C114.825 37.0248 114.736 37.1137 114.6 37.1582C114.467 37.2026 114.376 37.2713 114.309 37.338C114.243 37.4047 114.109 37.4714 113.929 37.4936C113.75 37.5158 113.638 37.5158 113.55 37.4714C113.481 37.4491 113.392 37.4269 113.325 37.4491C113.259 37.4714 113.212 37.4714 113.212 37.4491C113.212 37.4269 113.145 37.4047 113.079 37.4047C113.012 37.3825 112.943 37.3602 112.899 37.3158C112.854 37.2713 112.743 37.2026 112.519 37.1359C112.317 37.0693 112.206 37.0248 112.184 36.9803C112.184 36.9339 112.117 36.9116 112.048 36.8672C112.004 36.845 111.982 36.8227 111.937 36.8005C111.937 36.845 111.937 36.8894 111.937 36.9561C111.937 37.0693 111.959 37.1582 112.004 37.2713C112.048 37.3602 112.07 37.5158 112.048 37.6957C112.048 37.7846 112.026 37.8755 112.026 37.9644H112.048C112.07 37.9644 112.07 37.9644 112.095 37.9644C112.095 37.9866 112.095 38.0089 112.07 38.0311C112.048 38.0755 112.07 38.0978 112.095 38.12C112.117 38.12 112.117 38.1443 112.139 38.1443C112.117 38.1665 112.117 38.1665 112.095 38.1887C112.07 38.2109 112.026 38.3888 111.982 38.7484C111.937 39.1061 111.893 39.2859 111.848 39.3304C111.804 39.3748 111.804 39.3971 111.804 39.4415C111.804 39.486 111.779 39.5304 111.735 39.5527C111.691 39.5769 111.668 39.6436 111.646 39.7325C111.624 39.8214 111.579 39.8901 111.488 39.9568C111.422 40.0235 111.377 40.0679 111.355 40.1124C111.355 40.1589 111.288 40.2033 111.153 40.2478C111.042 40.2922 110.953 40.3367 110.907 40.3811C110.862 40.4256 110.684 40.4498 110.347 40.4498C110.011 40.4498 109.765 40.3811 109.609 40.27C109.452 40.1589 109.296 40.0902 109.161 40.0457C109.027 40.0013 108.914 39.9568 108.825 39.8679C108.759 39.777 108.67 39.7325 108.601 39.7325C108.534 39.7103 108.49 39.688 108.468 39.6214C108.445 39.5527 108.401 39.5082 108.332 39.486C108.265 39.4637 108.221 39.4193 108.221 39.3971C108.221 39.3748 108.154 39.2859 108.041 39.2172C107.93 39.1283 107.841 39.0616 107.797 38.9707C107.728 38.8818 107.684 38.8151 107.617 38.7929C107.55 38.7707 107.528 38.7262 107.506 38.6575C107.483 38.5908 107.393 38.4797 107.237 38.3221C107.079 38.1665 106.968 38.0311 106.902 37.8977C106.833 37.7623 106.766 37.6734 106.722 37.6512C106.677 37.629 106.633 37.5845 106.633 37.538C106.633 37.4936 106.609 37.4491 106.586 37.4269C106.542 37.4047 106.542 37.3602 106.542 37.338C106.542 37.3158 106.542 37.2471 106.497 37.1582C106.453 37.0915 106.386 37.0248 106.318 36.9803C106.251 36.9339 106.184 36.845 106.14 36.7116C106.095 36.5762 106.004 36.4206 105.893 36.263C105.782 36.1054 105.713 35.972 105.713 35.9053C105.713 35.8387 105.669 35.7255 105.558 35.5921C105.445 35.4345 105.4 35.3678 105.422 35.3456C105.422 35.3234 105.4 35.2567 105.333 35.1436C105.267 35.0324 105.245 34.9657 105.245 34.9193C105.245 34.8748 105.245 34.8303 105.2 34.7859C105.154 34.7192 105.131 34.6505 105.109 34.5616C105.109 34.4727 105.065 34.3838 104.998 34.3373C104.931 34.2706 104.909 34.2039 104.909 34.1595C104.909 34.1373 104.909 34.115 104.931 34.0908C104.909 34.0908 104.909 34.0908 104.887 34.0908C104.863 34.0908 104.84 34.0463 104.796 33.9574C104.752 33.8685 104.729 33.7553 104.729 33.6442C104.707 33.5331 104.685 33.4199 104.64 33.3532C104.594 33.2643 104.572 33.2178 104.594 33.1734C104.618 33.1289 104.572 33.0178 104.505 32.8602C104.438 32.7046 104.372 32.5248 104.327 32.3005C104.281 32.1004 104.258 31.965 104.236 31.9428C104.192 31.9206 104.17 31.8094 104.147 31.6518C104.125 31.472 104.103 31.3831 104.081 31.3831C104.058 31.3831 104.058 31.3831 104.036 31.3831C104.036 31.3386 104.036 31.2942 104.036 31.2497C104.036 31.1588 104.036 31.0921 103.99 31.0699C103.968 31.0476 103.968 30.981 103.968 30.89C103.99 30.8011 103.968 30.7344 103.923 30.7122C103.879 30.6678 103.879 30.6213 103.879 30.5324C103.879 30.4435 103.901 30.399 103.923 30.3546C103.923 30.3546 103.945 30.3303 103.968 30.3303C103.945 30.3081 103.923 30.3081 103.923 30.3081C103.901 30.2859 103.901 30.2859 103.879 30.2636C103.879 30.2859 103.879 30.3081 103.856 30.3081C103.834 30.3303 103.812 30.3546 103.767 30.3546C103.721 30.3546 103.654 30.399 103.565 30.4879C103.476 30.5768 103.363 30.6455 103.23 30.7122C103.095 30.7789 103.028 30.8011 103.028 30.8234C103.028 30.8456 103.028 30.8456 103.028 30.8456C103.028 30.8456 103.006 30.8456 102.983 30.8234L102.961 30.8011C102.961 30.8234 102.939 30.8234 102.939 30.8456C102.939 30.8678 102.848 30.9123 102.692 30.9587C102.535 31.0032 102.446 31.0476 102.401 31.0921C102.379 31.1366 102.288 31.181 102.177 31.2032C102.066 31.2275 101.997 31.2719 101.975 31.2942C101.953 31.3386 101.908 31.3386 101.82 31.3386C101.753 31.3386 101.662 31.3608 101.595 31.4053C101.529 31.4498 101.462 31.472 101.415 31.472C101.371 31.472 101.304 31.4942 101.282 31.5407C101.26 31.5851 101.193 31.6074 101.124 31.6074C101.058 31.6074 100.991 31.6296 100.947 31.6741C100.902 31.7185 100.811 31.7407 100.745 31.763C100.656 31.7852 100.611 31.763 100.611 31.7407C100.611 31.7185 100.589 31.7185 100.589 31.6963C100.567 31.7185 100.542 31.7407 100.542 31.7407C100.52 31.763 100.229 31.8094 99.6695 31.8761C99.1098 31.9428 98.7966 31.9873 98.6855 32.0317C98.5743 32.0762 98.439 32.0762 98.2611 32.0539C98.0813 32.0317 97.9924 32.0317 97.9459 32.0539C97.9015 32.1004 97.8348 32.1004 97.7681 32.0762C97.6772 32.0539 97.4771 32.0317 97.1639 32.0317C96.8507 32.0317 96.5597 32.0095 96.3577 31.9428C96.1556 31.8761 96 31.8761 95.8868 31.8983C95.7757 31.9206 95.709 31.9206 95.6625 31.8761C95.6181 31.8539 95.5736 31.8317 95.4847 31.8539C95.4625 31.8539 95.418 31.8761 95.3958 31.8761C95.3958 31.8539 95.3958 31.8539 95.3958 31.8539C95.3958 31.8317 95.3049 31.8094 95.1271 31.8094C94.9472 31.7852 94.8583 31.7852 94.8583 31.763C94.8583 31.7407 94.8583 31.7407 94.8583 31.7185C94.8583 31.7407 94.8361 31.7407 94.8361 31.763C94.8139 31.7852 94.7674 31.763 94.7007 31.7185C94.634 31.6518 94.5229 31.6296 94.343 31.6296C94.1632 31.6296 94.0521 31.5851 94.0076 31.5407C93.9632 31.4942 93.8722 31.472 93.7166 31.4498C93.559 31.4275 93.4701 31.4053 93.4034 31.3609C93.3347 31.3164 93.268 31.2942 93.1569 31.2719C93.0438 31.2497 92.9771 31.2275 92.9548 31.2032C92.9326 31.181 92.9104 31.1588 92.8659 31.181C92.8215 31.181 92.775 31.181 92.6861 31.1366C92.5972 31.0921 92.5083 31.0699 92.4173 31.0476C92.3284 31.0254 92.2173 30.981 92.1041 30.89C91.993 30.8011 91.8354 30.7344 91.6576 30.69C91.4777 30.6455 91.3423 30.5991 91.2312 30.5101C91.1423 30.4435 91.0756 30.4212 91.0514 30.4212C91.0291 30.4435 90.8735 30.3303 90.6048 30.108C90.3361 29.8837 90.0895 29.7706 89.9339 29.7261C89.7541 29.6817 89.643 29.5928 89.552 29.4796C89.4853 29.3685 89.3964 29.3018 89.3277 29.2573C89.2388 29.2351 89.0832 29.0997 88.8145 28.8976C88.5457 28.6976 88.4103 28.5844 88.4103 28.54C88.3881 28.4955 88.3214 28.4066 88.1881 28.2712C88.0527 28.1379 87.9416 28.049 87.8971 28.0247C87.8284 28.0025 87.8062 27.958 87.8062 27.9358C87.8062 27.9136 87.7617 27.8469 87.6283 27.7337C87.493 27.6448 87.4263 27.5559 87.4041 27.4892C87.3818 27.4205 87.3818 27.3983 87.3596 27.3539C87.3374 27.3316 87.3151 27.3094 87.2687 27.3094C87.2464 27.3094 87.202 27.2649 87.1798 27.1983C87.1575 27.1296 87.1131 27.0407 87.0464 26.974C86.9777 26.9073 86.9332 26.8386 86.911 26.7497C86.8888 26.683 86.8666 26.6163 86.8221 26.6163C86.7999 26.5921 86.7554 26.5476 86.7089 26.4365C86.6645 26.3253 86.5756 26.2122 86.4644 26.0788C86.3291 25.9434 86.2624 25.8101 86.2401 25.6969C86.2179 25.5858 86.1735 25.4969 86.1492 25.4746C86.1048 25.4504 86.0603 25.3615 86.0158 25.2281C85.9714 25.0927 85.9492 25.0038 85.9269 25.0038C85.9047 25.0038 85.8825 24.9594 85.8582 24.8927C85.836 24.824 85.7916 24.7573 85.7693 24.7351C85.7249 24.7128 85.7026 24.6684 85.7026 24.6462C85.7026 24.6239 85.6804 24.5552 85.6582 24.533C85.6137 24.4885 85.5915 24.4219 85.545 24.2865C85.5006 24.1531 85.4784 24.0642 85.4784 23.9733C85.4784 23.8844 85.4561 23.8177 85.4339 23.7732C85.3894 23.7288 85.3672 23.6378 85.3672 23.5267C85.3672 23.4135 85.3228 23.3246 85.2763 23.2802C85.2318 23.2357 85.2096 23.169 85.2096 23.0559C85.2096 22.9447 85.1874 22.8316 85.1651 22.7427C85.1207 22.6315 85.1207 22.3628 85.1207 21.892C85.1207 21.6677 85.1207 21.4232 85.1207 21.1989C84.9853 21.2433 84.8297 21.2878 84.6943 21.31C84.4034 21.3989 84.1811 21.4232 84.0457 21.4232C83.9123 21.4232 83.8214 21.4454 83.7547 21.4899C83.688 21.5343 83.6436 21.5565 83.5769 21.5343C83.5082 21.5121 83.4193 21.5565 83.3304 21.6232C83.2172 21.6899 83.1283 21.7142 83.0616 21.7142C82.9949 21.6899 82.9485 21.7142 82.9262 21.7364C82.904 21.7586 82.8596 21.7808 82.7484 21.7808C82.6353 21.7808 82.5686 21.8031 82.5241 21.8253C82.4797 21.8697 82.3443 21.892 82.1665 21.9364C81.9644 21.9587 81.829 21.9809 81.7401 21.9587C81.6512 21.9364 81.6067 21.9587 81.5623 21.9809C81.5158 22.0274 81.4491 22.0274 81.3158 22.0274C81.1804 22.0274 81.1137 22.0496 81.047 22.0718C80.9803 22.094 80.8449 22.1163 80.6207 22.1163C80.5095 22.1163 80.3964 22.1163 80.2852 22.1163C80.2852 22.1385 80.2852 22.1385 80.2852 22.1607C80.2852 22.183 80.2185 22.2052 80.1054 22.2274C79.972 22.2496 79.8386 22.2496 79.7033 22.2496C79.5477 22.2274 79.3901 22.2496 79.2324 22.3183C79.0769 22.385 78.9192 22.385 78.7637 22.3628C78.606 22.3183 78.4949 22.3406 78.4282 22.385C78.3373 22.4295 78.2484 22.4517 78.115 22.4295C77.9796 22.4072 77.9129 22.4295 77.9129 22.4517C77.8907 22.4739 77.7553 22.4739 77.5088 22.4739C77.3754 22.4739 77.2421 22.4517 77.1289 22.4517C77.1289 22.4739 77.1289 22.4739 77.1289 22.4739C77.1289 22.4739 77.1289 22.4962 77.1289 22.5184C77.0178 22.5184 76.9269 22.5184 76.8157 22.5184C76.6137 22.5184 76.4803 22.4962 76.4136 22.4739C76.3449 22.4517 76.2338 22.4517 76.0762 22.4739C75.8983 22.4962 75.7185 22.4962 75.4942 22.4739C75.2942 22.4517 75.1588 22.4517 75.1365 22.4739C75.1143 22.4962 75.0476 22.5184 74.9365 22.5184C74.8233 22.5184 74.69 22.4962 74.5768 22.4739C74.4435 22.4517 74.3768 22.4295 74.3303 22.385C74.3081 22.3628 74.1747 22.3406 73.9504 22.3406C73.7261 22.3406 73.5261 22.3183 73.3685 22.2961C73.2129 22.2719 73.0997 22.2052 73.0552 22.1607C73.0108 22.1163 72.9219 22.0718 72.831 22.0718C72.742 22.0718 72.6067 22.0274 72.4511 21.9364C72.2712 21.8475 72.1823 21.7586 72.1379 21.6899C72.0934 21.601 72.0247 21.5565 71.958 21.5343C71.8913 21.5121 71.7802 21.4232 71.6448 21.2878C71.5115 21.1544 71.3761 20.9301 71.2872 20.6836C71.1983 20.4149 71.1518 20.1906 71.1295 19.9663C71.1295 19.7662 71.1295 19.6308 71.174 19.6086C71.1983 19.5864 71.2205 19.5419 71.2205 19.4308C71.2205 19.3399 71.2427 19.2732 71.3094 19.2065C71.3761 19.1398 71.3983 19.0711 71.4205 19.0044C71.4205 18.9377 71.4892 18.8246 71.5781 18.7357C71.667 18.6468 71.7115 18.5579 71.7115 18.5336C71.7115 18.4892 71.756 18.4669 71.8247 18.4225C71.9136 18.378 71.9358 18.3558 71.9358 18.3336C71.9358 18.3113 71.958 18.2891 72.0247 18.2891C72.0934 18.2891 72.1156 18.2204 72.1601 18.1315C72.2045 18.0426 72.2268 17.9981 72.2712 17.9759C72.3157 17.9517 72.3622 17.9294 72.3844 17.885C72.4066 17.8405 72.4511 17.8183 72.4955 17.8183C72.54 17.8183 72.5844 17.7961 72.6531 17.7294C72.7198 17.6607 72.7865 17.6162 72.8754 17.594C72.9663 17.5718 73.0108 17.5495 73.0108 17.5051C73.0108 17.4829 73.0775 17.4384 73.2351 17.3697C73.3907 17.303 73.4574 17.2586 73.4796 17.2141C73.5038 17.1697 73.5705 17.1252 73.6817 17.0787C73.7948 17.0343 73.8837 16.9898 73.9282 16.9231C73.9726 16.8565 74.0858 16.8342 74.2414 16.7878C74.3768 16.7433 74.5101 16.6988 74.6213 16.5877C74.7344 16.4968 74.9122 16.3856 75.1365 16.2967C75.2497 16.2523 75.3608 16.2058 75.472 16.1391C75.4275 16.1169 75.4053 16.0724 75.3608 16.0502C75.2719 15.9835 75.2275 15.9613 75.181 15.9835C75.1365 16.0058 75.0476 15.9835 74.9365 15.9613C74.8011 15.9148 74.69 15.8704 74.599 15.7592C74.4879 15.6703 74.3768 15.5794 74.2414 15.5349C74.108 15.4905 73.9949 15.4238 73.906 15.3329C73.817 15.244 73.7706 15.1773 73.7706 15.1551C73.7706 15.1328 73.7039 15.0419 73.5483 14.9308C73.3907 14.7974 73.3018 14.7065 73.2795 14.6398C73.2573 14.5509 73.2351 14.5044 73.1886 14.5044C73.1664 14.5044 73.1219 14.4377 73.0775 14.371C73.033 14.3043 73.0108 14.1912 73.0108 14.0801C73.0108 13.9689 72.9886 13.9002 72.9663 13.878C72.9441 13.8558 72.9219 13.8113 72.9219 13.7668C72.9219 13.7224 72.8976 13.6557 72.8754 13.6315C72.8532 13.587 72.831 13.4092 72.8532 13.0495C72.8754 12.6918 72.9219 12.4676 72.9886 12.3564C73.0552 12.2453 73.0997 12.1321 73.1219 12.0432C73.1442 11.9543 73.2129 11.8411 73.3018 11.7522C73.3907 11.6411 73.4574 11.5502 73.5038 11.439C73.5483 11.3259 73.5927 11.2592 73.615 11.2592C73.6372 11.2592 73.7706 11.1481 73.9726 10.946C74.1747 10.7217 74.3303 10.6106 74.399 10.6106C74.4657 10.5883 74.5324 10.5661 74.5768 10.4994C74.6213 10.4307 74.7122 10.4085 74.8233 10.364C74.9365 10.3196 75.0699 10.2751 75.2032 10.1842C75.3386 10.1175 75.4275 10.0731 75.472 10.0953C75.5185 10.0953 75.6518 10.0508 75.8983 9.96192C76.1449 9.87099 76.3227 9.78208 76.5025 9.75985C76.6824 9.7154 76.749 9.64872 76.7268 9.51333C76.7046 9.37997 76.6601 9.31126 76.6137 9.26681C76.5692 9.24458 76.547 9.20013 76.547 9.13344C76.547 9.06676 76.5247 9.04453 76.5025 8.99806C76.4803 8.9536 76.4581 8.90915 76.4803 8.79801C76.4803 8.75356 76.4803 8.70708 76.5025 8.6404C76.4803 8.6404 76.4803 8.6404 76.4581 8.6404C76.4358 8.6404 76.4136 8.57372 76.3692 8.4161C76.3449 8.28274 76.3005 8.08067 76.3005 7.85638C76.2782 7.61188 76.2782 7.47649 76.3005 7.43204C76.3005 7.38758 76.3227 7.36535 76.3449 7.36535C76.3692 7.36535 76.3914 7.22997 76.3914 6.96122C76.4136 6.69247 76.5025 6.44797 76.6824 6.2459C76.8602 6.04383 76.9956 5.9327 77.0845 5.9327C77.1734 5.9327 77.2643 5.88824 77.331 5.81954C77.4199 5.75286 77.5331 5.73063 77.7109 5.73063C77.8907 5.73063 78.0019 5.75286 78.0241 5.77508C78.0685 5.81954 78.115 5.81954 78.1595 5.81954C78.2039 5.81954 78.2484 5.81954 78.2928 5.86399C78.3151 5.91047 78.3817 5.91047 78.4504 5.91047C78.5171 5.88824 78.5838 5.91047 78.6505 5.95492C78.7192 5.99938 78.8081 6.02161 78.9415 6.02161C79.0769 6.02161 79.1435 6.04383 79.188 6.08829C79.2324 6.13274 79.2567 6.15699 79.3012 6.13274C79.3456 6.13274 79.3678 6.06606 79.3901 5.95492C79.4123 5.86399 79.3901 5.75286 79.3678 5.66395C79.3456 5.57302 79.3456 5.48411 79.3678 5.37297C79.3901 5.25981 79.3901 5.21536 79.3678 5.19313C79.3456 5.1709 79.3456 5.03754 79.3456 4.79102C79.3456 4.54449 79.3234 4.38688 79.3012 4.36465C79.2789 4.3202 79.2789 4.27574 79.3012 4.23129C79.3234 4.16461 79.3456 4.11813 79.3456 4.02922C79.3456 3.94031 79.3234 3.89586 79.3012 3.89586C79.2789 3.89586 79.2789 3.69379 79.2789 3.33613C79.2789 2.97645 79.3012 2.79863 79.3012 2.77641C79.3234 2.75418 79.3456 2.61879 79.3456 2.35004C79.3456 2.08129 79.3678 1.88125 79.4345 1.72363C79.5012 1.56804 79.5234 1.43266 79.5234 1.34375C79.5234 1.25282 79.5477 1.16391 79.5921 1.05277C79.6366 0.939613 79.7477 0.761794 79.9498 0.515272C80.1296 0.26875 80.3741 0.135385 80.6651 0.0889096C80.7116 0 80.8894 0 80.9561 0ZM80.6207 1.11945C80.5095 1.11945 80.4428 1.14168 80.4428 1.18614C80.4206 1.23059 80.3741 1.25282 80.2852 1.29929C80.1963 1.34375 80.1296 1.45488 80.0832 1.59027C80.0387 1.74586 80.0165 1.90347 79.9942 2.08129C79.9942 2.26113 79.9942 2.37227 80.0165 2.4632C80.0165 2.50766 80.0387 2.55211 80.0387 2.59657C80.0165 2.59657 80.0165 2.59657 80.0165 2.59657C79.9942 2.59657 79.9942 2.59657 79.972 2.59657C79.972 2.75418 79.972 2.88754 79.972 3.04515C79.972 3.20075 79.972 3.33613 79.972 3.49172C79.9498 3.49172 79.9498 3.49172 79.9498 3.49172C79.9498 3.49172 79.9276 3.49172 79.9053 3.49172C79.9053 3.51395 79.9053 3.53618 79.9053 3.53618C79.9053 3.58265 79.9276 3.62711 79.9498 3.73825C79.972 3.82716 79.9942 3.89586 79.972 3.91809C79.9498 3.94031 79.9498 3.98477 79.9942 4.05145C80.0387 4.11813 80.0387 4.16461 80.0165 4.18684C79.9942 4.20906 79.972 4.29797 79.972 4.45558C79.972 4.61118 79.9942 4.70009 80.0165 4.74656C80.0387 4.79102 80.0387 4.83547 80.0165 4.92438C79.9942 4.99106 79.9942 5.10422 80.0387 5.23759C80.0609 5.37297 80.0832 5.55079 80.0832 5.75286C80.0832 5.95492 80.0387 6.20145 79.972 6.4702C79.8831 6.7147 79.7922 6.87231 79.681 6.91676C79.5699 6.96122 79.5012 7.00567 79.479 7.02992C79.4567 7.07438 79.3901 7.07438 79.3012 7.07438C79.2102 7.07438 79.1213 7.07438 79.0769 7.0966C79.0324 7.11883 78.9879 7.11883 78.9657 7.0966C78.9415 7.07438 78.8303 7.07438 78.697 7.07438C78.5394 7.07438 78.4282 7.02992 78.3151 6.96122C78.2039 6.89454 78.0685 6.87231 77.9352 6.87231C77.7776 6.87231 77.6664 6.85008 77.5997 6.80563C77.5088 6.76117 77.4199 6.76117 77.2865 6.7834C77.1512 6.80563 77.0845 6.85008 77.04 6.89454C77.0178 6.93899 76.9733 7.0966 76.9733 7.40981C76.9733 7.70079 76.9733 7.87861 76.9956 7.94731C77.0178 8.01399 77.04 8.05844 77.0622 8.05844C77.0845 8.05844 77.1067 8.12513 77.1067 8.28274C77.1289 8.43833 77.1289 8.52926 77.1734 8.55149C77.1956 8.57372 77.2421 8.6404 77.2643 8.77578C77.2865 8.90915 77.331 8.99806 77.3754 9.02029C77.4421 9.06676 77.4644 9.11122 77.4866 9.1779C77.5088 9.24458 77.5331 9.35774 77.5553 9.55779C77.5775 9.73763 77.5775 9.89322 77.5553 10.0064C77.5331 10.1175 77.4866 10.2307 77.4199 10.3196C77.3532 10.4085 77.2865 10.4772 77.2178 10.4994C77.1512 10.5216 77.0178 10.5661 76.838 10.6106C76.6359 10.655 76.547 10.6995 76.5247 10.7217C76.5025 10.7439 76.4358 10.7682 76.2782 10.7682C76.1449 10.7682 76.0095 10.7904 75.9206 10.8571C75.8317 10.9238 75.7185 10.946 75.6074 10.946C75.4942 10.946 75.4275 10.9682 75.4053 10.9904C75.3831 11.0127 75.2719 11.0814 75.0476 11.1703C74.8233 11.2592 74.69 11.3501 74.6213 11.4168C74.5546 11.4835 74.4879 11.5279 74.3768 11.5724C74.2636 11.6169 74.1969 11.6411 74.1969 11.6856C74.1969 11.7078 74.1747 11.73 74.1747 11.7522C74.1525 11.7522 74.1525 11.73 74.1302 11.73C74.108 11.73 74.0858 11.73 74.0858 11.7078C74.0858 11.73 74.108 11.73 74.108 11.7522C74.108 11.7522 74.1302 11.7745 74.1302 11.7967C74.108 11.7967 74.0858 11.8189 74.0636 11.8189C74.0171 11.8411 73.9949 11.8634 73.9949 11.9078C73.9949 11.9543 73.9726 11.9765 73.9504 11.9765C73.9282 11.9988 73.8615 12.0432 73.7706 12.1766C73.6817 12.2897 73.6372 12.4453 73.615 12.6029C73.5927 12.7585 73.5705 12.8272 73.5483 12.8272H73.5261C73.5261 12.8939 73.5261 12.9384 73.5261 13.0051C73.5261 13.1182 73.5483 13.2071 73.5927 13.296C73.6372 13.3647 73.6594 13.4536 73.6817 13.5426C73.6817 13.6315 73.7261 13.7002 73.7706 13.7668C73.817 13.8335 73.8615 13.878 73.8393 13.9002C73.8393 13.9224 73.817 13.9224 73.817 13.9467C73.8393 13.9467 73.8393 13.9467 73.8615 13.9467C73.8837 13.9467 73.9282 13.9689 73.9282 14.0134C73.9504 14.0578 74.0171 14.1467 74.1747 14.2599C74.3303 14.3933 74.4212 14.4822 74.4657 14.5286C74.4879 14.5953 74.5546 14.6176 74.6455 14.662C74.7344 14.7065 74.7789 14.7287 74.7789 14.7509C74.7789 14.7731 74.7789 14.7731 74.7789 14.7974L74.8011 14.7731C74.8233 14.7731 74.8678 14.7974 74.89 14.8641C74.9365 14.9308 75.0699 14.9752 75.2942 15.0197C75.5185 15.0641 75.6296 15.0884 75.6296 15.1106C75.6296 15.1328 75.7185 15.1773 75.9428 15.2662C76.1449 15.3329 76.256 15.4016 76.2782 15.446C76.3005 15.4905 76.3449 15.5349 76.4358 15.5572C76.5247 15.6016 76.5692 15.6238 76.5692 15.6703C76.5692 15.7148 76.5914 15.737 76.6137 15.737H76.6359C76.6137 15.737 76.6137 15.7592 76.6137 15.7592C76.5914 15.7815 76.5914 15.7815 76.5692 15.7815C76.5914 15.7815 76.5914 15.8037 76.6137 15.8037C76.6359 15.8037 76.6359 15.8481 76.6359 15.8926C76.6137 15.9371 76.6359 15.9835 76.6601 16.0058C76.6824 16.028 76.6601 16.1391 76.5914 16.2967C76.5247 16.4523 76.4358 16.5655 76.3227 16.6099C76.2115 16.6544 76.1449 16.7211 76.1004 16.7878C76.0762 16.8565 75.965 16.9009 75.8094 16.9454C75.6518 16.9898 75.3608 17.1252 74.9365 17.3697C74.5101 17.6162 74.2636 17.7294 74.2192 17.7294C74.1747 17.7294 74.0858 17.7516 73.9726 17.8183C73.8615 17.885 73.7948 17.9294 73.7948 17.9759C73.7948 18.0204 73.7261 18.0648 73.5927 18.087C73.5261 18.1093 73.4796 18.1315 73.4129 18.1315C73.4129 18.1537 73.4129 18.1537 73.4351 18.1537C73.4574 18.176 73.4351 18.2204 73.3685 18.2669C73.324 18.3336 73.2351 18.3558 73.1219 18.4003C73.033 18.4447 72.9441 18.4892 72.8976 18.5579C72.8532 18.6245 72.742 18.7135 72.5622 18.8488C72.3844 18.96 72.249 19.1176 72.1379 19.2732C72.0247 19.4308 71.9803 19.5864 71.958 19.7885C71.9358 19.9663 71.958 20.0794 71.9803 20.1461C72.0247 20.2128 72.049 20.2815 72.049 20.3482C72.049 20.4149 72.1379 20.5482 72.3399 20.7281C72.54 20.9079 72.6976 20.9968 72.7865 21.019C72.8754 21.0413 72.9663 21.0635 73.0108 21.108C73.0552 21.1544 73.1442 21.1989 73.2573 21.2211C73.3685 21.2433 73.5261 21.2878 73.7483 21.2878C73.9726 21.31 74.108 21.3322 74.1969 21.3767C74.2858 21.4232 74.4435 21.4454 74.7122 21.4232C74.9587 21.3989 75.0921 21.4232 75.1365 21.4454C75.1588 21.4676 75.3386 21.4899 75.6296 21.4899C75.9206 21.5121 76.1004 21.4899 76.1893 21.4676C76.2782 21.4454 76.4358 21.4454 76.6601 21.4454C76.8824 21.4676 77.0622 21.4454 77.1734 21.4232C77.2421 21.3989 77.2865 21.3989 77.3532 21.3767C77.3532 21.3989 77.3532 21.3989 77.3532 21.4232C77.3532 21.4454 77.3532 21.4454 77.3532 21.4454C77.4199 21.4454 77.4866 21.4232 77.5553 21.4232C77.6887 21.3989 77.7553 21.4232 77.7776 21.4454C77.7998 21.4676 77.8907 21.4676 78.0908 21.4232C78.2706 21.3767 78.4949 21.3545 78.7192 21.3767C78.9415 21.3989 79.1658 21.3545 79.3678 21.2878C79.5699 21.2211 79.8386 21.1767 80.1741 21.1767C80.5095 21.1544 80.6651 21.1544 80.6651 21.1322C80.6651 21.108 80.6651 21.108 80.6651 21.108C80.6894 21.1322 80.7116 21.1322 80.7116 21.1322C80.7338 21.1544 80.8894 21.1322 81.1137 21.0635C81.338 20.9968 81.5158 20.9746 81.5845 20.9746C81.6734 20.9968 81.7401 20.9746 81.829 20.9079C81.9199 20.8392 81.9866 20.817 82.0755 20.8392C82.12 20.8392 82.1665 20.8635 82.2109 20.8635C82.2109 20.8392 82.2109 20.8392 82.2109 20.8392C82.2109 20.817 82.2776 20.7948 82.3887 20.7948C82.5019 20.7948 82.613 20.7503 82.6797 20.7058C82.7706 20.6614 82.8151 20.6392 82.8373 20.6836C82.8596 20.7058 82.9485 20.6836 83.1061 20.6392C83.2617 20.5725 83.4193 20.5482 83.5526 20.5482C83.688 20.526 83.7992 20.5038 83.8679 20.4593C83.9568 20.4149 84.0679 20.3926 84.2033 20.3704C84.3589 20.3482 84.4498 20.326 84.4943 20.2815C84.5387 20.235 84.6721 20.1906 84.8519 20.1461C85.054 20.1017 85.1651 19.8996 85.2096 19.5419C85.2541 19.1843 85.2541 18.9822 85.2096 18.96C85.1874 18.9377 85.0762 18.8933 84.9186 18.8933C84.763 18.8933 84.5832 18.8246 84.4034 18.7579C84.2255 18.669 84.0679 18.6468 83.9346 18.669C83.7992 18.6912 83.688 18.6912 83.6214 18.6468C83.5526 18.6245 83.3971 18.6023 83.1728 18.6245C82.9262 18.6468 82.7706 18.6468 82.6575 18.6245C82.5686 18.6023 82.4574 18.5579 82.3887 18.5336C82.2998 18.4892 82.2554 18.4003 82.2109 18.2426C82.1665 18.087 82.1665 17.9759 82.2331 17.8628C82.2998 17.7516 82.411 17.6607 82.5464 17.6162C82.6797 17.5718 83.0394 17.594 83.5769 17.6607C84.1124 17.7294 84.4256 17.7516 84.5165 17.7516C84.6054 17.7294 84.6943 17.7516 84.763 17.7961C84.8519 17.8405 84.9853 17.885 85.1874 17.9294C85.2763 17.9517 85.3894 17.9759 85.5006 17.9981C85.5006 17.9517 85.5006 17.9294 85.5006 17.885C85.5006 17.8183 85.5673 17.6607 85.6804 17.4384C85.7916 17.2141 85.8582 17.0343 85.8582 16.9231C85.8582 16.812 85.7471 16.6766 85.5006 16.519C85.2318 16.3412 84.9631 16.2058 84.6499 16.0947C84.3367 15.9835 84.1124 15.8926 83.9568 15.8037C83.7992 15.7148 83.6658 15.6703 83.5769 15.6461C83.486 15.6238 83.3748 15.6016 83.2394 15.5572C83.1283 15.4905 83.0616 15.4683 83.0616 15.446C83.0616 15.4238 82.9262 15.3793 82.704 15.3551C82.4574 15.3106 82.2998 15.2884 82.2554 15.2662C82.1887 15.244 82.1665 15.2217 82.1665 15.1773C82.1442 15.1328 82.0978 15.1106 81.9866 15.0641C81.8755 15.0197 81.7623 15.0197 81.6734 15.0197C81.5845 15.0197 81.4491 14.9752 81.2935 14.8863C81.1359 14.7974 81.0026 14.7509 80.8672 14.7731C80.7338 14.7974 80.5984 14.7287 80.4428 14.6176C80.2852 14.5064 80.1963 14.371 80.1963 14.2134C80.1741 14.0578 80.1963 13.9467 80.263 13.878C80.3297 13.8113 80.3964 13.7668 80.4651 13.7224C80.5317 13.6779 80.7116 13.7002 80.9803 13.7668C81.2471 13.8335 81.4269 13.8558 81.5158 13.8558C81.6067 13.8558 81.6956 13.878 81.8068 13.9467C81.8977 14.0134 82.0311 14.0578 82.1665 14.0578C82.2998 14.0801 82.3887 14.1023 82.4352 14.1467C82.4797 14.1912 82.5464 14.2134 82.6575 14.2134C82.7706 14.2134 82.8373 14.2377 82.8818 14.3043C82.9262 14.371 83.0172 14.3933 83.1283 14.3933C83.2617 14.4155 83.3081 14.4155 83.3081 14.4377C83.3081 14.4599 83.3748 14.4822 83.5082 14.5286C83.6436 14.5731 83.7325 14.5953 83.7769 14.6398C83.8214 14.6842 83.9346 14.7287 84.0901 14.7509C84.2478 14.7731 84.3589 14.8196 84.4034 14.8641C84.4256 14.9085 84.4943 14.953 84.5832 14.9752C84.6721 14.9974 84.7408 15.0197 84.7853 14.9974C84.8297 14.9974 84.8964 15.0197 84.9631 15.0884C85.054 15.1551 85.1207 15.1995 85.2096 15.2217C85.3005 15.244 85.345 15.2884 85.3894 15.3329C85.4339 15.3793 85.5228 15.4238 85.7026 15.4683C85.8825 15.4905 86.0158 15.5572 86.127 15.6461C86.1957 15.6925 86.2624 15.737 86.3068 15.7815C86.3068 15.7592 86.2846 15.7592 86.2846 15.737C86.2624 15.7148 86.3068 15.6461 86.3513 15.5349C86.3957 15.4238 86.4402 15.3551 86.4644 15.3551C86.4867 15.3551 86.5311 15.2662 86.5756 15.0641C86.62 14.8641 86.6867 14.7509 86.7312 14.7065C86.7554 14.6842 86.7776 14.662 86.7999 14.6398C86.7776 14.6176 86.7312 14.6176 86.7089 14.5953C86.6423 14.5731 86.62 14.5509 86.62 14.5064C86.62 14.4599 86.5756 14.4599 86.5311 14.4599C86.4867 14.4599 86.3957 14.3933 86.2846 14.2134C86.1492 14.0578 86.0825 13.9911 86.0381 13.9911C86.0158 13.9911 85.9492 13.9467 85.8825 13.878C85.8138 13.8113 85.7249 13.7002 85.6137 13.4981C85.5006 13.3183 85.4339 13.2293 85.4117 13.2293C85.3894 13.2293 85.3894 13.2293 85.3672 13.2293C85.3672 13.2071 85.3672 13.1849 85.3672 13.1849C85.3672 13.1404 85.345 13.1182 85.3005 13.096C85.2541 13.0738 85.2318 13.0273 85.2096 12.9828C85.1874 12.9384 85.1651 12.9161 85.1429 12.9161C85.0985 12.9161 85.0096 12.7828 84.8742 12.5363C84.7166 12.2675 84.6276 12.0654 84.561 11.8856C84.4943 11.7078 84.4721 11.5946 84.4256 11.5946C84.4034 11.5724 84.3811 11.4835 84.4034 11.3501C84.4256 11.2147 84.4256 11.1036 84.4721 11.0349C84.4943 10.9682 84.5387 10.9238 84.6054 10.8793C84.6721 10.8349 84.763 10.8349 84.8964 10.8349C85.0318 10.8349 85.1207 10.8793 85.1651 10.9015C85.2096 10.946 85.2541 11.0127 85.2763 11.1036C85.3228 11.2147 85.345 11.2814 85.3894 11.3259C85.4339 11.3723 85.4561 11.4613 85.4784 11.5724C85.5006 11.7078 85.545 11.8189 85.6137 11.9078C85.6804 12.021 85.7471 12.0877 85.7916 12.1099C85.836 12.1321 85.8825 12.2008 85.8825 12.2897C85.8825 12.3786 85.9492 12.4453 86.0381 12.5363C86.127 12.6029 86.2179 12.7141 86.2846 12.8495C86.3513 12.9828 86.418 13.0495 86.4644 13.0738C86.5089 13.0738 86.5533 13.1404 86.6423 13.2516C86.7089 13.3405 86.7999 13.4536 86.911 13.5426C87.0242 13.6315 87.1131 13.6779 87.1575 13.6557C87.2242 13.6557 87.2464 13.587 87.2687 13.4981C87.2909 13.4092 87.3374 13.3183 87.4263 13.2516C87.5152 13.1627 87.5596 13.0738 87.6061 12.9384C87.6506 12.8272 87.6728 12.7363 87.7173 12.7141C87.7617 12.6918 87.8062 12.6029 87.8728 12.4676C87.9416 12.3564 87.9638 12.2897 88.0082 12.2675C88.0527 12.2675 88.0527 12.1544 88.0527 11.9765C88.0527 11.7967 88.0082 11.6169 87.9193 11.439C87.8284 11.2592 87.7839 11.0814 87.7617 10.9238C87.7617 10.7682 87.7173 10.655 87.6728 10.6328C87.6061 10.5883 87.5819 10.4772 87.5596 10.2751C87.5374 10.0953 87.493 9.96192 87.4707 9.89322C87.4263 9.82653 87.4041 9.80431 87.4263 9.75985C87.4485 9.7154 87.4041 9.62649 87.3151 9.46887C87.2242 9.28904 87.1798 9.20013 87.1798 9.15567C87.1798 9.11122 87.1575 9.06676 87.1131 9.02029C87.0686 8.97583 87.0464 8.93138 87.0686 8.88692C87.0686 8.84247 87.0686 8.82024 87.0242 8.79801C86.9999 8.77578 86.9555 8.70708 86.9555 8.61817C86.9555 8.52926 86.911 8.46258 86.8666 8.43833C86.8221 8.39388 86.7554 8.23829 86.6423 7.92508C86.5311 7.61188 86.418 7.43204 86.3291 7.34313C86.2401 7.2522 86.1957 7.18551 86.2179 7.16329C86.2179 7.11883 86.2179 7.07438 86.1735 6.98345C86.1492 6.89454 86.0825 6.82786 86.0158 6.76117C85.9492 6.69247 85.9047 6.64802 85.9047 6.58133C85.8825 6.51465 85.836 6.42372 85.7471 6.33481C85.6582 6.2459 85.6137 6.15699 85.5915 6.08829C85.5915 6.02161 85.5228 5.91047 85.3894 5.79731C85.2541 5.68617 85.1874 5.57302 85.1874 5.48411C85.1651 5.37297 85.1429 5.32852 85.1207 5.30629C85.0762 5.28204 85.054 5.23759 85.0096 5.1709C84.9631 5.08199 84.9409 5.03754 84.9631 5.01531C84.9853 4.99106 84.9186 4.94661 84.8297 4.8577C84.7408 4.79102 84.6721 4.72433 84.6499 4.67786C84.6276 4.6334 84.6276 4.61118 84.6054 4.61118C84.5832 4.61118 84.5832 4.61118 84.561 4.61118L84.5832 4.58895C84.6054 4.56672 84.561 4.52227 84.4721 4.43336C84.3811 4.34243 84.3367 4.29797 84.3367 4.25352C84.3367 4.20906 84.3144 4.14238 84.2478 4.07368C84.1811 4.007 84.0901 3.89586 83.9568 3.7827C83.8214 3.67156 83.7547 3.58265 83.7325 3.53618C83.7325 3.49172 83.7103 3.4695 83.6658 3.4695C83.6214 3.4695 83.5526 3.38059 83.4193 3.22297C83.2859 3.06738 83.1728 2.932 83.0839 2.86531C82.9949 2.79863 82.904 2.73195 82.8818 2.64102C82.8596 2.57434 82.7929 2.50766 82.704 2.4632C82.6353 2.41875 82.5686 2.37227 82.5241 2.28336C82.4797 2.19445 82.4352 2.15 82.3443 2.10352C82.2554 2.05907 82.2331 2.03684 82.1887 1.97016C82.1665 1.90347 81.9199 1.74586 81.4714 1.49934C81.0026 1.23059 80.7338 1.09723 80.6207 1.11945ZM97.4104 9.1779C97.364 9.20013 97.2528 9.20013 97.073 9.1779C96.8952 9.15567 96.7375 9.15567 96.6042 9.15567C96.4688 9.15567 96.4021 9.1779 96.3577 9.20013C96.3354 9.22235 96.1778 9.24458 95.9091 9.24458C95.6403 9.24458 95.3049 9.28904 94.9472 9.35774C94.5896 9.42442 94.2986 9.51333 94.0521 9.58001C93.8055 9.67094 93.6479 9.7154 93.559 9.69317C93.4701 9.69317 93.4034 9.7154 93.3347 9.75985C93.268 9.80431 93.1569 9.87099 92.9771 9.91747C92.7993 9.96192 92.6861 10.0064 92.6416 10.0508C92.5972 10.0953 92.5527 10.1175 92.5083 10.0953C92.4618 10.0731 92.4173 10.0953 92.3729 10.1397C92.3284 10.1862 92.284 10.2084 92.193 10.2084C92.1041 10.2084 92.0597 10.2307 92.0152 10.2751C91.9485 10.3196 91.8798 10.3418 91.7687 10.3863C91.6798 10.4085 91.5889 10.4529 91.5 10.5439C91.411 10.6328 91.3666 10.655 91.3201 10.655C91.2757 10.655 91.2312 10.6995 91.1645 10.7439C91.0978 10.8126 91.0756 10.8349 91.0291 10.8349C91.0069 10.8349 90.9625 10.8349 90.9402 10.8793C90.918 10.9238 90.8735 10.946 90.7846 10.946C90.6937 10.946 90.627 11.0127 90.5381 11.1036C90.4472 11.1925 90.3138 11.2814 90.1562 11.3501C90.0006 11.439 89.8875 11.5057 89.843 11.5946C89.7985 11.6856 89.7096 11.7522 89.5965 11.7967C89.4853 11.8411 89.3964 11.9321 89.3055 12.0432C89.2166 12.1544 89.1721 12.2231 89.1277 12.2231C89.0832 12.2453 89.0368 12.2675 89.0368 12.3342C89.0145 12.4009 88.9701 12.4453 88.9034 12.514C88.8367 12.5807 88.7923 12.6474 88.7458 12.7363C88.7236 12.8495 88.6569 12.9161 88.568 12.9828C88.5013 13.0495 88.4326 13.096 88.4326 13.1849C88.4103 13.2516 88.4103 13.296 88.3881 13.296C88.3659 13.296 88.3214 13.3405 88.2992 13.4314C88.2548 13.5203 88.2325 13.6092 88.2103 13.6557C88.1881 13.7224 88.1881 13.7668 88.1638 13.7668C88.1416 13.7668 88.1416 13.7668 88.1416 13.7668C88.1416 13.7891 88.1638 13.7891 88.1638 13.8113C88.1881 13.8558 88.1416 13.9002 88.0527 13.9911C87.9638 14.0578 87.8728 14.1912 87.8062 14.371C87.7395 14.5509 87.695 14.6398 87.6728 14.6398C87.6506 14.6398 87.6283 14.7287 87.5819 14.8863C87.5596 15.0419 87.493 15.1551 87.4263 15.2217C87.3596 15.2884 87.3374 15.3551 87.3374 15.4016C87.3374 15.4238 87.3374 15.4683 87.3374 15.4905C87.3131 15.4905 87.3131 15.4905 87.3131 15.4905C87.2909 15.4905 87.2464 15.5572 87.2242 15.6925C87.1798 15.8259 87.1353 15.8926 87.1131 15.8926H87.0908C87.0908 15.9371 87.0908 15.9835 87.0908 16.028C87.0908 16.1169 87.0686 16.1613 87.0464 16.1836C87.0221 16.2058 86.9999 16.228 86.9999 16.2967C86.9999 16.319 86.9999 16.3634 86.9999 16.3856C86.9777 16.3856 86.9777 16.3856 86.9555 16.3856C86.9332 16.3856 86.911 16.4746 86.8888 16.6544C86.8666 16.8342 86.8443 16.9454 86.7999 16.9454C86.7554 16.9676 86.7312 17.0565 86.7089 17.1919C86.6867 17.3253 86.6423 17.4606 86.5978 17.5718C86.5533 17.6849 86.5089 17.7738 86.5089 17.8628C86.5089 17.9517 86.4867 18.0426 86.4402 18.1093C86.3957 18.176 86.3735 18.2891 86.3957 18.4225C86.3957 18.4892 86.418 18.5579 86.418 18.6468C86.3957 18.6468 86.3957 18.6468 86.3957 18.6468C86.3735 18.6468 86.3735 18.6468 86.3513 18.6468C86.3513 18.7135 86.3513 18.7801 86.3513 18.8246C86.3513 18.9377 86.3291 19.0711 86.2624 19.2287C86.1957 19.3843 86.1735 19.5197 86.1735 19.6753C86.1735 19.8107 86.1492 19.8996 86.127 19.8996C86.1048 19.9218 86.1048 20.0127 86.1048 20.1906C86.1048 20.3704 86.1048 20.4815 86.0603 20.5482C86.0158 20.6169 86.0158 20.7058 86.0381 20.7948C86.0825 20.8857 86.0825 21.0413 86.0603 21.2211C86.0381 21.3989 86.0381 21.4899 86.0603 21.5121C86.0825 21.5121 86.0603 21.601 86.0158 21.7364C85.9492 21.8697 85.9269 22.0274 85.9492 22.1607C85.9714 22.3183 85.9492 22.4295 85.9269 22.4739C85.9047 22.5184 85.9047 22.5628 85.9492 22.6093C85.9936 22.6315 86.0158 22.7427 86.0381 22.9447C86.0603 23.1226 86.1048 23.2579 86.1492 23.3024C86.1957 23.3469 86.2401 23.4135 86.2401 23.5267C86.2401 23.6156 86.2624 23.6823 86.2846 23.7045C86.3291 23.7045 86.3513 23.7732 86.3735 23.8844C86.3957 23.9733 86.4402 24.0642 86.4644 24.1087C86.5089 24.1753 86.5311 24.2198 86.5089 24.2865C86.4867 24.3552 86.5311 24.4219 86.5978 24.5108C86.6867 24.6017 86.7312 24.7128 86.7554 24.824C86.7776 24.9371 86.8221 25.026 86.8888 25.1149C86.9555 25.2059 86.9999 25.2726 86.9999 25.3615C87.0221 25.4282 87.0464 25.5191 87.1131 25.608C87.1798 25.6969 87.2242 25.7434 87.2687 25.7434C87.3131 25.7434 87.3596 25.8323 87.4263 25.9879C87.493 26.1455 87.5596 26.2566 87.6061 26.2789C87.6506 26.3011 87.6728 26.3476 87.6728 26.392C87.6728 26.4365 87.7173 26.5032 87.7839 26.5698C87.8728 26.6385 87.9416 26.7274 87.986 26.8386C88.0527 26.974 88.0971 27.0407 88.1881 27.0851C88.277 27.1296 88.3659 27.2427 88.5013 27.3983C88.6124 27.5559 88.7236 27.6448 88.8367 27.7115C88.9256 27.758 89.0832 27.8914 89.2611 28.0934C89.4409 28.2935 89.5965 28.4289 89.6874 28.4511C89.7763 28.4733 89.843 28.5178 89.8652 28.5622C89.8875 28.6067 89.9339 28.6531 89.9562 28.6531C90.0006 28.6531 90.0451 28.6976 90.134 28.7865C90.2249 28.8754 90.3361 28.9441 90.4472 28.9886C90.5603 29.033 90.6493 29.0775 90.7159 29.1442C90.7846 29.2129 90.8513 29.2351 90.9402 29.2573C91.0291 29.2796 91.0978 29.324 91.1201 29.3685C91.1645 29.4351 91.2534 29.4796 91.3888 29.5261C91.5444 29.5705 91.6333 29.615 91.6576 29.6594C91.6798 29.7039 91.8354 29.7726 92.0819 29.8393C92.3284 29.9282 92.484 29.9726 92.5305 30.0171C92.575 30.0636 92.6194 30.0858 92.7083 30.0858C92.7993 30.0858 92.8437 30.108 92.9104 30.1525C92.9771 30.1969 93.0438 30.2192 93.1347 30.2192C93.2236 30.2192 93.2903 30.2414 93.3347 30.3081C93.3812 30.3768 93.4479 30.399 93.559 30.399C93.6722 30.4212 93.7611 30.4212 93.8278 30.4657C93.8945 30.4879 93.9389 30.5324 93.9389 30.5546V30.5768C94.0298 30.5768 94.1188 30.5768 94.1854 30.5768C94.3653 30.5768 94.4986 30.5991 94.5896 30.6455C94.6785 30.69 94.7896 30.7122 94.8805 30.7122C94.9917 30.7122 95.1048 30.7344 95.216 30.8011C95.3493 30.8678 95.4847 30.8678 95.6403 30.8678C95.7979 30.8678 95.9313 30.8678 96.0667 30.9123C96.2 30.9587 96.3799 30.981 96.6486 30.981C96.9174 30.981 97.0507 31.0032 97.073 31.0032C97.0952 31.0254 97.1417 31.0254 97.2528 31.0254C97.364 31.0254 97.4327 31.0254 97.4993 31.0476C97.566 31.0699 97.6549 31.0699 97.8125 31.0254C97.9459 31.0032 98.1035 30.981 98.2369 31.0032C98.3723 31.0254 98.4612 31.0032 98.5056 30.981C98.5521 30.9365 98.641 30.9365 98.7522 30.9587C98.8875 30.981 98.9542 30.981 98.9764 30.9587C98.9987 30.9365 99.1098 30.9123 99.2897 30.9123C99.4917 30.89 99.6029 30.8678 99.6473 30.8456C99.6918 30.8234 99.7382 30.8011 99.8272 30.8234C99.8938 30.8456 99.9827 30.8234 100.118 30.7567C100.251 30.69 100.32 30.6678 100.387 30.6678C100.454 30.6678 100.498 30.6455 100.565 30.5991C100.633 30.5324 100.722 30.5324 100.811 30.5324C100.902 30.5546 101.013 30.5101 101.124 30.4435C101.238 30.3768 101.349 30.3546 101.44 30.3546C101.529 30.3546 101.64 30.3081 101.731 30.2192C101.82 30.1303 101.975 30.0393 102.244 29.9282C102.49 29.8393 102.626 29.7484 102.626 29.7261C102.626 29.6817 102.648 29.6817 102.692 29.6817C102.737 29.6817 102.759 29.6594 102.759 29.6372C102.781 29.5928 102.895 29.5039 103.095 29.3685C103.319 29.2351 103.43 29.1219 103.454 29.0775C103.476 29.033 103.521 28.9886 103.588 28.9886C103.654 28.9664 103.699 28.9219 103.721 28.8754C103.745 28.831 103.79 28.7865 103.834 28.7643C103.879 28.7421 103.923 28.6976 103.945 28.6531C103.968 28.6067 104.012 28.54 104.058 28.5178C104.103 28.4955 104.147 28.4289 104.17 28.3622C104.192 28.2935 104.258 28.2268 104.349 28.1823C104.438 28.1157 104.483 28.0934 104.483 28.049C104.483 28.0247 104.527 27.958 104.594 27.8469C104.685 27.758 104.729 27.7115 104.752 27.7115C104.774 27.7115 104.774 27.7337 104.796 27.7337C104.796 27.6893 104.796 27.6671 104.796 27.6226C104.796 27.5559 104.84 27.465 104.931 27.3761C105.02 27.2872 105.087 27.1983 105.109 27.1073C105.131 27.0407 105.178 26.974 105.222 26.9295C105.289 26.9073 105.311 26.8164 105.356 26.7052C105.4 26.5921 105.445 26.5032 105.536 26.4365C105.602 26.3698 105.647 26.3011 105.647 26.2344C105.647 26.1677 105.669 26.101 105.736 26.0566C105.804 26.0101 105.827 25.9434 105.827 25.8767C105.849 25.7878 105.871 25.7434 105.938 25.6969C106.004 25.6524 106.004 25.608 106.004 25.5635C106.004 25.5191 106.004 25.4746 106.051 25.4524C106.095 25.4059 106.118 25.3615 106.14 25.2726C106.162 25.1837 106.206 25.115 106.295 25.026C106.386 24.9371 106.431 24.8462 106.431 24.7795C106.431 24.6906 106.475 24.6239 106.542 24.533C106.609 24.4441 106.677 24.2865 106.722 24.042C106.766 23.7954 106.833 23.6601 106.877 23.6156C106.924 23.5712 106.946 23.4822 106.968 23.3691C106.968 23.2357 106.99 23.169 107.035 23.1448C107.079 23.1226 107.079 23.0781 107.079 23.0114C107.079 22.9447 107.102 22.8538 107.146 22.7649C107.19 22.6538 107.215 22.5871 107.19 22.5184C107.19 22.4517 107.19 22.4295 107.237 22.385C107.281 22.3628 107.281 22.2961 107.281 22.2052C107.281 22.1163 107.304 22.0496 107.326 22.0274C107.37 21.9809 107.37 21.8253 107.37 21.5565C107.37 21.2878 107.393 21.108 107.437 21.0413C107.483 20.9746 107.506 20.7058 107.483 20.2572C107.483 19.7885 107.483 19.5642 107.506 19.5419C107.528 19.5197 107.55 19.4308 107.55 19.2287C107.55 19.0267 107.528 18.8933 107.506 18.8246C107.483 18.7579 107.459 18.6245 107.483 18.4003C107.506 18.176 107.506 18.0204 107.459 17.885C107.415 17.7516 107.415 17.6607 107.415 17.594C107.415 17.5273 107.37 17.2808 107.237 16.8787C107.102 16.4523 107.057 16.2058 107.057 16.1391C107.057 16.0502 107.035 15.9835 106.968 15.9148C106.9 15.8481 106.877 15.7815 106.877 15.6703C106.9 15.5794 106.855 15.4905 106.788 15.4238C106.699 15.3551 106.677 15.2662 106.677 15.1551C106.677 15.0419 106.609 14.9085 106.497 14.7287C106.386 14.5509 106.295 14.3933 106.229 14.2134C106.162 14.0578 106.118 13.9467 106.051 13.9002C105.982 13.8558 105.982 13.8113 105.982 13.7891C106.004 13.7668 105.96 13.7224 105.893 13.6779C105.827 13.6092 105.782 13.5648 105.76 13.4981C105.736 13.4314 105.691 13.3647 105.58 13.296C105.469 13.2293 105.422 13.1404 105.4 13.0495C105.378 12.9606 105.311 12.8717 105.222 12.805C105.131 12.7363 105.087 12.6696 105.043 12.5807C104.998 12.4676 104.954 12.4009 104.885 12.3342C104.818 12.2675 104.774 12.2453 104.752 12.2453C104.707 12.2453 104.618 12.1766 104.483 12.021C104.327 11.8634 104.258 11.7745 104.214 11.7745C104.17 11.7745 104.103 11.7078 104.012 11.5946C103.923 11.4613 103.79 11.3723 103.632 11.2814C103.476 11.2147 103.386 11.1481 103.363 11.0814C103.341 11.0127 103.274 10.9682 103.139 10.9238C103.006 10.8793 102.917 10.8349 102.848 10.7439C102.781 10.655 102.715 10.6328 102.604 10.5883C102.49 10.5661 102.379 10.4994 102.266 10.3863C102.155 10.2751 102.066 10.2307 101.997 10.2307C101.931 10.2307 101.775 10.162 101.529 10.0508C101.282 9.91746 101.08 9.84876 100.947 9.84876C100.811 9.82653 100.7 9.80431 100.633 9.73763C100.565 9.67094 100.454 9.64872 100.32 9.64872C100.163 9.64872 100.074 9.62649 100.007 9.58001C99.9383 9.53556 99.7827 9.4911 99.5139 9.46887C99.2452 9.44665 99.0876 9.40219 99.0209 9.37997C98.9542 9.35774 98.8653 9.33551 98.7522 9.33551C98.641 9.33551 98.5279 9.33551 98.439 9.28904C98.35 9.24458 98.1702 9.22235 97.9237 9.22235C97.5882 9.15567 97.4549 9.15567 97.4104 9.1779ZM96.4243 10.0286C96.5375 10.0731 96.6042 10.1175 96.6486 10.162C96.6709 10.2084 96.7153 10.2751 96.7153 10.3863C96.7153 10.4994 96.6931 10.5883 96.6486 10.6995C96.582 10.7904 96.5132 10.8571 96.4021 10.8793C96.291 10.8793 96.2 10.8793 96.1111 10.8571C96.0445 10.8349 95.9778 10.7904 95.9313 10.7682C95.8868 10.7217 95.8646 10.6328 95.8424 10.4994C95.8202 10.364 95.8646 10.2529 95.9091 10.1862C95.9535 10.1175 96.0445 10.0508 96.1334 10.0286C96.2223 9.96192 96.3132 9.98415 96.4243 10.0286ZM94.8805 10.1397C95.0139 10.1397 95.1271 10.2084 95.216 10.2751C95.3049 10.3418 95.3493 10.4772 95.3493 10.6328C95.3493 10.7904 95.3271 10.9015 95.3049 10.946C95.2604 10.9904 95.216 11.0127 95.1715 11.0349C95.1048 11.0349 95.0806 11.0591 95.0806 11.1036C95.0806 11.1481 95.0139 11.1703 94.9028 11.1925C94.7896 11.2147 94.6785 11.2147 94.5451 11.1925C94.3875 11.1703 94.2986 11.1925 94.2319 11.237C94.1632 11.2814 94.141 11.3036 94.0965 11.2814C94.0743 11.2814 94.0076 11.2814 93.9167 11.3036C93.8278 11.3259 93.7833 11.3501 93.7833 11.3723C93.7833 11.3946 93.7833 11.3946 93.7833 11.4168C93.7389 11.4168 93.7166 11.3946 93.6722 11.3946C93.6035 11.3723 93.5368 11.3946 93.4923 11.439C93.4257 11.4835 93.357 11.5057 93.2236 11.5279C93.0902 11.5279 92.9771 11.5946 92.8659 11.6633C92.7528 11.73 92.6639 11.7745 92.6194 11.7745C92.575 11.7745 92.5083 11.8189 92.4396 11.8634C92.3729 11.9321 92.3062 11.9765 92.2395 11.9988C92.1708 12.021 92.1041 12.0654 92.0597 12.1099C92.0375 12.1544 91.9708 12.1988 91.8576 12.2231C91.7687 12.2453 91.6798 12.312 91.6111 12.3786C91.5444 12.4453 91.4777 12.4918 91.411 12.514C91.3201 12.5363 91.2757 12.5807 91.2534 12.6474C91.2312 12.7141 91.1645 12.7828 91.0756 12.8272C90.9847 12.8717 90.918 12.9161 90.918 12.9384C90.918 12.9606 90.8735 12.9828 90.8069 13.0273C90.7159 13.0738 90.627 13.0738 90.4937 13.0273C90.425 13.0051 90.3583 12.9828 90.2916 12.9828C90.2916 12.9606 90.3138 12.9606 90.3138 12.9384C90.3138 12.9161 90.2916 12.8495 90.2471 12.7585C90.1784 12.6696 90.1562 12.5585 90.1784 12.4676C90.2027 12.3786 90.2249 12.2897 90.2694 12.2675C90.3361 12.2453 90.4027 12.1544 90.4694 12.0432C90.5381 11.9078 90.627 11.8189 90.6937 11.7745C90.7604 11.73 90.8291 11.6856 90.8958 11.6856C90.9625 11.6633 91.0069 11.6411 91.0756 11.5724C91.1201 11.5057 91.1868 11.4613 91.2534 11.439C91.3201 11.4168 91.3888 11.3723 91.3888 11.3501C91.411 11.3036 91.4555 11.2592 91.5222 11.237C91.5889 11.2147 91.6576 11.1925 91.702 11.1925C91.7465 11.1925 91.7687 11.1925 91.7909 11.1481C91.8354 11.1036 91.9021 11.0591 92.0375 10.9904C92.1708 10.9238 92.2395 10.9238 92.2618 10.9238C92.2618 10.9238 92.284 10.9238 92.284 10.946C92.284 10.9238 92.284 10.9238 92.284 10.9015C92.284 10.8793 92.3284 10.8571 92.4173 10.8349C92.5083 10.8126 92.575 10.7682 92.5972 10.7217C92.6194 10.6772 92.6861 10.655 92.7993 10.6328C92.8882 10.6328 92.9993 10.5883 93.1125 10.5439C93.2236 10.4994 93.4923 10.4085 93.9632 10.3196C94.4542 10.162 94.7452 10.1397 94.8805 10.1397ZM116.593 18.7357C116.459 18.7579 116.346 18.7801 116.235 18.7579C116.124 18.7357 116.033 18.7357 115.989 18.7801C115.922 18.8266 115.786 18.8266 115.518 18.8266C115.249 18.8266 115.116 18.8488 115.049 18.8711C114.982 18.9155 114.891 18.9155 114.758 18.9155C114.623 18.9155 114.556 18.9155 114.534 18.9377C114.511 18.96 114.445 18.96 114.354 18.96C114.265 18.96 114.176 18.9822 114.132 19.0267C114.085 19.0711 113.996 19.0933 113.885 19.0711C113.772 19.0489 113.616 19.0933 113.392 19.162C113.168 19.2287 113.034 19.251 112.943 19.251C112.877 19.251 112.721 19.2954 112.519 19.3843C112.317 19.4753 112.139 19.5197 111.959 19.5419C111.779 19.5642 111.691 19.5864 111.668 19.6308C111.624 19.6753 111.557 19.7218 111.422 19.744C111.288 19.7662 111.175 19.8107 111.131 19.8551C111.064 19.9218 110.975 19.944 110.84 19.9663C110.706 19.9905 110.638 20.0127 110.593 20.0572C110.571 20.1017 110.504 20.1017 110.393 20.1017C110.28 20.1017 110.213 20.1239 110.147 20.1906C110.08 20.2572 110.011 20.2815 109.9 20.2815C109.811 20.3037 109.654 20.3482 109.474 20.4371C109.296 20.526 109.183 20.5725 109.116 20.5725C109.094 20.5725 109.05 20.5725 109.027 20.5725C109.027 20.5947 109.027 20.5947 109.027 20.6169C109.027 20.6614 108.938 20.7058 108.736 20.7948C108.534 20.8857 108.423 21.019 108.379 21.1767C108.356 21.3322 108.31 21.4232 108.288 21.4454C108.265 21.4676 108.243 21.5565 108.243 21.7142C108.265 21.8697 108.243 22.0051 108.199 22.1385C108.154 22.2719 108.132 22.3628 108.154 22.4517C108.177 22.5406 108.332 22.6093 108.601 22.6315C108.87 22.676 109.116 22.7205 109.34 22.8094C109.565 22.9003 109.743 22.9003 109.878 22.8781C110.011 22.8538 110.125 22.8538 110.169 22.8781C110.236 22.9003 110.393 22.9225 110.638 22.9225C110.884 22.9225 111.042 22.9447 111.131 23.0114C111.22 23.0781 111.266 23.1913 111.288 23.3024C111.311 23.4378 111.288 23.5489 111.244 23.6156C111.175 23.7045 111.064 23.751 110.884 23.7955C110.706 23.8399 110.549 23.8621 110.438 23.8399C110.325 23.8177 110.258 23.8177 110.236 23.7955C110.236 23.7732 110.056 23.7732 109.765 23.7732C109.474 23.7732 109.274 23.751 109.207 23.7045C109.116 23.6601 109.005 23.6378 108.847 23.6601C108.692 23.6601 108.601 23.6601 108.601 23.6378C108.601 23.6156 108.534 23.6156 108.445 23.6156C108.401 23.6156 108.356 23.6156 108.31 23.6156C108.31 23.5934 108.31 23.5934 108.31 23.5934C108.31 23.5712 108.31 23.5712 108.31 23.5489C108.288 23.5489 108.243 23.5489 108.221 23.5489C108.154 23.5489 108.132 23.5267 108.11 23.5045C108.088 23.46 108.041 23.4378 107.997 23.4378C107.975 23.4378 107.93 23.4135 107.908 23.4135C107.908 23.4378 107.886 23.4822 107.886 23.5045C107.886 23.5712 107.841 23.6156 107.797 23.6601C107.75 23.6823 107.728 23.7732 107.706 23.8844C107.684 24.0197 107.661 24.0864 107.617 24.1309C107.572 24.1753 107.572 24.2198 107.572 24.3107C107.595 24.3996 107.55 24.4885 107.483 24.5552C107.415 24.6462 107.393 24.6906 107.393 24.7351C107.393 24.7573 107.393 24.7795 107.393 24.7795C107.37 24.7795 107.37 24.7795 107.348 24.7795C107.326 24.7795 107.326 24.7795 107.304 24.7795C107.304 24.8017 107.304 24.824 107.304 24.8462C107.304 24.8927 107.37 24.9371 107.506 25.0038C107.639 25.0705 107.706 25.0927 107.706 25.1149C107.706 25.1372 107.774 25.1837 107.886 25.2726C108.019 25.3392 108.11 25.3837 108.154 25.3837C108.199 25.3837 108.288 25.4282 108.379 25.4746C108.49 25.5413 108.601 25.5858 108.736 25.608C108.87 25.6302 108.938 25.6524 108.961 25.6969C108.961 25.7191 109.005 25.7656 109.05 25.7878C109.094 25.8101 109.183 25.8101 109.252 25.8101C109.318 25.8101 109.407 25.8545 109.452 25.9212C109.52 25.9879 109.587 26.0101 109.676 26.0101C109.72 26.0101 109.789 26.0101 109.834 26.0101C109.834 26.0344 109.834 26.0344 109.834 26.0344C109.834 26.0566 109.878 26.0788 109.922 26.0788C109.989 26.101 110.034 26.101 110.056 26.1455C110.08 26.1677 110.147 26.2122 110.236 26.2344C110.325 26.2566 110.415 26.2789 110.438 26.3253C110.482 26.3476 110.504 26.3698 110.571 26.3698C110.638 26.3698 110.684 26.392 110.751 26.4365C110.818 26.4809 110.907 26.5032 110.997 26.5032C111.086 26.5032 111.175 26.5476 111.244 26.6163C111.311 26.7052 111.355 26.7497 111.355 26.7941C111.355 26.8386 111.377 26.8608 111.4 26.8608C111.422 26.8608 111.466 26.9295 111.488 27.0184C111.513 27.1073 111.513 27.174 111.488 27.2427C111.466 27.3094 111.422 27.3539 111.355 27.3761C111.288 27.3983 111.244 27.4428 111.244 27.465C111.22 27.5115 111.175 27.5115 111.064 27.5115C110.953 27.5115 110.818 27.465 110.684 27.4205C110.549 27.3539 110.415 27.3094 110.302 27.3094C110.169 27.2872 110.102 27.2649 110.056 27.2205C110.011 27.174 109.878 27.1073 109.631 27.0184C109.363 26.9295 109.229 26.8608 109.207 26.8386C109.183 26.7941 109.005 26.7497 108.692 26.6608C108.379 26.5698 108.177 26.4809 108.11 26.4365C108.041 26.3698 107.93 26.3011 107.75 26.2566C107.572 26.2122 107.393 26.1233 107.168 25.9879C107.057 25.9212 106.946 25.8545 106.833 25.8101C106.811 25.8545 106.811 25.899 106.788 25.9212C106.766 26.0101 106.722 26.101 106.609 26.2122C106.497 26.3253 106.453 26.4365 106.431 26.5476C106.386 26.6608 106.408 26.7274 106.453 26.7497C106.497 26.7719 106.542 26.8164 106.564 26.9073C106.586 26.9962 106.633 27.0407 106.677 27.0407C106.722 27.0407 106.788 27.1073 106.855 27.174C106.924 27.2649 106.99 27.3316 107.013 27.4205C107.035 27.5115 107.079 27.5781 107.146 27.6004C107.215 27.6448 107.259 27.6893 107.259 27.7802C107.259 27.8691 107.281 27.9136 107.326 27.9136C107.37 27.9136 107.393 27.958 107.393 28.0025C107.393 28.049 107.437 28.0712 107.459 28.0712C107.506 28.0712 107.528 28.1379 107.572 28.249C107.617 28.3622 107.639 28.4511 107.661 28.4733C107.706 28.4955 107.75 28.6067 107.841 28.831C107.93 29.033 107.975 29.2573 107.952 29.4574C107.952 29.6594 107.886 29.8171 107.774 29.8837C107.661 29.9726 107.572 30.0171 107.483 30.0171C107.393 30.0171 107.326 29.9949 107.259 29.9282C107.168 29.8615 107.102 29.7706 107.057 29.6372C106.99 29.5039 106.968 29.3907 106.968 29.324C106.968 29.2351 106.924 29.1219 106.855 28.9886C106.788 28.831 106.744 28.7643 106.699 28.7421C106.655 28.7198 106.655 28.6754 106.655 28.6531C106.655 28.6067 106.586 28.4955 106.475 28.3157C106.364 28.1379 106.251 28.0247 106.184 28.0025C106.118 27.958 106.051 27.8914 105.96 27.758C105.915 27.6893 105.893 27.6226 105.849 27.5559C105.804 27.6004 105.782 27.6448 105.736 27.6671C105.647 27.7337 105.624 27.8024 105.624 27.8247C105.647 27.8469 105.624 27.8914 105.58 28.0025C105.536 28.0934 105.491 28.1379 105.445 28.1823C105.4 28.2046 105.378 28.2268 105.378 28.2712C105.378 28.2935 105.356 28.3399 105.333 28.3399C105.289 28.3622 105.267 28.4066 105.245 28.4733C105.2 28.5622 105.154 28.6309 105.087 28.6976C105.02 28.7643 104.954 28.8087 104.909 28.8087C104.863 28.8087 104.818 28.8754 104.774 28.9886C104.729 29.0997 104.663 29.1886 104.594 29.2796C104.527 29.3462 104.505 29.4574 104.527 29.615C104.549 29.6817 104.572 29.7484 104.572 29.8393C104.549 29.8393 104.527 29.8393 104.527 29.8393C104.505 29.8393 104.483 29.8393 104.483 29.8393C104.483 29.8615 104.483 29.8837 104.483 29.906C104.483 29.9504 104.505 30.0171 104.549 30.108C104.594 30.1969 104.618 30.3768 104.64 30.6213C104.663 30.8678 104.663 31.0032 104.685 31.0254C104.707 31.0476 104.752 31.2032 104.796 31.472C104.84 31.763 104.887 31.8983 104.909 31.9206C104.931 31.9428 104.976 32.0095 104.976 32.1004C104.998 32.1893 105.02 32.2782 105.043 32.3005C105.087 32.3227 105.087 32.3914 105.087 32.5025C105.087 32.6137 105.109 32.6824 105.154 32.7268C105.2 32.7713 105.245 32.9046 105.289 33.1289C105.333 33.3532 105.378 33.4866 105.422 33.5088C105.469 33.5331 105.558 33.7553 105.691 34.1595C105.827 34.5616 105.915 34.7859 105.96 34.7859C106.004 34.8081 106.073 34.9415 106.162 35.1658C106.251 35.4123 106.342 35.5699 106.431 35.681C106.52 35.7922 106.633 35.9943 106.811 36.3297C106.968 36.6429 107.079 36.845 107.168 36.9116C107.237 36.9803 107.304 37.0693 107.326 37.1359C107.348 37.2026 107.393 37.2471 107.459 37.2935C107.528 37.338 107.572 37.3825 107.572 37.4491C107.572 37.5158 107.639 37.6068 107.75 37.6957C107.841 37.7846 107.908 37.8755 107.93 37.9422C107.93 38.0089 107.975 38.0311 107.997 38.0311C108.041 38.0311 108.088 38.0755 108.132 38.1443C108.199 38.2332 108.243 38.2776 108.31 38.2776C108.379 38.2776 108.49 38.3888 108.647 38.5686C108.825 38.7707 108.938 38.8596 108.983 38.8596C109.027 38.8596 109.094 38.8818 109.161 38.9485C109.229 39.0172 109.318 39.0616 109.429 39.0839C109.543 39.1061 109.609 39.1283 109.609 39.1728C109.609 39.195 109.654 39.2395 109.72 39.2617C109.789 39.2859 109.922 39.3082 110.102 39.2859C110.28 39.2617 110.438 39.1728 110.549 38.995C110.662 38.8151 110.729 38.6575 110.729 38.4797C110.729 38.2998 110.751 38.1887 110.773 38.1443C110.795 38.0978 110.818 38.0311 110.818 37.9644C110.818 37.8977 110.795 37.8533 110.773 37.8068C110.751 37.7623 110.729 37.6734 110.729 37.4936C110.729 37.3158 110.706 37.1804 110.662 37.1137C110.616 37.047 110.593 36.9116 110.571 36.7561C110.549 36.5762 110.527 36.3984 110.46 36.2185C110.393 36.0387 110.371 35.8609 110.415 35.7255C110.46 35.5921 110.482 35.5234 110.504 35.5234C110.527 35.5234 110.593 35.479 110.684 35.4123C110.773 35.3234 110.862 35.2789 110.953 35.2789C111.042 35.2789 111.153 35.3012 111.266 35.3456C111.377 35.4123 111.444 35.4345 111.466 35.479C111.488 35.5012 111.513 35.5234 111.535 35.5234C111.557 35.5234 111.579 35.5234 111.579 35.5234C111.579 35.5477 111.579 35.5699 111.579 35.5699C111.579 35.5921 111.602 35.6366 111.668 35.6366C111.735 35.6366 111.804 35.7033 111.893 35.7922C111.982 35.8831 112.07 35.9498 112.184 35.972C112.295 35.9943 112.361 36.0609 112.43 36.1296C112.497 36.1963 112.677 36.263 112.943 36.3297C113.212 36.3984 113.414 36.3984 113.527 36.2852C113.661 36.1963 113.727 36.0165 113.772 35.7255C113.818 35.4345 113.818 35.2325 113.75 35.0991C113.683 34.9657 113.661 34.8303 113.638 34.7192C113.638 34.5838 113.55 34.3595 113.37 34.0241C113.19 33.6887 113.123 33.4421 113.123 33.3088C113.145 33.1734 113.19 33.04 113.281 32.9269C113.37 32.7935 113.527 32.7268 113.727 32.7046C113.929 32.6824 114.063 32.6824 114.132 32.7268C114.198 32.7713 114.332 32.7935 114.534 32.8157C114.736 32.838 114.869 32.8602 114.914 32.9046C114.958 32.9511 115.004 32.9511 115.093 32.9511C115.182 32.9511 115.227 32.9733 115.249 32.9733C115.273 32.9956 115.407 33.0178 115.653 33.04C115.9 33.0623 116.077 33.1067 116.213 33.1512C116.346 33.2178 116.548 33.2421 116.817 33.2421C117.108 33.2421 117.264 33.2643 117.332 33.2866C117.399 33.3088 117.601 33.331 117.892 33.331C118.205 33.331 118.405 33.3088 118.452 33.2866C118.518 33.2643 118.674 33.2178 118.92 33.2178C119.167 33.1956 119.369 33.1956 119.502 33.1512C119.638 33.1289 119.749 33.0845 119.793 33.04C119.838 32.9956 119.929 32.9733 120.018 32.9733C120.129 32.9733 120.198 32.9511 120.22 32.9046C120.264 32.8602 120.331 32.838 120.42 32.8157C120.511 32.7935 120.644 32.7491 120.78 32.6601C120.913 32.5914 121.002 32.5025 121.07 32.4136C121.137 32.3227 121.159 32.2782 121.182 32.3005C121.204 32.3227 121.248 32.2782 121.317 32.2116C121.384 32.1449 121.428 32.0782 121.428 32.0317C121.428 31.965 121.495 31.9206 121.562 31.8761C121.63 31.8317 121.741 31.6963 121.852 31.4498C121.988 31.2032 122.055 30.9123 122.099 30.5768C122.121 30.2192 122.121 29.9949 122.099 29.906C122.055 29.7948 122.032 29.6372 122.032 29.3907C122.032 29.1442 121.966 28.9441 121.852 28.7643C121.764 28.5844 121.697 28.4511 121.697 28.3622C121.697 28.2712 121.652 28.1379 121.562 27.9803C121.473 27.8024 121.384 27.6893 121.317 27.6226C121.226 27.5559 121.182 27.4892 121.159 27.4205C121.137 27.3539 121.093 27.2872 121.026 27.2427C120.957 27.1983 120.913 27.1296 120.891 27.0629C120.868 26.974 120.711 26.8164 120.444 26.5698C120.175 26.3253 119.995 26.1899 119.929 26.1899C119.86 26.1677 119.749 26.1233 119.638 25.9879C119.525 25.8545 119.414 25.7878 119.302 25.7878C119.189 25.7878 119.034 25.6969 118.832 25.5635C118.63 25.4282 118.294 25.2726 117.823 25.0705C117.354 24.8684 117.086 24.7128 117.041 24.533C116.997 24.3552 116.973 24.1976 117.019 24.0642C117.063 23.9288 117.13 23.8177 117.241 23.7732C117.354 23.7288 117.399 23.6823 117.421 23.6601C117.421 23.6378 117.51 23.5934 117.645 23.5934C117.779 23.5934 117.959 23.5267 118.205 23.4135C118.429 23.3246 118.652 23.2357 118.832 23.2135C119.011 23.1913 119.123 23.1448 119.123 23.1226C119.145 23.0781 119.189 23.0781 119.234 23.0781C119.278 23.1003 119.347 23.0781 119.414 23.0559C119.48 23.0337 119.525 22.9892 119.525 22.967C119.525 22.9447 119.569 22.9225 119.66 22.9225C119.749 22.9225 119.838 22.8781 119.951 22.8316C120.04 22.7649 120.129 22.7427 120.198 22.7427C120.264 22.7427 120.375 22.6982 120.489 22.6093C120.622 22.5184 120.735 22.4517 120.824 22.4295C120.913 22.4072 120.98 22.3628 121.002 22.3183C121.026 22.2719 121.137 22.2052 121.339 22.094C121.539 21.9809 121.675 21.892 121.719 21.8031C121.764 21.7364 121.808 21.6677 121.875 21.6455C121.943 21.6232 121.988 21.5565 122.055 21.4676C122.121 21.3767 122.121 21.1989 122.077 20.9524C122.032 20.7058 121.988 20.526 121.921 20.4371C121.852 20.3482 121.83 20.3037 121.786 20.3037C121.741 20.3037 121.697 20.2815 121.63 20.2128C121.562 20.1461 121.517 20.0794 121.517 20.035C121.517 19.9905 121.473 19.9663 121.406 19.944C121.339 19.9218 121.293 19.8774 121.226 19.8107C121.159 19.7218 121.093 19.6753 121.002 19.6531C120.935 19.6308 120.868 19.5864 120.824 19.5419C120.78 19.4753 120.689 19.453 120.533 19.4308C120.375 19.4086 120.22 19.3399 120.04 19.251C119.86 19.162 119.616 19.0711 119.302 19.0267C118.965 18.9822 118.809 18.96 118.787 18.9377C118.765 18.9155 118.72 18.9155 118.63 18.9155C118.541 18.9378 118.429 18.9155 118.316 18.8711C118.205 18.8266 118.025 18.8024 117.801 18.8266C117.579 18.8266 117.421 18.8266 117.31 18.7801C117.197 18.7579 117.13 18.7357 117.108 18.7579C117.086 18.7801 117.019 18.7801 116.928 18.7801C116.817 18.7801 116.75 18.7579 116.682 18.7357C116.817 18.7135 116.728 18.7135 116.593 18.7357ZM102.626 27.8469C102.759 27.8691 102.826 27.8914 102.872 27.9358C102.917 27.9803 102.939 28.0934 102.961 28.249C102.983 28.4066 102.961 28.54 102.917 28.6067C102.848 28.6976 102.826 28.7421 102.781 28.7421C102.759 28.7421 102.737 28.7421 102.737 28.7421C102.737 28.7643 102.737 28.7643 102.737 28.7643C102.737 28.7865 102.715 28.8087 102.648 28.831C102.581 28.8532 102.557 28.8754 102.557 28.9219C102.557 28.9664 102.535 28.9886 102.468 29.0108C102.401 29.033 102.379 29.0553 102.379 29.0997C102.379 29.1219 102.379 29.1219 102.379 29.1442L102.357 29.1219C102.335 29.1219 102.288 29.1442 102.222 29.2129C102.155 29.2796 102.088 29.324 102.022 29.324C101.953 29.324 101.864 29.3685 101.775 29.4574C101.684 29.5483 101.595 29.5928 101.506 29.615C101.415 29.6372 101.326 29.6817 101.238 29.7484C101.149 29.8171 101.036 29.8837 100.88 29.906C100.722 29.9282 100.656 29.9504 100.633 29.9949C100.611 30.0393 100.542 30.0858 100.387 30.1303C100.229 30.1747 100.007 30.2414 99.6918 30.2859C99.3786 30.3303 99.1563 30.3546 99.0431 30.3303C98.932 30.3303 98.8653 30.3081 98.8653 30.2859C98.8653 30.2636 98.8431 30.2414 98.7744 30.2192C98.7077 30.1969 98.641 30.1303 98.5966 30.0393C98.5521 29.9504 98.5279 29.8615 98.5279 29.7948C98.5279 29.7261 98.5743 29.6372 98.6632 29.5483C98.7522 29.4574 98.8653 29.4129 98.9764 29.3907C99.0876 29.3685 99.223 29.3462 99.3341 29.3018C99.4473 29.2573 99.5584 29.2129 99.6918 29.2129C99.8272 29.2129 99.9383 29.1886 100.029 29.1219C100.118 29.0553 100.251 29.033 100.409 29.0108C100.567 28.9886 100.656 28.9441 100.7 28.8754C100.745 28.8087 100.833 28.7643 100.947 28.7198C101.08 28.6976 101.149 28.6531 101.171 28.6067C101.193 28.5622 101.238 28.54 101.326 28.5178C101.393 28.4955 101.484 28.4511 101.573 28.3399C101.662 28.249 101.82 28.1379 102.022 28.0247C102.335 27.8691 102.513 27.8247 102.626 27.8469ZM98.0368 29.5261C98.1257 29.5928 98.1924 29.6817 98.2147 29.8393C98.2369 29.9726 98.1924 30.108 98.148 30.1969C98.1035 30.2859 97.9924 30.3303 97.857 30.3546C97.7236 30.3768 97.6105 30.3303 97.5216 30.2636C97.4327 30.1747 97.3862 30.0858 97.3417 29.9726C97.2973 29.8615 97.3417 29.7484 97.4327 29.6594C97.5216 29.5705 97.6105 29.5039 97.7236 29.4796C97.8125 29.4351 97.9237 29.4574 98.0368 29.5261Z" fill="#DF2F4F"/>
</svg>
