<svg width="358" height="185" viewBox="0 0 358 185" fill="none" xmlns="http://www.w3.org/2000/svg">
<path d="M0.5 121.427C0.5 117.396 1.60933 113.962 3.83967 111.123C6.06418 108.29 9.10608 105.971 12.9712 104.16C16.848 102.356 21.3554 101.041 26.4934 100.212C31.6314 99.3709 37.1313 98.9503 43.0049 98.9503C45.8075 98.9503 48.5282 98.9854 51.179 99.0438C53.8414 99.0905 56.2702 99.1723 58.4655 99.2774C60.6608 99.3709 62.5525 99.4877 64.1406 99.6279C65.7287 99.7681 66.8848 99.9258 67.6204 100.095C68.3035 100.27 68.8465 100.463 69.2552 100.679C69.6756 100.884 69.9851 101.123 70.1894 101.404C70.4054 101.672 70.5456 101.988 70.6098 102.361C70.6857 102.724 70.7266 103.144 70.7266 103.623C70.7266 104.032 70.6682 104.488 70.5631 105.002C70.4521 105.504 70.2945 105.971 70.096 106.403C69.8916 106.824 69.6347 107.192 69.3253 107.502C69.01 107.817 68.6305 107.969 68.1809 107.969C67.9007 107.969 67.5971 107.852 67.2701 107.618C66.9431 107.373 66.4761 107.058 65.8688 106.684C65.2733 106.298 64.4676 105.901 63.44 105.492C62.4241 105.072 61.0637 104.675 59.353 104.301C57.6364 103.915 55.5112 103.6 52.9772 103.366C50.4375 103.121 47.378 102.992 43.799 102.992V136.193H65.285V140.772H43.799V161.005C43.799 162.641 44.0384 164.037 44.523 165.187C45.0017 166.344 45.6907 167.302 46.5781 168.061C47.4773 168.826 48.5633 169.381 49.8244 169.72C51.0855 170.065 52.4926 170.234 54.0515 170.234C55.809 170.234 57.5664 170.059 59.3296 169.697C61.087 169.34 62.751 168.891 64.3275 168.341C65.898 167.781 67.3285 167.162 68.6247 166.472C69.915 165.771 70.9601 165.094 71.7541 164.44L73.7626 166.659C72.9043 167.349 71.7541 168.289 70.3062 169.486C68.8582 170.672 67.0833 171.84 64.9814 172.991C62.8912 174.13 60.4623 175.117 57.6948 175.958C54.9215 176.799 51.7687 177.22 48.2363 177.22C47.0686 177.22 45.7257 177.156 44.2194 177.033C42.7247 176.922 41.1833 176.688 39.5952 176.332C38.0071 175.958 36.4424 175.421 34.901 174.72C33.3713 174.007 32.0109 173.061 30.814 171.893C29.6287 170.725 28.6654 169.288 27.918 167.57C27.1707 165.859 26.797 163.809 26.797 161.426V140.772H18.7164V136.193H26.797V103.623C25.6877 103.717 24.4207 103.915 22.9902 104.207C21.554 104.505 20.0826 104.926 18.5763 105.469C17.0816 106 15.6103 106.631 14.1623 107.361C12.7143 108.08 11.4182 108.921 10.2855 109.885C9.14695 110.854 8.21861 111.935 7.50631 113.132C6.80568 114.318 6.45536 115.603 6.45536 116.987C6.45536 118.097 6.60133 118.973 6.89909 119.627C7.19102 120.282 7.52966 120.772 7.90333 121.099C8.277 121.427 8.65651 121.637 9.0477 121.73C9.45056 121.812 9.74833 121.847 9.93516 121.847C10.7876 121.847 11.4882 121.707 12.0371 121.427C12.5976 121.134 13.0997 120.819 13.5551 120.492C14.0047 120.153 14.425 119.838 14.8162 119.557C15.2191 119.265 15.6803 119.113 16.1941 119.113C16.597 119.113 17.0349 119.207 17.502 119.394C17.9691 119.581 18.3953 119.884 18.7865 120.305C19.1893 120.714 19.5338 121.257 19.8141 121.941C20.0943 122.612 20.2344 123.43 20.2344 124.394C20.2344 125.784 19.96 126.981 19.417 127.992C18.8857 129.008 18.1909 129.849 17.3385 130.515C16.4977 131.169 15.5285 131.66 14.4426 131.987C13.3683 132.314 12.294 132.478 11.2197 132.478C9.56733 132.478 8.07265 132.197 6.73561 131.637C5.41025 131.064 4.28341 130.276 3.34923 129.277C2.41506 128.266 1.70275 127.098 1.22399 125.772C0.739382 124.435 0.5 122.986 0.5 121.427Z" fill="#DF2F4F"/>
<path d="M105.071 150.608C105.071 146.251 104.867 142.77 104.464 140.164C104.073 137.565 103.553 135.579 102.899 134.207C102.245 132.84 101.521 131.94 100.727 131.52C99.9331 131.088 99.1157 130.866 98.2749 130.866C97.2765 130.866 96.389 131.14 95.6125 131.683C94.8301 132.215 94.1529 132.822 93.5807 133.506C93.0202 134.195 92.5356 134.884 92.1327 135.585C91.7415 136.274 91.4087 136.788 91.1285 137.127V171.729C91.1285 172.185 91.0584 172.728 90.9183 173.365C90.7898 174.007 90.457 174.615 89.9141 175.187C89.3827 175.748 88.5887 176.227 87.5319 176.612C86.4868 177.015 85.0447 177.22 83.2114 177.22C81.3897 177.22 79.9476 176.998 78.8908 176.566C77.8282 176.145 77.0283 175.649 76.4853 175.07C75.9365 174.48 75.5978 173.873 75.4577 173.248C75.3176 172.629 75.2475 172.121 75.2475 171.729V131.753C75.2475 130.743 75.014 129.873 74.5469 129.137C74.0798 128.389 73.2916 128.015 72.1881 128.015C71.5926 128.015 71.0904 128.126 70.6701 128.342C70.2614 128.547 69.8176 128.833 69.3389 129.207L68.2412 127.922C69.0353 127.256 69.9227 126.602 70.9036 125.959C71.8962 125.322 72.9646 124.762 74.1032 124.277C75.2358 123.798 76.4619 123.401 77.7698 123.085C79.0893 122.776 80.4789 122.618 81.9269 122.618C84.1689 122.618 85.9088 122.992 87.1582 123.74C88.4019 124.487 89.3127 125.387 89.8907 126.426C90.4804 127.454 90.8307 128.529 90.9416 129.651C91.0643 130.772 91.1285 131.718 91.1285 132.478C92.4188 130.644 93.8726 128.996 95.4957 127.548C96.1497 126.929 96.8795 126.327 97.6911 125.749C98.4968 125.159 99.3609 124.627 100.283 124.16C101.2 123.693 102.163 123.319 103.179 123.039C104.189 122.758 105.235 122.618 106.309 122.618C108.656 122.618 110.734 123.074 112.544 123.973C114.366 124.879 115.89 126.38 117.122 128.482C118.365 130.585 119.317 133.377 119.971 136.847C120.637 140.322 120.975 144.627 120.975 149.767C120.975 154.784 120.52 159.136 119.621 162.828C118.716 166.519 117.542 169.667 116.094 172.267C114.646 174.854 113 176.963 111.167 178.598C109.345 180.245 107.5 181.53 105.632 182.453C103.775 183.388 101.994 184.03 100.283 184.393C98.5668 184.766 97.0897 184.965 95.8461 185L95.2856 182.874C96.3131 182.64 97.259 182.255 98.1348 181.729C99.0222 181.215 99.828 180.456 100.564 179.463C101.293 178.464 101.93 177.196 102.479 175.654C103.039 174.112 103.512 172.191 103.903 169.883C104.306 167.565 104.604 164.825 104.791 161.659C104.978 158.499 105.071 154.814 105.071 150.608Z" fill="#DF2F4F"/>
<path d="M158.94 140.562C157.866 140.562 156.961 140.398 156.231 140.071C155.513 139.744 154.929 139.312 154.48 138.763C154.042 138.202 153.715 137.589 153.499 136.917C153.295 136.233 153.195 135.533 153.195 134.814C153.195 133.88 153.254 132.986 153.382 132.127C153.505 131.257 153.522 130.48 153.429 129.791C153.335 129.09 153.061 128.541 152.611 128.132C152.174 127.711 151.385 127.501 150.253 127.501C149.038 127.501 147.754 127.852 146.399 128.553C145.056 129.242 143.836 130.322 142.733 131.8C141.623 133.284 140.707 135.188 139.977 137.524C139.259 139.861 138.902 142.664 138.902 145.935C138.902 149.568 139.235 152.874 139.907 155.865C140.59 158.856 141.6 161.402 142.943 163.505C144.28 165.608 145.955 167.243 147.964 168.412C149.972 169.568 152.32 170.14 155.017 170.14C156.214 170.14 157.358 170 158.45 169.72C159.536 169.44 160.564 169.06 161.533 168.575C162.496 168.096 163.413 167.535 164.289 166.893C165.176 166.256 166.029 165.579 166.858 164.86L168.165 166.099C167.371 167.162 166.35 168.336 165.106 169.626C163.857 170.906 162.356 172.103 160.599 173.225C158.835 174.346 156.78 175.281 154.433 176.028C152.08 176.758 149.412 177.126 146.423 177.126C143.416 177.126 140.491 176.548 137.641 175.397C134.792 174.229 132.258 172.547 130.051 170.351C127.838 168.143 126.063 165.456 124.726 162.29C123.401 159.13 122.741 155.526 122.741 151.473C122.741 148.342 123.138 145.456 123.932 142.805C124.726 140.159 125.801 137.77 127.155 135.632C128.521 133.5 130.11 131.625 131.919 130.001C133.741 128.366 135.644 127.005 137.641 125.912C139.65 124.826 141.693 124.008 143.783 123.459C145.885 122.898 147.9 122.618 149.832 122.618C152.384 122.618 154.608 122.916 156.512 123.506C158.409 124.102 159.991 124.879 161.253 125.842C162.514 126.812 163.454 127.922 164.078 129.183C164.697 130.445 165.013 131.748 165.013 133.085C165.013 134.101 164.878 135.065 164.616 135.982C164.347 136.888 163.967 137.682 163.471 138.365C162.969 139.037 162.339 139.574 161.58 139.978C160.815 140.369 159.933 140.562 158.94 140.562Z" fill="#DF2F4F"/>
<path d="M192.832 149.557C192.832 148.704 192.551 148.05 191.991 147.594C191.442 147.144 190.741 146.917 189.889 146.917C188.675 146.917 187.518 147.197 186.433 147.758C185.341 148.307 184.383 149.113 183.56 150.188C182.731 151.262 182.077 152.588 181.598 154.159C181.114 155.737 180.874 157.559 180.874 159.627C180.874 161.624 181.014 163.283 181.295 164.603C181.586 165.912 181.984 166.957 182.486 167.734C182.999 168.499 183.583 169.037 184.237 169.346C184.891 169.662 185.58 169.813 186.316 169.813C187.203 169.813 188.044 169.591 188.838 169.136C189.632 168.669 190.321 168.073 190.917 167.337C191.506 166.607 191.973 165.795 192.318 164.907C192.656 164.007 192.832 163.102 192.832 162.197V149.557ZM184.588 126.87C183.42 126.87 182.328 127.01 181.318 127.291C180.32 127.571 179.455 127.922 178.726 128.342C178.007 128.751 177.441 129.201 177.021 129.697C176.612 130.2 176.413 130.673 176.413 131.123C176.413 131.637 176.676 132.01 177.208 132.244C177.751 132.466 178.352 132.723 179.006 133.015C179.66 133.313 180.249 133.733 180.781 134.277C181.324 134.808 181.598 135.626 181.598 136.73C181.598 137.448 181.446 138.108 181.154 138.716C180.857 139.323 180.46 139.861 179.963 140.328C179.461 140.795 178.872 141.163 178.188 141.426C177.517 141.677 176.822 141.8 176.11 141.8C174.177 141.8 172.613 141.146 171.416 139.837C170.23 138.517 169.641 136.771 169.641 134.604C169.641 132.489 170.19 130.679 171.299 129.183C172.402 127.676 173.845 126.438 175.619 125.468C177.394 124.505 179.403 123.786 181.645 123.319C183.887 122.852 186.129 122.618 188.371 122.618C191.063 122.618 193.631 122.916 196.078 123.506C198.536 124.102 200.708 125.036 202.594 126.31C204.474 127.589 205.98 129.218 207.101 131.193C208.222 133.155 208.783 135.533 208.783 138.319V167.594C208.783 167.909 208.794 168.26 208.829 168.645C208.859 169.019 208.946 169.364 209.086 169.673C209.226 169.989 209.437 170.246 209.717 170.444C209.997 170.649 210.394 170.748 210.908 170.748C211.527 170.748 212.105 170.514 212.636 170.047C213.162 169.58 213.64 169.107 214.061 168.622L215.345 169.72C214.831 170.456 214.207 171.25 213.477 172.103C212.759 172.962 211.877 173.774 210.838 174.533C209.81 175.298 208.602 175.935 207.218 176.449C205.846 176.963 204.281 177.22 202.524 177.22C200.34 177.22 198.402 176.571 196.708 175.281C195.027 173.99 193.918 171.998 193.392 169.299C192.283 170.795 191.133 172.045 189.936 173.038C188.75 174.036 187.536 174.848 186.292 175.467C185.06 176.092 183.817 176.531 182.556 176.799C181.295 177.08 180.022 177.22 178.749 177.22C177.079 177.22 175.468 176.963 173.915 176.449C172.373 175.935 170.984 175.117 169.758 173.996C168.526 172.874 167.539 171.42 166.792 169.626C166.056 167.822 165.694 165.625 165.694 163.038C165.694 159.895 166.313 157.325 167.562 155.328C168.806 153.318 170.435 151.636 172.443 150.281C174.463 148.914 176.764 147.746 179.333 146.776C181.913 145.813 184.547 144.791 187.227 143.716C189.235 142.921 190.695 141.742 191.617 140.164C192.534 138.593 192.995 136.981 192.995 135.328C192.995 132.776 192.236 130.725 190.73 129.183C189.235 127.641 187.186 126.87 184.588 126.87Z" fill="#DF2F4F"/>
<path d="M247.173 150.608C247.173 146.251 246.968 142.77 246.565 140.164C246.174 137.565 245.655 135.579 245.001 134.207C244.347 132.84 243.623 131.94 242.829 131.52C242.035 131.088 241.217 130.866 240.376 130.866C239.378 130.866 238.491 131.14 237.714 131.683C236.932 132.215 236.254 132.822 235.682 133.506C235.122 134.195 234.637 134.884 234.234 135.585C233.843 136.274 233.51 136.788 233.23 137.127V171.729C233.23 172.185 233.16 172.728 233.02 173.365C232.891 174.007 232.559 174.615 232.016 175.187C231.484 175.748 230.69 176.227 229.633 176.612C228.588 177.015 227.146 177.22 225.313 177.22C223.491 177.22 222.049 176.998 220.992 176.566C219.93 176.145 219.13 175.649 218.587 175.07C218.038 174.48 217.699 173.873 217.559 173.248C217.419 172.629 217.349 172.121 217.349 171.729V131.753C217.349 130.743 217.116 129.873 216.648 129.137C216.181 128.389 215.393 128.015 214.29 128.015C213.694 128.015 213.192 128.126 212.772 128.342C212.363 128.547 211.919 128.833 211.44 129.207L210.343 127.922C211.137 127.256 212.024 126.602 213.005 125.959C213.998 125.322 215.066 124.762 216.205 124.277C217.337 123.798 218.564 123.401 219.871 123.085C221.191 122.776 222.58 122.618 224.028 122.618C226.27 122.618 228.01 122.992 229.26 123.74C230.503 124.487 231.414 125.387 231.992 126.426C232.582 127.454 232.932 128.529 233.043 129.651C233.166 130.772 233.23 131.718 233.23 132.478C234.52 130.644 235.974 128.996 237.597 127.548C238.251 126.929 238.981 126.327 239.793 125.749C240.598 125.159 241.462 124.627 242.385 124.16C243.302 123.693 244.265 123.319 245.281 123.039C246.291 122.758 247.336 122.618 248.41 122.618C250.757 122.618 252.836 123.074 254.646 123.973C256.468 124.879 257.991 126.38 259.223 128.482C260.467 130.585 261.419 133.377 262.073 136.847C262.738 140.322 263.077 144.627 263.077 149.767C263.077 154.784 262.621 159.136 261.722 162.828C260.817 166.519 259.644 169.667 258.196 172.267C256.748 174.854 255.101 176.963 253.268 178.598C251.446 180.245 249.601 181.53 247.733 182.453C245.876 183.388 244.096 184.03 242.385 184.393C240.668 184.766 239.191 184.965 237.948 185L237.387 182.874C238.415 182.64 239.361 182.255 240.236 181.729C241.124 181.215 241.93 180.456 242.665 179.463C243.395 178.464 244.031 177.196 244.58 175.654C245.141 174.112 245.614 172.191 246.005 169.883C246.408 167.565 246.706 164.825 246.892 161.659C247.079 158.499 247.173 154.814 247.173 150.608Z" fill="#DF2F4F"/>
<path d="M284.951 127.081V165.374C284.951 167.197 285.289 168.47 285.978 169.183C286.661 169.883 287.613 170.234 288.828 170.234C289.762 170.234 290.585 169.977 291.303 169.463C292.033 168.949 292.658 168.359 293.171 167.687C293.79 166.975 294.328 166.134 294.783 165.164L296.394 165.888C295.863 166.998 295.238 168.201 294.526 169.51C293.825 170.818 292.891 172.033 291.724 173.154C290.556 174.276 289.073 175.222 287.286 175.982C285.511 176.741 283.275 177.126 280.583 177.126C279.071 177.126 277.617 176.899 276.216 176.449C274.815 175.999 273.565 175.292 272.48 174.323C271.388 173.359 270.518 172.15 269.864 170.701C269.21 169.253 268.883 167.512 268.883 165.468V127.081H263.091V123.342C264.054 123.342 265.403 123.097 267.131 122.595C268.86 122.098 270.623 121.263 272.433 120.095C274.237 118.915 275.918 117.338 277.477 115.375C279.03 113.413 280.14 110.977 280.794 108.062H284.951V123.342H293.382C296.137 123.342 297.515 122.887 297.515 121.964C297.515 121.608 297.34 121.374 297.002 121.263C296.657 121.14 296.266 120.983 295.834 120.796C295.413 120.609 295.022 120.346 294.666 120.001C294.322 119.645 294.152 119.067 294.152 118.272C294.152 117.309 294.456 116.555 295.063 116.006C295.67 115.445 296.453 115.165 297.422 115.165C298.041 115.165 298.59 115.299 299.057 115.562C299.524 115.813 299.909 116.158 300.224 116.59C300.534 117.028 300.767 117.525 300.925 118.085C301.077 118.634 301.159 119.178 301.159 119.721C301.159 121.964 300.505 123.757 299.197 125.095C297.901 126.421 295.822 127.081 292.961 127.081H284.951Z" fill="#DF2F4F"/>
<path d="M294.95 149.884C294.95 145.351 295.604 141.391 296.912 137.992C298.231 134.58 299.983 131.742 302.166 129.464C304.362 127.192 306.907 125.486 309.803 124.347C312.711 123.196 315.759 122.618 318.935 122.618C322.111 122.618 325.147 123.15 328.043 124.207C330.939 125.27 333.485 126.888 335.68 129.067C337.875 131.234 339.627 133.985 340.935 137.314C342.243 140.649 342.896 144.598 342.896 149.16C342.896 153.681 342.243 157.682 340.935 161.169C339.627 164.662 337.875 167.594 335.68 169.977C333.485 172.36 330.939 174.171 328.043 175.397C325.147 176.612 322.111 177.22 318.935 177.22C315.759 177.22 312.711 176.642 309.803 175.491C306.907 174.34 304.362 172.629 302.166 170.351C299.983 168.061 298.231 165.211 296.912 161.8C295.604 158.377 294.95 154.405 294.95 149.884ZM326.805 149.37C326.805 146.601 326.7 143.926 326.502 141.356C326.315 138.786 325.947 136.508 325.404 134.51C324.855 132.501 324.061 130.906 323.022 129.721C321.994 128.523 320.628 127.922 318.935 127.922C317.236 127.922 315.864 128.553 314.825 129.814C313.797 131.064 313.003 132.711 312.442 134.767C311.894 136.823 311.537 139.171 311.368 141.8C311.193 144.417 311.111 147.115 311.111 149.884C311.111 152.641 311.193 155.345 311.368 157.991C311.537 160.625 311.894 162.979 312.442 165.047C313.003 167.121 313.797 168.785 314.825 170.047C315.864 171.309 317.236 171.94 318.935 171.94C320.628 171.94 321.994 171.285 323.022 169.977C324.061 168.669 324.855 166.951 325.404 164.813C325.947 162.664 326.315 160.246 326.502 157.547C326.7 154.855 326.805 152.127 326.805 149.37Z" fill="#DF2F4F"/>
<path d="M23.4573 18.9302C23.4573 17.9197 23.0837 17.1721 22.3363 16.6873C21.6007 16.2083 20.8008 15.963 19.9308 15.963C18.1676 15.963 16.4569 16.22 14.7929 16.734C13.123 17.248 11.6284 17.9606 10.3088 18.8601C8.98347 19.748 7.91501 20.8169 7.10928 22.061C6.31524 23.311 5.91821 24.6544 5.91821 26.103C5.91821 27.1018 6.04666 27.902 6.31524 28.5095C6.59549 29.1053 6.90493 29.5492 7.24941 29.8412C7.58805 30.1391 7.93836 30.3319 8.30036 30.4253C8.65651 30.5071 8.91341 30.5421 9.07105 30.5421C9.8651 30.5421 10.5073 30.4136 11.0095 30.145C11.5233 29.8646 11.9787 29.5784 12.3874 29.2805C12.7902 28.9884 13.1697 28.7081 13.5317 28.4394C13.8879 28.1765 14.3083 28.0422 14.7929 28.0422C15.1665 28.0422 15.5636 28.1298 15.9839 28.2992C16.416 28.4744 16.813 28.7431 17.175 29.1169C17.5312 29.4908 17.8348 29.9931 18.0858 30.6122C18.3311 31.2197 18.4595 31.9615 18.4595 32.8318C18.4595 34.0935 18.2143 35.1857 17.7355 36.1028C17.2509 37.0081 16.6203 37.7733 15.8438 38.3925C15.079 38.9999 14.1973 39.4555 13.2048 39.7476C12.2239 40.0455 11.243 40.1915 10.2621 40.1915C8.74993 40.1915 7.38954 39.9345 6.17511 39.4205C4.97236 38.9065 3.94477 38.1997 3.09233 37.2944C2.25158 36.3773 1.60349 35.3026 1.15392 34.0701C0.716027 32.8435 0.5 31.5351 0.5 30.145C0.5 26.2198 1.48672 22.9956 3.466 20.4722C5.43945 17.9372 8.13687 15.9338 11.5466 14.4677C14.968 13.0074 18.9499 12.0028 23.4807 11.4537C28.0231 10.9105 32.8575 10.636 37.9837 10.636C43.834 10.636 49.1238 11.2318 53.8414 12.4117C58.5706 13.5799 62.6226 15.4899 65.9856 18.1358C69.3486 20.7701 71.941 24.2222 73.7626 28.4861C75.5959 32.7384 76.5184 37.9369 76.5184 44.0699C76.5184 50.2088 75.5434 55.6526 73.5991 60.4014C71.6666 65.1384 69.0275 69.1162 65.682 72.3404C62.3307 75.5646 58.4013 78.0179 53.8881 79.7001C49.3865 81.3823 44.558 82.2234 39.4084 82.2234C35.9811 82.2234 33.2195 82.0598 31.1176 81.7327C29.0273 81.4057 27.4159 80.8449 26.2832 80.0505C25.1622 79.2445 24.4032 78.1697 24.0178 76.8263C23.6442 75.4887 23.4573 73.8007 23.4573 71.7563V18.9302ZM39.0347 72.1769C39.0347 73.9701 39.4317 75.2551 40.2258 76.0319C41.0315 76.7971 42.2167 77.1768 43.7756 77.1768C46.1403 77.1768 48.318 76.6628 50.3148 75.6347C52.3058 74.595 54.0282 72.8077 55.4762 70.2844C56.9241 67.7494 58.051 64.3733 58.8625 60.1677C59.6858 55.9505 60.1003 50.6469 60.1003 44.2568C60.1003 39.9929 59.8317 36.2897 59.3063 33.1589C58.7925 30.0281 58.1035 27.3763 57.2511 25.1918C56.4103 22.9956 55.4411 21.2141 54.3551 19.8414C53.2808 18.4746 52.1715 17.4057 51.0388 16.6405C49.9178 15.8637 48.8085 15.3438 47.7225 15.0752C46.6307 14.8123 45.6673 14.678 44.8266 14.678C42.7831 14.678 41.3059 15.1394 40.3892 16.0564C39.4843 16.9618 39.0347 18.5973 39.0347 20.9629V72.1769Z" fill="#DF2F4F"/>
<path d="M78.1128 56.9902C78.1128 52.8781 78.7083 49.2742 79.9111 46.1727C81.108 43.0769 82.7019 40.4894 84.6987 38.4158C86.6897 36.3306 89.0018 34.771 91.635 33.743C94.2798 32.7033 97.0532 32.1776 99.9491 32.1776C102.845 32.1776 105.607 32.6624 108.24 33.6262C110.885 34.5783 113.203 36.0502 115.2 38.042C117.19 40.0221 118.784 42.5279 119.987 45.5652C121.184 48.5908 121.785 52.1772 121.785 56.336C121.785 60.4481 121.184 64.0929 119.987 67.2704C118.784 70.4479 117.19 73.1289 115.2 75.3076C113.203 77.4746 110.885 79.116 108.24 80.2374C105.607 81.3414 102.845 81.8963 99.9491 81.8963C97.0532 81.8963 94.2798 81.3706 91.635 80.3309C89.0018 79.2737 86.6897 77.7083 84.6987 75.6347C82.7019 73.567 81.108 70.9736 79.9111 67.8545C78.7083 64.7412 78.1128 61.1198 78.1128 56.9902ZM107.119 56.5229C107.119 54.0171 107.031 51.5931 106.862 49.2567C106.687 46.9086 106.348 44.8176 105.834 42.9952C105.332 41.1611 104.608 39.7008 103.662 38.6261C102.728 37.5397 101.491 36.9906 99.9491 36.9906C98.4077 36.9906 97.1583 37.5689 96.2124 38.7195C95.2782 39.8761 94.5543 41.383 94.0405 43.2522C93.5383 45.1213 93.2114 47.2591 93.0596 49.6539C92.9019 52.037 92.826 54.4844 92.826 56.9902C92.826 59.5135 92.9019 61.9843 93.0596 64.3966C93.2114 66.7973 93.5383 68.9409 94.0405 70.8217C94.5543 72.7084 95.2782 74.227 96.2124 75.3777C97.1583 76.5167 98.4077 77.0833 99.9491 77.0833C101.491 77.0833 102.728 76.4934 103.662 75.3076C104.608 74.1102 105.332 72.539 105.834 70.5881C106.348 68.643 106.687 66.4468 106.862 63.9994C107.031 61.5404 107.119 59.0463 107.119 56.5229Z" fill="#DF2F4F"/>
<path d="M155.4 48.5091C154.43 48.5091 153.613 48.363 152.947 48.0652C152.293 47.7556 151.762 47.3526 151.359 46.8502C150.951 46.3537 150.647 45.7988 150.448 45.1914C150.262 44.5722 150.168 43.9297 150.168 43.2755C150.168 42.4227 150.221 41.605 150.332 40.8223C150.437 40.0279 150.454 39.3212 150.378 38.6962C150.297 38.0595 150.057 37.5513 149.654 37.1775C149.246 36.8037 148.522 36.6168 147.482 36.6168C146.391 36.6168 145.229 36.938 144.003 37.5747C142.771 38.1997 141.65 39.1868 140.64 40.5419C139.641 41.8854 138.806 43.6201 138.141 45.7521C137.487 47.8724 137.16 50.4249 137.16 53.4155C137.16 56.7215 137.463 59.7355 138.071 62.4574C138.689 65.1676 139.612 67.4807 140.826 69.3965C142.053 71.3124 143.582 72.8018 145.404 73.8591C147.237 74.9221 149.38 75.4478 151.826 75.4478C152.93 75.4478 153.975 75.3251 154.956 75.074C155.948 74.8111 156.883 74.4607 157.758 74.0226C158.646 73.5904 159.487 73.0822 160.281 72.5039C161.086 71.914 161.869 71.289 162.616 70.6348L163.807 71.7563C163.071 72.7376 162.137 73.8123 161.005 74.9805C159.884 76.137 158.517 77.2235 156.918 78.2515C155.312 79.2678 153.444 80.1148 151.313 80.7982C149.176 81.464 146.741 81.8028 144.003 81.8028C141.258 81.8028 138.59 81.2771 135.992 80.2374C133.406 79.1802 131.111 77.644 129.103 75.6347C127.094 73.6254 125.483 71.1839 124.268 68.2984C123.054 65.4188 122.447 62.142 122.447 58.4622C122.447 55.6001 122.803 52.9658 123.521 50.5651C124.251 48.1528 125.237 45.9741 126.487 44.0232C127.73 42.0781 129.178 40.3667 130.831 38.8831C132.477 37.4053 134.217 36.1729 136.039 35.1916C137.86 34.1986 139.717 33.451 141.62 32.9486C143.518 32.4346 145.345 32.1776 147.109 32.1776C149.444 32.1776 151.476 32.4521 153.204 32.9954C154.932 33.5269 156.363 34.2336 157.501 35.1215C158.652 35.9976 159.51 37.0081 160.07 38.1588C160.643 39.2978 160.935 40.4835 160.935 41.7101C160.935 42.633 160.806 43.5092 160.561 44.3503C160.327 45.1797 159.983 45.8923 159.533 46.4998C159.078 47.1072 158.506 47.5979 157.805 47.9717C157.116 48.3338 156.316 48.5091 155.4 48.5091Z" fill="#DF2F4F"/>
<path d="M177.199 59.4902C177.199 60.5065 177.345 61.6046 177.643 62.7845C177.953 63.9527 178.39 65.1384 178.951 66.3358C179.511 67.5391 180.2 68.6839 181.029 69.7703C181.87 70.8451 182.834 71.8147 183.925 72.6675C185.011 73.5086 186.214 74.1861 187.522 74.7002C188.842 75.2025 190.289 75.4478 191.866 75.4478C192.969 75.4478 193.991 75.3251 194.925 75.074C195.871 74.8111 196.753 74.4607 197.564 74.0226C198.388 73.5904 199.176 73.0822 199.923 72.5039C200.682 71.914 201.441 71.289 202.189 70.6348L203.38 71.7563C202.644 72.7376 201.71 73.8123 200.577 74.9805C199.456 76.137 198.09 77.2235 196.49 78.2515C194.884 79.2678 193.016 80.1148 190.885 80.7982C188.748 81.464 186.313 81.8028 183.575 81.8028C180.831 81.8028 178.163 81.3122 175.565 80.3309C172.978 79.3379 170.684 77.8485 168.675 75.8684C166.667 73.8941 165.055 71.4234 163.841 68.462C162.626 65.5064 162.019 62.0485 162.019 58.0883C162.019 55.2262 162.375 52.5978 163.093 50.2146C163.823 47.8198 164.81 45.6587 166.059 43.7428C167.303 41.827 168.751 40.1447 170.403 38.6962C172.05 37.2476 173.79 36.0502 175.611 35.0981C177.433 34.1344 179.29 33.4101 181.193 32.9253C183.091 32.4288 184.918 32.1776 186.681 32.1776C189.017 32.1776 191.049 32.4346 192.777 32.9486C194.505 33.451 195.935 34.1285 197.074 34.9813C198.224 35.8224 199.082 36.8037 199.643 37.9252C200.215 39.035 200.507 40.2032 200.507 41.4298C200.507 42.9134 200.075 44.2451 199.223 45.425C198.382 46.5932 197.249 47.6212 195.836 48.5091L177.199 59.4902ZM186.681 49.9109C187.084 49.6656 187.417 49.4203 187.685 49.1866C187.966 48.953 188.182 48.6726 188.339 48.3455C188.491 48.0184 188.608 47.6154 188.69 47.1306C188.766 46.6341 188.806 46.0266 188.806 45.3082C188.806 44.5138 188.719 43.6435 188.55 42.6914C188.374 41.7277 188.083 40.8223 187.662 39.9812C187.253 39.1284 186.74 38.4158 186.121 37.8551C185.496 37.2827 184.743 36.9906 183.855 36.9906C182.717 36.9906 181.742 37.3352 180.936 38.0186C180.142 38.6903 179.488 39.5606 178.974 40.6354C178.461 41.6985 178.046 42.9134 177.737 44.2802C177.439 45.6528 177.211 47.0313 177.059 48.4156C176.902 49.8058 176.808 51.1375 176.779 52.4109C176.744 53.6725 176.732 54.7473 176.732 55.6351L186.681 49.9109Z" fill="#DF2F4F"/>
<path d="M234.417 0C234.615 0.0642515 234.808 0.128503 234.936 0.327097C235.065 0.519849 235.328 0.648352 235.649 0.712603C236.034 0.776855 236.361 1.03386 236.811 1.36096C237.202 1.68221 237.651 1.93921 238.043 2.13781C238.428 2.33056 238.691 2.45907 238.755 2.58757C238.819 2.71607 239.204 3.04317 239.852 3.62143C240.565 4.14128 240.886 4.53262 240.95 4.72538C241.014 4.91813 241.213 5.04663 241.662 5.23939C242.054 5.43798 242.246 5.63073 242.311 5.75924C242.375 5.88774 242.503 6.15058 242.83 6.47184C243.151 6.79309 243.344 6.99169 243.344 7.12019C243.344 7.24869 243.472 7.31294 243.671 7.44145C243.928 7.56995 244.249 7.9613 244.64 8.4753C245.025 9.05941 245.352 9.44491 245.609 9.57926C245.866 9.70776 245.995 9.90051 245.995 10.029C245.995 10.1575 246.059 10.2218 246.193 10.2218C246.322 10.2218 246.514 10.5489 246.9 11.2615C247.291 11.9741 247.484 12.2953 247.612 12.3596C247.74 12.4238 247.875 12.5523 247.939 12.7451C248.003 12.9437 248.132 13.1364 248.26 13.2007C248.388 13.2649 248.517 13.4577 248.581 13.7205C248.715 14.0418 248.78 14.1703 248.908 14.2345C248.972 14.2988 249.101 14.4974 249.293 14.8829C249.492 15.2684 249.62 15.5312 249.813 15.6597C250.006 15.7882 250.07 15.981 250.134 16.2438C250.198 16.5009 250.333 16.7579 250.59 16.9564C250.847 17.1492 250.975 17.342 250.975 17.5347C250.975 17.7275 251.039 17.7976 251.173 17.7976C251.238 17.7976 251.238 17.7976 251.302 17.7976C251.302 17.8618 251.302 17.9261 251.302 17.9903C251.302 18.0546 251.302 18.1188 251.302 18.1831C251.366 18.1831 251.366 18.1831 251.43 18.1831C251.495 18.1831 251.495 18.1831 251.495 18.1831L251.43 18.2473C251.366 18.3116 251.43 18.4401 251.559 18.5686C251.687 18.7029 251.752 18.8957 251.816 19.2169C251.816 19.4798 251.944 19.7368 252.078 19.9938C252.207 20.2508 252.335 20.3851 252.464 20.4494C252.592 20.5136 252.656 20.6421 252.656 20.8349C252.656 21.0276 252.721 21.162 252.791 21.2262C252.855 21.2905 252.983 21.419 252.983 21.676C253.048 21.8687 253.24 22.3886 253.696 23.0369C254.145 23.7495 254.472 24.3921 254.601 24.9762C254.729 25.6245 254.858 26.0743 255.115 26.3371C255.313 26.6584 255.506 27.0497 255.634 27.628C255.763 28.2121 255.891 28.5333 256.084 28.7319C256.282 28.9247 256.346 29.2459 256.346 29.6373C256.411 30.0228 256.411 30.2856 256.539 30.3499C256.603 30.4141 256.668 30.5426 256.603 30.6069C256.539 30.6711 256.668 30.9281 256.796 31.2552C256.995 31.5765 257.059 31.8335 257.059 32.1606C257.059 32.3534 257.123 32.4819 257.123 32.6746C257.444 32.4819 257.765 32.2248 258.028 31.9678C258.612 31.5122 258.933 31.2552 258.933 31.191C258.933 31.1267 259.061 31.0566 259.318 30.9281C259.581 30.7996 259.774 30.6711 259.966 30.4141C260.159 30.1513 260.293 30.087 260.422 30.087C260.55 30.087 260.679 29.9585 260.871 29.7658C261.064 29.573 261.263 29.3744 261.584 29.3102C261.841 29.2459 262.039 29.1174 262.103 28.9889C262.168 28.8604 262.296 28.7962 262.617 28.7962C262.88 28.7962 263.201 28.5976 263.522 28.2763C263.849 27.9551 264.17 27.7565 264.427 27.6922C264.69 27.6922 264.947 27.5637 265.139 27.371C265.402 27.1782 265.531 27.0497 265.659 27.0497C265.723 27.0497 265.787 27.0497 265.787 27.0497C265.787 27.0497 265.787 26.9855 265.787 26.9154V26.8511C265.852 26.8511 265.98 26.8511 266.044 26.9154C266.243 26.9855 266.371 26.9154 266.564 26.7869C266.757 26.6584 266.955 26.5941 267.212 26.5941C267.405 26.5941 267.597 26.5299 267.726 26.4014C267.796 26.2729 267.989 26.2086 268.31 26.1444C268.567 26.0743 268.894 25.9458 269.279 25.753C269.67 25.5603 270.055 25.3675 270.511 25.3033C270.96 25.2332 271.352 25.1047 271.544 24.9762C271.737 24.7834 272 24.7834 272.257 24.8477C272.514 24.9119 272.969 24.8477 273.483 24.7192C274.002 24.5907 274.324 24.4621 274.388 24.3921C274.522 24.2636 274.779 24.2636 275.228 24.3278C275.684 24.3921 276.268 24.3278 276.91 24.135C277.622 23.9423 278.078 23.878 278.399 23.878C278.726 23.9423 278.983 23.878 279.111 23.8138C279.24 23.7495 279.438 23.7495 279.695 23.8138C279.952 23.878 280.145 23.878 280.209 23.8138C280.279 23.7495 280.536 23.7495 280.921 23.7495C281.377 23.8138 281.569 23.7495 281.633 23.6853C281.698 23.621 282.025 23.621 282.603 23.7495C283.186 23.878 283.642 23.878 283.835 23.878C284.091 23.878 284.483 23.878 285.061 24.0065C285.645 24.135 286.164 24.1993 286.55 24.135C286.941 24.0708 287.262 24.135 287.454 24.1993C287.711 24.3278 287.91 24.3278 288.167 24.3278C288.424 24.3278 288.686 24.3921 288.943 24.5264C289.2 24.7192 289.656 24.7834 290.169 24.9119C290.753 25.0404 291.08 25.1047 291.08 25.1689C291.08 25.2332 291.209 25.2332 291.401 25.2332C291.594 25.2332 291.787 25.2332 291.921 25.3675C292.114 25.496 292.371 25.6245 292.826 25.6888C293.276 25.8173 293.603 25.9458 293.795 26.0743C293.988 26.2729 294.116 26.2729 294.309 26.2729C294.443 26.2729 294.7 26.3371 295.15 26.4656C295.605 26.6584 295.862 26.7226 295.862 26.8511C295.862 26.9855 296.125 27.0497 296.639 27.2425C297.158 27.4352 297.479 27.5637 297.672 27.7565C297.871 27.9551 298.063 28.0836 298.32 28.0836C298.583 28.1478 298.776 28.2121 298.904 28.4048C299.032 28.5976 299.225 28.6677 299.354 28.6677C299.488 28.6677 299.552 28.7319 299.616 28.8604C299.616 28.9889 299.745 29.0532 299.809 29.0532C299.937 29.0532 300.002 29.1174 300.13 29.3102C300.264 29.5088 300.778 29.83 301.747 30.4141C302.717 30.9924 303.3 31.3837 303.493 31.6407C303.692 31.8978 303.82 32.0321 303.82 32.1606C303.82 32.2891 304.013 32.4819 304.334 32.8089C304.661 33.1302 304.853 33.323 304.982 33.323C305.11 33.323 305.175 33.3872 305.175 33.5157C305.245 33.6501 305.437 33.8428 305.823 34.0998C306.214 34.3568 306.471 34.6197 306.535 34.9409C306.599 35.1979 306.728 35.3965 306.856 35.4608C306.99 35.525 307.183 35.7178 307.376 36.039C307.568 36.3661 307.831 36.6231 308.088 36.7516C308.345 36.8801 308.538 37.2072 308.608 37.5927C308.736 37.9841 308.865 38.2411 309.121 38.4338C309.384 38.6324 309.513 38.8252 309.513 39.0179C309.513 39.2107 309.577 39.4035 309.77 39.6663C309.962 39.9233 310.026 40.0518 310.091 40.0518C310.155 40.0518 310.289 40.3146 310.546 40.7644C310.803 41.2843 310.867 41.5413 310.867 41.6698C310.803 41.734 310.867 41.8625 311.066 42.0611C311.258 42.2539 311.323 42.4466 311.387 42.7036C311.451 43.0307 311.58 43.2877 311.772 43.4805C311.971 43.6791 312.099 43.9361 312.099 44.1288C312.099 44.3216 312.163 44.5202 312.228 44.5844C312.292 44.6487 312.42 44.7772 312.42 45.0342C312.42 45.2269 312.485 45.4255 312.613 45.554C312.747 45.6183 312.747 45.7468 312.747 45.8753C312.747 46.0038 312.747 46.1381 312.876 46.1381C313.004 46.2024 313.004 46.3951 313.004 46.6521C312.94 46.9091 313.004 47.1077 313.068 47.172C313.133 47.172 313.197 47.4932 313.261 48.0131C313.325 48.5972 313.454 48.9185 313.518 49.047C313.652 49.1755 313.716 49.3682 313.652 49.5668C313.652 49.7596 313.652 50.0166 313.781 50.3437C313.909 50.6649 313.973 50.9862 313.909 51.3775C313.845 51.763 313.845 51.9616 313.973 52.0901C314.038 52.1544 314.102 52.3471 314.102 52.5399C314.102 52.7326 314.038 52.867 313.973 52.9312C313.909 52.9955 313.909 53.1882 313.973 53.5095C314.038 53.8366 314.166 54.0936 314.294 54.2863C314.493 54.4849 314.493 55.0632 314.429 56.0328C314.359 56.5527 314.294 57.0083 314.294 57.5223C314.621 57.3295 315.007 57.1368 315.334 56.944C315.976 56.5527 316.624 56.2956 317.272 56.1671C317.856 56.0328 318.177 55.9043 318.241 55.84C318.241 55.7115 318.37 55.7115 318.568 55.7115C318.761 55.7115 318.889 55.6473 319.082 55.5188C319.211 55.3903 319.473 55.326 319.859 55.2618C320.25 55.2618 320.699 55.0632 321.219 54.7419C321.733 54.4849 322.509 54.2221 323.613 53.9651C324.711 53.7723 325.359 53.5095 325.616 53.3167C325.872 53.124 326.264 52.9955 326.713 52.9955C327.169 52.9955 327.425 52.9955 327.425 52.9312C327.425 52.867 327.618 52.867 327.817 52.867C328.009 52.867 328.202 52.8027 328.202 52.7326C328.266 52.6684 328.529 52.6041 329.107 52.6041C329.627 52.6041 330.21 52.5399 330.788 52.3471C331.372 52.1544 331.956 52.0901 332.406 52.0901C332.925 52.1544 333.311 52.0901 333.574 52.0259C333.83 51.8915 334.087 51.8915 334.414 51.8915C334.735 51.9616 334.928 51.8915 335.057 51.8273C335.191 51.763 335.512 51.6345 336.16 51.6345C336.802 51.6345 337.579 51.6345 338.618 51.763C339.587 51.8273 340.492 51.8915 341.269 51.8273C342.045 51.763 342.431 51.8273 342.559 51.8915C342.623 51.9616 342.886 52.0259 343.336 52.0259C343.791 52.0259 344.241 52.0901 344.696 52.2829C345.146 52.4756 345.473 52.4756 345.601 52.4114C345.794 52.3471 345.922 52.3471 346.121 52.3471C346.313 52.3471 346.442 52.4114 346.57 52.5399C346.699 52.6041 346.827 52.6684 347.026 52.6041C347.218 52.5399 347.347 52.6041 347.411 52.7326C347.475 52.8027 347.674 52.9312 348.059 52.9955C348.38 53.0597 348.707 53.1882 348.836 53.2525C348.964 53.3167 349.157 53.4452 349.419 53.5095C349.612 53.5737 349.741 53.5737 349.741 53.6438C349.741 53.7081 349.997 53.7723 350.389 53.8366C350.838 53.9008 351.101 53.9651 351.165 54.0936C351.229 54.2221 351.294 54.2221 351.422 54.2221C351.551 54.1578 351.679 54.2863 351.942 54.4849C352.199 54.6777 352.327 54.8062 352.456 54.8062C352.584 54.8062 352.648 54.8704 352.648 54.9347C352.718 54.9989 352.847 55.1274 353.039 55.1917C353.232 55.2618 353.495 55.3903 353.687 55.6473C353.88 55.84 354.137 56.0328 354.464 56.2314C354.785 56.4241 354.978 56.6169 355.106 56.944C355.241 57.2653 355.369 57.3938 355.497 57.458C355.626 57.5223 355.69 57.5865 355.69 57.715C355.69 57.8494 355.754 57.9136 356.017 58.0421C356.21 58.1706 356.402 58.3634 356.531 58.6262C356.724 58.8832 356.858 59.3972 357.05 60.1741C357.243 60.9509 357.243 61.5993 357.179 62.0549C357.115 62.5689 357.05 62.8317 356.922 62.896C356.788 62.9602 356.788 63.0887 356.788 63.2172C356.788 63.2815 356.788 63.41 356.788 63.4742H356.724C356.659 63.4742 356.531 63.6728 356.338 64.1226C356.145 64.5782 355.947 64.8352 355.69 64.9637C355.433 65.0922 355.369 65.2207 355.369 65.2908C355.369 65.4193 355.176 65.6121 354.785 65.9333C354.4 66.2604 354.201 66.4532 354.201 66.5817C354.201 66.7102 354.009 66.7744 353.687 66.9029C353.36 67.0373 353.039 67.23 352.847 67.4228C352.584 67.6798 352.327 67.7499 352.199 67.6798C352.006 67.6155 351.486 67.8784 350.646 68.3924C349.805 68.9122 349.355 69.105 349.157 69.105C348.964 69.105 348.9 69.105 348.707 69.2335C348.514 69.362 348.059 69.4963 347.283 69.6891C346.506 69.8818 346.056 69.9461 345.986 70.0746C345.858 70.1388 345.794 70.2031 345.665 70.1388C345.537 70.0746 345.216 70.2031 344.696 70.4017C344.439 70.5302 344.176 70.6587 343.919 70.7229C344.048 70.7229 344.176 70.7229 344.305 70.7229C344.568 70.7229 344.76 70.7872 344.824 70.8514C344.889 70.9799 345.216 71.1143 345.729 71.307C346.313 71.4998 346.763 71.7568 347.154 72.0196C347.539 72.2766 347.866 72.4694 348.123 72.5337C348.38 72.5979 348.707 72.7965 349.028 73.1178C349.355 73.439 349.676 73.6376 349.933 73.6376C350.196 73.7019 350.389 73.8304 350.581 74.0231C350.774 74.2159 350.902 74.4145 351.101 74.543C351.294 74.6072 351.422 74.8 351.486 74.9927C351.551 75.1855 351.615 75.3198 351.743 75.3198C351.877 75.3198 352.006 75.3841 352.134 75.5768C352.263 75.7696 352.391 75.8338 352.391 75.9623C352.391 76.0967 352.584 76.2252 352.911 76.4822C353.232 76.7392 353.425 76.9378 353.559 77.1948C353.687 77.4518 353.88 77.6445 354.073 77.7088C354.265 77.8431 354.4 78.0359 354.464 78.3571C354.528 78.6842 354.721 79.0697 355.106 79.4611C355.433 79.8466 355.626 80.1036 355.626 80.2379C355.626 80.3022 355.69 80.5592 355.883 80.9447C356.081 81.3361 356.21 81.6573 356.21 81.7858C356.21 81.9844 356.338 82.2414 356.531 82.4984C356.788 82.8255 356.858 83.0183 356.858 83.0825C356.858 83.1468 356.858 83.2753 356.922 83.2753C356.986 83.2753 357.05 83.5323 357.115 83.9236C357.179 84.3734 357.243 84.6362 357.372 84.7647C357.5 84.8932 357.5 84.9575 357.436 85.0217C357.436 85.086 357.372 85.086 357.307 85.086C357.307 85.086 357.372 85.1502 357.436 85.1502C357.5 85.1502 357.5 85.4131 357.5 85.9271C357.5 86.4469 357.5 86.6397 357.436 86.7039C357.372 86.7682 357.372 87.2238 357.372 88.1292C357.372 89.0345 357.372 89.5544 357.243 89.7471C357.179 89.9399 357.115 90.0684 357.179 90.267C357.179 90.4597 357.179 90.6525 356.986 90.8452C356.788 91.038 356.659 91.3651 356.531 91.8791C356.402 92.3989 356.274 92.726 356.081 92.8545C355.883 92.983 355.819 93.24 355.754 93.5671C355.69 93.8884 355.497 94.1454 355.241 94.2739C354.978 94.4725 354.657 94.7937 354.265 95.3136C353.88 95.8276 353.559 96.2189 353.296 96.4117C353.039 96.6045 352.847 96.6687 352.718 96.6687C352.584 96.6687 352.456 96.733 352.263 96.9315C352.07 97.1243 351.877 97.2528 351.615 97.3171C351.294 97.3813 351.101 97.5098 350.902 97.6383C350.71 97.7727 350.581 97.9012 350.389 97.9012C350.196 97.9012 349.869 97.9654 349.484 98.1582C349.092 98.3509 348.836 98.4152 348.707 98.3509C348.579 98.2867 348.38 98.4152 348.059 98.5437C347.738 98.678 347.411 98.8065 347.09 98.8065C346.763 98.8065 346.506 98.8708 346.313 98.9993C346.121 99.1278 345.28 99.192 343.727 99.2563C342.174 99.2563 341.333 99.3205 341.14 99.3906C340.942 99.4549 340.813 99.4549 340.621 99.3205C340.428 99.192 340.101 99.1278 339.651 99.192C339.459 99.192 339.196 99.2563 338.939 99.2563V99.192V99.1278C338.875 99.1278 338.875 99.1278 338.811 99.1278C338.682 99.1278 338.618 99.1278 338.618 99.192C338.554 99.2563 338.484 99.2563 338.291 99.2563C338.163 99.2563 338.098 99.2563 337.97 99.2563V99.192V99.1278C337.777 99.1278 337.579 99.1278 337.386 99.1278C337.001 99.1278 336.738 99.0635 336.545 98.9993C336.353 98.935 335.897 98.8065 335.121 98.678C334.344 98.5437 333.766 98.4152 333.311 98.2224C332.925 98.0297 332.598 98.0297 332.342 98.0939C332.213 98.1582 332.149 98.1582 332.02 98.2224C332.149 98.4794 332.277 98.7423 332.406 98.935C332.663 99.4549 332.733 99.7761 332.663 99.9046C332.598 100.033 332.663 100.489 332.861 101.137C333.054 101.78 333.118 102.364 333.118 102.884C333.054 103.398 333.118 103.725 333.182 103.917C333.247 104.11 333.311 104.303 333.311 104.437C333.311 104.566 333.182 104.823 333.054 105.016C332.861 105.214 332.733 105.471 332.733 105.728C332.733 105.921 332.598 106.248 332.47 106.633C332.277 107.025 332.02 107.282 331.629 107.41C331.244 107.539 330.981 107.737 330.788 107.93C330.596 108.123 330.21 108.316 329.691 108.38C329.171 108.444 328.85 108.444 328.593 108.316C328.395 108.251 328.138 108.187 327.945 108.251C327.752 108.316 327.618 108.316 327.618 108.251C327.618 108.187 327.425 108.123 327.233 108.123C327.04 108.059 326.842 107.994 326.713 107.866C326.585 107.737 326.264 107.539 325.616 107.346C325.032 107.153 324.711 107.025 324.646 106.896C324.646 106.762 324.454 106.698 324.255 106.569C324.127 106.505 324.062 106.441 323.934 106.376C323.934 106.505 323.934 106.633 323.934 106.826C323.934 107.153 323.998 107.41 324.127 107.737C324.255 107.994 324.319 108.444 324.255 108.964C324.255 109.221 324.191 109.484 324.191 109.741H324.255C324.319 109.741 324.319 109.741 324.389 109.741C324.389 109.805 324.389 109.869 324.319 109.934C324.255 110.062 324.319 110.126 324.389 110.191C324.454 110.191 324.454 110.261 324.518 110.261C324.454 110.325 324.454 110.325 324.389 110.389C324.319 110.453 324.191 110.967 324.062 112.007C323.934 113.041 323.806 113.561 323.677 113.689C323.549 113.818 323.549 113.882 323.549 114.011C323.549 114.139 323.479 114.268 323.35 114.332C323.222 114.402 323.157 114.595 323.093 114.852C323.029 115.109 322.901 115.307 322.638 115.5C322.445 115.693 322.317 115.821 322.252 115.95C322.252 116.084 322.06 116.213 321.669 116.341C321.347 116.47 321.091 116.598 320.956 116.727C320.828 116.855 320.314 116.925 319.339 116.925C318.37 116.925 317.658 116.727 317.208 116.405C316.753 116.084 316.303 115.886 315.912 115.757C315.526 115.629 315.199 115.5 314.943 115.243C314.75 114.98 314.493 114.852 314.294 114.852C314.102 114.788 313.973 114.723 313.909 114.531C313.845 114.332 313.716 114.203 313.518 114.139C313.325 114.075 313.197 113.946 313.197 113.882C313.197 113.818 313.004 113.561 312.677 113.362C312.356 113.105 312.099 112.913 311.971 112.65C311.772 112.393 311.644 112.2 311.451 112.136C311.258 112.071 311.194 111.943 311.13 111.744C311.066 111.552 310.803 111.23 310.353 110.775C309.898 110.325 309.577 109.934 309.384 109.548C309.186 109.157 308.993 108.9 308.865 108.836C308.736 108.771 308.608 108.643 308.608 108.508C308.608 108.38 308.538 108.251 308.473 108.187C308.345 108.123 308.345 107.994 308.345 107.93C308.345 107.866 308.345 107.667 308.217 107.41C308.088 107.218 307.895 107.025 307.697 106.896C307.504 106.762 307.312 106.505 307.183 106.119C307.055 105.728 306.792 105.278 306.471 104.823C306.15 104.367 305.951 103.982 305.951 103.789C305.951 103.596 305.823 103.269 305.502 102.884C305.175 102.428 305.046 102.235 305.11 102.171C305.11 102.107 305.046 101.914 304.853 101.587C304.661 101.266 304.597 101.073 304.597 100.938C304.597 100.81 304.597 100.681 304.468 100.553C304.334 100.36 304.27 100.162 304.205 99.9046C304.205 99.6476 304.077 99.3906 303.884 99.2563C303.692 99.0635 303.627 98.8708 303.627 98.7423C303.627 98.678 303.627 98.6138 303.692 98.5437C303.627 98.5437 303.627 98.5437 303.563 98.5437C303.493 98.5437 303.429 98.4152 303.3 98.1582C303.172 97.9012 303.108 97.5741 303.108 97.2528C303.044 96.9315 302.979 96.6045 302.851 96.4117C302.717 96.1547 302.652 96.0204 302.717 95.8919C302.787 95.7634 302.652 95.4421 302.46 94.9865C302.267 94.5367 302.074 94.0169 301.946 93.3685C301.812 92.7903 301.747 92.3989 301.683 92.3347C301.555 92.2704 301.49 91.9492 301.426 91.4936C301.362 90.9737 301.298 90.7167 301.234 90.7167C301.169 90.7167 301.169 90.7167 301.105 90.7167C301.105 90.5882 301.105 90.4597 301.105 90.3312C301.105 90.0684 301.105 89.8756 300.971 89.8114C300.907 89.7471 300.907 89.5544 300.907 89.2915C300.971 89.0345 300.907 88.8418 300.778 88.7775C300.65 88.649 300.65 88.5147 300.65 88.2577C300.65 88.0006 300.714 87.8721 300.778 87.7436C300.778 87.7436 300.842 87.6736 300.907 87.6736C300.842 87.6093 300.778 87.6093 300.778 87.6093C300.714 87.545 300.714 87.5451 300.65 87.4808C300.65 87.5451 300.65 87.6093 300.585 87.6093C300.521 87.6736 300.457 87.7436 300.329 87.7436C300.194 87.7436 300.002 87.8721 299.745 88.1292C299.488 88.3862 299.161 88.5847 298.776 88.7775C298.384 88.9703 298.192 89.0345 298.192 89.0988C298.192 89.163 298.192 89.163 298.192 89.163C298.192 89.163 298.127 89.163 298.063 89.0988L297.999 89.0345C297.999 89.0988 297.935 89.0988 297.935 89.163C297.935 89.2273 297.672 89.3558 297.222 89.4901C296.767 89.6186 296.51 89.7471 296.382 89.8756C296.317 90.0041 296.055 90.1326 295.734 90.1969C295.412 90.267 295.214 90.3955 295.15 90.4597C295.086 90.5882 294.957 90.5882 294.7 90.5882C294.507 90.5882 294.245 90.6525 294.052 90.781C293.859 90.9095 293.667 90.9737 293.532 90.9737C293.404 90.9737 293.211 91.038 293.147 91.1723C293.083 91.3008 292.89 91.3651 292.692 91.3651C292.499 91.3651 292.306 91.4293 292.178 91.5578C292.049 91.6863 291.787 91.7506 291.594 91.8148C291.337 91.8791 291.209 91.8148 291.209 91.7506C291.209 91.6863 291.144 91.6863 291.144 91.6221C291.08 91.6863 291.01 91.7506 291.01 91.7506C290.946 91.8148 290.105 91.9492 288.488 92.1419C286.871 92.3347 285.966 92.4632 285.645 92.5917C285.323 92.7202 284.932 92.7202 284.418 92.6559C283.899 92.5917 283.642 92.5917 283.508 92.6559C283.379 92.7903 283.186 92.7903 282.994 92.7202C282.731 92.6559 282.153 92.5917 281.248 92.5917C280.343 92.5917 279.502 92.5274 278.918 92.3347C278.335 92.1419 277.885 92.1419 277.558 92.2062C277.237 92.2704 277.044 92.2704 276.91 92.1419C276.782 92.0777 276.653 92.0134 276.396 92.0777C276.332 92.0777 276.204 92.1419 276.139 92.1419C276.139 92.0777 276.139 92.0777 276.139 92.0777C276.139 92.0134 275.877 91.9492 275.363 91.9492C274.843 91.8791 274.586 91.8791 274.586 91.8148C274.586 91.7506 274.586 91.7506 274.586 91.6863C274.586 91.7506 274.522 91.7506 274.522 91.8148C274.458 91.8791 274.324 91.8148 274.131 91.6863C273.938 91.4936 273.617 91.4293 273.097 91.4293C272.578 91.4293 272.257 91.3008 272.128 91.1723C272 91.038 271.737 90.9737 271.287 90.9095C270.832 90.8452 270.575 90.781 270.382 90.6525C270.184 90.524 269.991 90.4597 269.67 90.3955C269.343 90.3312 269.151 90.267 269.086 90.1969C269.022 90.1326 268.958 90.0684 268.829 90.1326C268.701 90.1326 268.567 90.1326 268.31 90.0041C268.053 89.8756 267.796 89.8114 267.533 89.7471C267.276 89.6829 266.955 89.5544 266.628 89.2915C266.307 89.0345 265.852 88.8418 265.338 88.7132C264.818 88.5847 264.427 88.4504 264.106 88.1934C263.849 88.0006 263.656 87.9364 263.586 87.9364C263.522 88.0006 263.073 87.6736 262.296 87.031C261.519 86.3827 260.807 86.0556 260.358 85.9271C259.838 85.7986 259.517 85.5416 259.254 85.2145C259.061 84.8932 258.805 84.7005 258.606 84.572C258.349 84.5077 257.9 84.1164 257.123 83.5323C256.346 82.954 255.955 82.6269 255.955 82.4984C255.891 82.3699 255.698 82.1129 255.313 81.7216C254.922 81.3361 254.601 81.079 254.472 81.009C254.274 80.9447 254.21 80.8162 254.21 80.752C254.21 80.6877 254.081 80.4949 253.696 80.1679C253.305 79.9109 253.112 79.6538 253.048 79.4611C252.983 79.2625 252.983 79.1982 252.919 79.0697C252.855 79.0055 252.791 78.9412 252.656 78.9412C252.592 78.9412 252.464 78.8127 252.4 78.62C252.335 78.4214 252.207 78.1644 252.014 77.9716C251.816 77.7789 251.687 77.5803 251.623 77.3233C251.559 77.1305 251.495 76.9378 251.366 76.9378C251.302 76.8677 251.173 76.7392 251.039 76.4179C250.911 76.0967 250.654 75.7696 250.333 75.3841C249.942 74.9927 249.749 74.6072 249.685 74.2801C249.62 73.9589 249.492 73.7019 249.422 73.6376C249.293 73.5675 249.165 73.3105 249.037 72.925C248.908 72.5337 248.844 72.2766 248.78 72.2766C248.715 72.2766 248.651 72.1481 248.581 71.9554C248.517 71.7568 248.388 71.564 248.324 71.4998C248.196 71.4355 248.132 71.307 248.132 71.2428C248.132 71.1785 248.067 70.9799 248.003 70.9157C247.875 70.7872 247.81 70.5944 247.676 70.2031C247.548 69.8176 247.484 69.5606 247.484 69.2977C247.484 69.0407 247.419 68.848 247.355 68.7195C247.227 68.591 247.162 68.3281 247.162 68.0069C247.162 67.6798 247.034 67.4228 246.9 67.2943C246.771 67.1658 246.707 66.973 246.707 66.6459C246.707 66.3247 246.643 65.9976 246.579 65.7406C246.45 65.4193 246.45 64.6424 246.45 63.2815C246.45 62.6331 246.45 61.9264 246.45 61.278C246.059 61.4065 245.609 61.535 245.218 61.5993C244.377 61.8563 243.735 61.9264 243.344 61.9264C242.959 61.9264 242.696 61.9906 242.503 62.1191C242.311 62.2476 242.182 62.3119 241.989 62.2476C241.791 62.1834 241.534 62.3119 241.277 62.5046C240.95 62.6974 240.693 62.7675 240.501 62.7675C240.308 62.6974 240.174 62.7675 240.109 62.8317C240.045 62.896 239.917 62.9602 239.596 62.9602C239.269 62.9602 239.076 63.0245 238.947 63.0887C238.819 63.2172 238.428 63.2815 237.914 63.41C237.33 63.4742 236.939 63.5385 236.682 63.4742C236.425 63.41 236.297 63.4742 236.168 63.5385C236.034 63.6728 235.841 63.6728 235.456 63.6728C235.065 63.6728 234.872 63.7371 234.679 63.8013C234.487 63.8656 234.096 63.9298 233.448 63.9298C233.126 63.9298 232.799 63.9298 232.478 63.9298C232.478 63.9941 232.478 63.9941 232.478 64.0583C232.478 64.1226 232.286 64.1869 231.959 64.2511C231.573 64.3154 231.188 64.3154 230.797 64.3154C230.347 64.2511 229.892 64.3154 229.436 64.5139C228.987 64.7067 228.531 64.7067 228.082 64.6424C227.626 64.5139 227.305 64.5782 227.113 64.7067C226.85 64.8352 226.593 64.8995 226.208 64.8352C225.816 64.771 225.624 64.8352 225.624 64.8995C225.56 64.9637 225.168 64.9637 224.456 64.9637C224.071 64.9637 223.685 64.8995 223.358 64.8995C223.358 64.9637 223.358 64.9637 223.358 64.9637C223.358 64.9637 223.358 65.028 223.358 65.0922C223.037 65.0922 222.775 65.0922 222.453 65.0922C221.87 65.0922 221.484 65.028 221.292 64.9637C221.093 64.8995 220.772 64.8995 220.317 64.9637C219.803 65.028 219.283 65.028 218.635 64.9637C218.057 64.8995 217.666 64.8995 217.602 64.9637C217.537 65.028 217.345 65.0922 217.024 65.0922C216.697 65.0922 216.311 65.028 215.984 64.9637C215.599 64.8995 215.406 64.8352 215.272 64.7067C215.208 64.6424 214.822 64.5782 214.174 64.5782C213.526 64.5782 212.948 64.5139 212.493 64.4497C212.043 64.3796 211.716 64.1869 211.588 64.0583C211.459 63.9298 211.203 63.8013 210.94 63.8013C210.683 63.8013 210.292 63.6728 209.842 63.41C209.322 63.153 209.066 62.896 208.937 62.6974C208.809 62.4404 208.61 62.3119 208.418 62.2476C208.225 62.1834 207.904 61.9264 207.513 61.535C207.127 61.1495 206.736 60.5012 206.479 59.7886C206.222 59.0117 206.088 58.3634 206.024 57.715C206.024 57.1368 206.024 56.7454 206.152 56.6812C206.222 56.6169 206.286 56.4884 206.286 56.1671C206.286 55.9043 206.351 55.7115 206.543 55.5188C206.736 55.326 206.8 55.1274 206.864 54.9347C206.864 54.7419 207.063 54.4148 207.32 54.1578C207.577 53.9008 207.705 53.6438 207.705 53.5737C207.705 53.4452 207.834 53.381 208.032 53.2525C208.289 53.124 208.353 53.0597 208.353 52.9955C208.353 52.9312 208.418 52.867 208.61 52.867C208.809 52.867 208.873 52.6684 209.001 52.4114C209.13 52.1544 209.194 52.0259 209.322 51.9616C209.451 51.8915 209.585 51.8273 209.649 51.6988C209.714 51.5703 209.842 51.506 209.971 51.506C210.099 51.506 210.227 51.4418 210.426 51.249C210.619 51.0504 210.811 50.9219 211.068 50.8577C211.331 50.7934 211.459 50.7292 211.459 50.6007C211.459 50.5364 211.652 50.4079 212.107 50.2093C212.557 50.0166 212.75 49.8881 212.814 49.7596C212.884 49.6311 213.077 49.5026 213.398 49.3682C213.725 49.2397 213.982 49.1112 214.11 48.9185C214.239 48.7257 214.566 48.6614 215.015 48.5271C215.406 48.3986 215.792 48.2701 216.113 47.9488C216.44 47.686 216.954 47.3647 217.602 47.1077C217.929 46.9792 218.25 46.8449 218.571 46.6521C218.442 46.5879 218.378 46.4594 218.25 46.3951C217.993 46.2024 217.864 46.1381 217.73 46.2024C217.602 46.2666 217.345 46.2024 217.024 46.1381C216.632 46.0038 216.311 45.8753 216.049 45.554C215.727 45.297 215.406 45.0342 215.015 44.9057C214.63 44.7772 214.303 44.5844 214.046 44.3216C213.789 44.0646 213.655 43.8718 213.655 43.8076C213.655 43.7433 213.462 43.4805 213.012 43.1592C212.557 42.7737 212.3 42.5109 212.236 42.3181C212.172 42.0611 212.107 41.9268 211.973 41.9268C211.909 41.9268 211.781 41.734 211.652 41.5413C211.524 41.3485 211.459 41.0214 211.459 40.7002C211.459 40.3789 211.395 40.1803 211.331 40.1161C211.267 40.0518 211.203 39.9233 211.203 39.7948C211.203 39.6663 211.132 39.4735 211.068 39.4035C211.004 39.2749 210.94 38.7609 211.004 37.7212C211.068 36.6874 211.203 36.039 211.395 35.7178C211.588 35.3965 211.716 35.0694 211.781 34.8124C211.845 34.5554 212.043 34.2283 212.3 33.9713C212.557 33.6501 212.75 33.3872 212.884 33.066C213.012 32.7389 213.141 32.5461 213.205 32.5461C213.269 32.5461 213.655 32.2248 214.239 31.6407C214.822 30.9924 215.272 30.6711 215.471 30.6711C215.663 30.6069 215.856 30.5426 215.984 30.3499C216.113 30.1513 216.375 30.087 216.697 29.9585C217.024 29.83 217.409 29.7015 217.794 29.4387C218.185 29.2459 218.442 29.1174 218.571 29.1817C218.705 29.1817 219.09 29.0532 219.803 28.7962C220.515 28.5333 221.029 28.2763 221.548 28.2121C222.068 28.0836 222.261 27.8908 222.197 27.4995C222.132 27.114 222.004 26.9154 221.87 26.7869C221.741 26.7226 221.677 26.5941 221.677 26.4014C221.677 26.2086 221.613 26.1444 221.548 26.01C221.484 25.8815 221.42 25.753 221.484 25.4318C221.484 25.3033 221.484 25.1689 221.548 24.9762C221.484 24.9762 221.484 24.9762 221.42 24.9762C221.356 24.9762 221.292 24.7834 221.163 24.3278C221.093 23.9423 220.965 23.3582 220.965 22.7098C220.9 22.0031 220.9 21.6117 220.965 21.4832C220.965 21.3547 221.029 21.2905 221.093 21.2905C221.163 21.2905 221.227 20.8991 221.227 20.1223C221.292 19.3454 221.548 18.6387 222.068 18.0546C222.582 17.4705 222.973 17.1492 223.23 17.1492C223.487 17.1492 223.75 17.0207 223.942 16.8221C224.199 16.6294 224.526 16.5651 225.04 16.5651C225.56 16.5651 225.881 16.6294 225.945 16.6936C226.073 16.8221 226.208 16.8221 226.336 16.8221C226.465 16.8221 226.593 16.8221 226.721 16.9506C226.786 17.085 226.978 17.085 227.177 17.085C227.37 17.0207 227.562 17.085 227.755 17.2135C227.953 17.342 228.21 17.4062 228.596 17.4062C228.987 17.4062 229.18 17.4705 229.308 17.599C229.436 17.7275 229.506 17.7976 229.635 17.7275C229.763 17.7275 229.828 17.5347 229.892 17.2135C229.956 16.9506 229.892 16.6294 229.828 16.3723C229.763 16.1095 229.763 15.8525 229.828 15.5312C229.892 15.2041 229.892 15.0756 229.828 15.0114C229.763 14.9471 229.763 14.5616 229.763 13.849C229.763 13.1364 229.699 12.6808 229.635 12.6166C229.571 12.4881 229.571 12.3596 229.635 12.2311C229.699 12.0383 229.763 11.904 229.763 11.647C229.763 11.39 229.699 11.2615 229.635 11.2615C229.571 11.2615 229.571 10.6774 229.571 9.64351C229.571 8.60381 229.635 8.0898 229.635 8.02555C229.699 7.9613 229.763 7.56995 229.763 6.79309C229.763 6.01624 229.828 5.43798 230.02 4.98238C230.213 4.53262 230.277 4.14128 230.277 3.88427C230.277 3.62143 230.347 3.36442 230.476 3.04317C230.604 2.71607 230.925 2.20206 231.509 1.48946C232.029 0.776855 232.735 0.391348 233.576 0.257004C233.71 0 234.224 0 234.417 0ZM233.448 3.23592C233.126 3.23592 232.934 3.30017 232.934 3.42867C232.87 3.55717 232.735 3.62143 232.478 3.75577C232.221 3.88427 232.029 4.20553 231.894 4.59687C231.766 5.04663 231.702 5.50223 231.638 6.01624C231.638 6.53609 231.638 6.85735 231.702 7.12019C231.702 7.24869 231.766 7.37719 231.766 7.5057C231.702 7.5057 231.702 7.5057 231.702 7.5057C231.638 7.5057 231.638 7.5057 231.573 7.5057C231.573 7.9613 231.573 8.3468 231.573 8.8024C231.573 9.25216 231.573 9.64351 231.573 10.0933C231.509 10.0933 231.509 10.0933 231.509 10.0933C231.509 10.0933 231.445 10.0933 231.381 10.0933C231.381 10.1575 231.381 10.2218 231.381 10.2218C231.381 10.3561 231.445 10.4846 231.509 10.8059C231.573 11.0629 231.638 11.2615 231.573 11.3257C231.509 11.39 231.509 11.5185 231.638 11.7112C231.766 11.904 231.766 12.0383 231.702 12.1026C231.638 12.1668 231.573 12.4238 231.573 12.8794C231.573 13.3292 231.638 13.5862 231.702 13.7205C231.766 13.849 231.766 13.9775 231.702 14.2345C231.638 14.4273 231.638 14.7544 231.766 15.1399C231.83 15.5312 231.894 16.0453 231.894 16.6294C231.894 17.2135 231.766 17.9261 231.573 18.7029C231.316 19.4097 231.054 19.8653 230.733 19.9938C230.411 20.1223 230.213 20.2508 230.149 20.3209C230.085 20.4494 229.892 20.4494 229.635 20.4494C229.372 20.4494 229.115 20.4494 228.987 20.5136C228.858 20.5779 228.73 20.5779 228.666 20.5136C228.596 20.4494 228.275 20.4494 227.889 20.4494C227.434 20.4494 227.113 20.3209 226.786 20.1223C226.465 19.9295 226.073 19.8653 225.688 19.8653C225.233 19.8653 224.912 19.801 224.719 19.6725C224.456 19.544 224.199 19.544 223.814 19.6083C223.423 19.6725 223.23 19.801 223.102 19.9295C223.037 20.058 222.909 20.5136 222.909 21.419C222.909 22.2601 222.909 22.7741 222.973 22.9727C223.037 23.1654 223.102 23.2939 223.166 23.2939C223.23 23.2939 223.294 23.4867 223.294 23.9423C223.358 24.3921 223.358 24.6549 223.487 24.7192C223.551 24.7834 223.685 24.9762 223.75 25.3675C223.814 25.753 223.942 26.01 224.071 26.0743C224.263 26.2086 224.328 26.3371 224.392 26.5299C224.456 26.7226 224.526 27.0497 224.59 27.628C224.655 28.1478 224.655 28.5976 224.59 28.9247C224.526 29.2459 224.392 29.573 224.199 29.83C224.007 30.087 223.814 30.2856 223.615 30.3499C223.423 30.4141 223.037 30.5426 222.518 30.6711C221.934 30.7996 221.677 30.9281 221.613 30.9924C221.548 31.0566 221.356 31.1267 220.9 31.1267C220.515 31.1267 220.124 31.191 219.867 31.3837C219.61 31.5765 219.283 31.6407 218.962 31.6407C218.635 31.6407 218.442 31.705 218.378 31.7692C218.314 31.8335 217.993 32.0321 217.345 32.2891C216.697 32.5461 216.311 32.8089 216.113 33.0017C215.92 33.1945 215.727 33.323 215.406 33.4515C215.079 33.58 214.887 33.6501 214.887 33.7786C214.887 33.8428 214.822 33.9071 214.822 33.9713C214.758 33.9713 214.758 33.9071 214.694 33.9071C214.63 33.9071 214.566 33.9071 214.566 33.8428C214.566 33.9071 214.63 33.9071 214.63 33.9713C214.63 33.9713 214.694 34.0356 214.694 34.0998C214.63 34.0998 214.566 34.1641 214.501 34.1641C214.367 34.2283 214.303 34.2926 214.303 34.4211C214.303 34.5554 214.239 34.6197 214.174 34.6197C214.11 34.6839 213.917 34.8124 213.655 35.1979C213.398 35.525 213.269 35.9748 213.205 36.4304C213.141 36.8801 213.077 37.0787 213.012 37.0787H212.948C212.948 37.2715 212.948 37.4 212.948 37.5927C212.948 37.9198 213.012 38.1768 213.141 38.4338C213.269 38.6324 213.334 38.8894 213.398 39.1464C213.398 39.4035 213.526 39.602 213.655 39.7948C213.789 39.9875 213.917 40.1161 213.853 40.1803C213.853 40.2446 213.789 40.2446 213.789 40.3146C213.853 40.3146 213.853 40.3146 213.917 40.3146C213.982 40.3146 214.11 40.3789 214.11 40.5074C214.174 40.6359 214.367 40.8929 214.822 41.22C215.272 41.6055 215.535 41.8625 215.663 41.9969C215.727 42.1896 215.92 42.2539 216.183 42.3824C216.44 42.5109 216.568 42.5751 216.568 42.6394C216.568 42.7036 216.568 42.7036 216.568 42.7737L216.632 42.7036C216.697 42.7036 216.825 42.7737 216.889 42.9665C217.024 43.1592 217.409 43.2877 218.057 43.4162C218.705 43.5447 219.026 43.6148 219.026 43.6791C219.026 43.7433 219.283 43.8718 219.931 44.1288C220.515 44.3216 220.836 44.5202 220.9 44.6487C220.965 44.7772 221.093 44.9057 221.356 44.9699C221.613 45.0984 221.741 45.1627 221.741 45.297C221.741 45.4255 221.805 45.4898 221.87 45.4898H221.934C221.87 45.4898 221.87 45.554 221.87 45.554C221.805 45.6183 221.805 45.6183 221.741 45.6183C221.805 45.6183 221.805 45.6825 221.87 45.6825C221.934 45.6825 221.934 45.811 221.934 45.9395C221.87 46.068 221.934 46.2024 222.004 46.2666C222.068 46.3309 222.004 46.6521 221.805 47.1077C221.613 47.5575 221.356 47.8846 221.029 48.0131C220.708 48.1416 220.515 48.3344 220.387 48.5271C220.317 48.7257 219.995 48.8542 219.546 48.9827C219.09 49.1112 218.25 49.5026 217.024 50.2093C215.792 50.9219 215.079 51.249 214.951 51.249C214.822 51.249 214.566 51.3133 214.239 51.506C213.917 51.6988 213.725 51.8273 213.725 51.9616C213.725 52.0901 213.526 52.2186 213.141 52.2829C212.948 52.3471 212.814 52.4114 212.621 52.4114C212.621 52.4756 212.621 52.4756 212.686 52.4756C212.75 52.5399 212.686 52.6684 212.493 52.8027C212.364 52.9955 212.107 53.0597 211.781 53.1882C211.524 53.3167 211.267 53.4452 211.132 53.6438C211.004 53.8366 210.683 54.0936 210.163 54.4849C209.649 54.8062 209.258 55.2618 208.937 55.7115C208.61 56.1671 208.482 56.6169 208.418 57.201C208.353 57.715 208.418 58.0421 208.482 58.2349C208.61 58.4276 208.68 58.6262 208.68 58.819C208.68 59.0117 208.937 59.3972 209.521 59.9171C210.099 60.4369 210.554 60.6939 210.811 60.7582C211.068 60.8224 211.331 60.8867 211.459 61.0152C211.588 61.1495 211.845 61.278 212.172 61.3423C212.493 61.4065 212.948 61.535 213.59 61.535C214.239 61.5993 214.63 61.6635 214.887 61.792C215.144 61.9264 215.599 61.9906 216.376 61.9264C217.088 61.8563 217.473 61.9264 217.602 61.9906C217.666 62.0549 218.185 62.1191 219.026 62.1191C219.867 62.1834 220.387 62.1191 220.644 62.0549C220.9 61.9906 221.356 61.9906 222.004 61.9906C222.646 62.0549 223.166 61.9906 223.487 61.9264C223.685 61.8563 223.814 61.8563 224.007 61.792C224.007 61.8563 224.007 61.8563 224.007 61.9264C224.007 61.9906 224.007 61.9906 224.007 61.9906C224.199 61.9906 224.392 61.9264 224.59 61.9264C224.976 61.8563 225.168 61.9264 225.233 61.9906C225.297 62.0549 225.56 62.0549 226.138 61.9264C226.657 61.792 227.305 61.7278 227.953 61.792C228.596 61.8563 229.244 61.7278 229.828 61.535C230.411 61.3423 231.188 61.2138 232.157 61.2138C233.126 61.1495 233.576 61.1495 233.576 61.0853C233.576 61.0152 233.576 61.0152 233.576 61.0152C233.646 61.0853 233.71 61.0853 233.71 61.0853C233.774 61.1495 234.224 61.0853 234.872 60.8867C235.52 60.6939 236.034 60.6297 236.233 60.6297C236.489 60.6939 236.682 60.6297 236.939 60.4369C237.202 60.2383 237.394 60.1741 237.651 60.2383C237.78 60.2383 237.914 60.3084 238.043 60.3084C238.043 60.2383 238.043 60.2383 238.043 60.2383C238.043 60.1741 238.235 60.1098 238.556 60.1098C238.883 60.1098 239.204 59.9813 239.397 59.8528C239.66 59.7243 239.788 59.6601 239.852 59.7886C239.917 59.8528 240.174 59.7886 240.629 59.6601C241.079 59.4673 241.534 59.3972 241.919 59.3972C242.311 59.333 242.632 59.2687 242.83 59.1402C243.087 59.0117 243.408 58.9475 243.799 58.8832C244.249 58.819 244.512 58.7547 244.64 58.6262C244.769 58.4919 245.154 58.3634 245.674 58.2349C246.257 58.1064 246.579 57.5223 246.707 56.4884C246.835 55.4545 246.835 54.8704 246.707 54.8062C246.643 54.7419 246.322 54.6134 245.866 54.6134C245.417 54.6134 244.897 54.4148 244.377 54.2221C243.864 53.9651 243.408 53.9008 243.023 53.9651C242.632 54.0293 242.311 54.0293 242.118 53.9008C241.919 53.8366 241.47 53.7723 240.822 53.8366C240.109 53.9008 239.66 53.9008 239.333 53.8366C239.076 53.7723 238.755 53.6438 238.556 53.5737C238.299 53.4452 238.171 53.1882 238.043 52.7326C237.914 52.2829 237.914 51.9616 238.107 51.6345C238.299 51.3133 238.621 51.0504 239.012 50.9219C239.397 50.7934 240.436 50.8577 241.989 51.0504C243.537 51.249 244.442 51.3133 244.704 51.3133C244.961 51.249 245.218 51.3133 245.417 51.4418C245.674 51.5703 246.059 51.6988 246.643 51.8273C246.9 51.8915 247.227 51.9616 247.548 52.0259C247.548 51.8915 247.548 51.8273 247.548 51.6988C247.548 51.506 247.74 51.0504 248.067 50.4079C248.388 49.7596 248.581 49.2397 248.581 48.9185C248.581 48.5972 248.26 48.2059 247.548 47.7503C246.771 47.2362 245.995 46.8449 245.09 46.5236C244.185 46.2024 243.537 45.9395 243.087 45.6825C242.632 45.4255 242.246 45.297 241.989 45.2269C241.727 45.1627 241.406 45.0984 241.014 44.9699C240.693 44.7772 240.501 44.7129 240.501 44.6487C240.501 44.5844 240.109 44.4559 239.467 44.3858C238.755 44.2573 238.299 44.1931 238.171 44.1288C237.978 44.0646 237.914 44.0003 237.914 43.8718C237.85 43.7433 237.716 43.6791 237.394 43.5447C237.073 43.4162 236.746 43.4162 236.489 43.4162C236.233 43.4162 235.841 43.2877 235.392 43.0307C234.936 42.7737 234.551 42.6394 234.16 42.7036C233.774 42.7737 233.383 42.5751 232.934 42.2539C232.478 41.9326 232.221 41.5413 232.221 41.0857C232.157 40.6359 232.221 40.3146 232.414 40.1161C232.607 39.9233 232.799 39.7948 232.998 39.6663C233.191 39.5378 233.71 39.602 234.487 39.7948C235.257 39.9875 235.777 40.0518 236.034 40.0518C236.297 40.0518 236.554 40.1161 236.875 40.3146C237.138 40.5074 237.523 40.6359 237.914 40.6359C238.299 40.7002 238.556 40.7644 238.691 40.8929C238.819 41.0214 239.012 41.0857 239.333 41.0857C239.66 41.0857 239.852 41.1558 239.981 41.3485C240.109 41.5413 240.372 41.6055 240.693 41.6055C241.079 41.6698 241.213 41.6698 241.213 41.734C241.213 41.7983 241.406 41.8625 241.791 41.9969C242.182 42.1254 242.439 42.1896 242.567 42.3181C242.696 42.4466 243.023 42.5751 243.472 42.6394C243.928 42.7036 244.249 42.838 244.377 42.9665C244.442 43.095 244.64 43.2235 244.897 43.2877C245.154 43.352 245.352 43.4162 245.481 43.352C245.609 43.352 245.802 43.4162 245.995 43.6148C246.257 43.8076 246.45 43.9361 246.707 44.0003C246.97 44.0646 247.098 44.1931 247.227 44.3216C247.355 44.4559 247.612 44.5844 248.132 44.7129C248.651 44.7772 249.037 44.9699 249.358 45.2269C249.556 45.3613 249.749 45.4898 249.877 45.6183C249.877 45.554 249.813 45.554 249.813 45.4898C249.749 45.4255 249.877 45.2269 250.006 44.9057C250.134 44.5844 250.263 44.3858 250.333 44.3858C250.397 44.3858 250.525 44.1288 250.654 43.5447C250.782 42.9665 250.975 42.6394 251.103 42.5109C251.173 42.4466 251.238 42.3824 251.302 42.3181C251.238 42.2539 251.103 42.2539 251.039 42.1896C250.847 42.1254 250.782 42.0611 250.782 41.9326C250.782 41.7983 250.654 41.7983 250.525 41.7983C250.397 41.7983 250.134 41.6055 249.813 41.0857C249.422 40.6359 249.229 40.4431 249.101 40.4431C249.037 40.4431 248.844 40.3146 248.651 40.1161C248.453 39.9233 248.196 39.602 247.875 39.0179C247.548 38.4981 247.355 38.2411 247.291 38.2411C247.227 38.2411 247.227 38.2411 247.162 38.2411C247.162 38.1768 247.162 38.1126 247.162 38.1126C247.162 37.9841 247.098 37.9198 246.97 37.8556C246.835 37.7913 246.771 37.657 246.707 37.5285C246.643 37.4 246.579 37.3357 246.514 37.3357C246.386 37.3357 246.129 36.9502 245.738 36.2376C245.282 35.4608 245.025 34.8767 244.833 34.3568C244.64 33.8428 244.576 33.5157 244.442 33.5157C244.377 33.4515 244.313 33.1945 244.377 32.8089C244.442 32.4176 244.442 32.0963 244.576 31.8978C244.64 31.705 244.769 31.5765 244.961 31.448C245.154 31.3195 245.417 31.3195 245.802 31.3195C246.193 31.3195 246.45 31.448 246.579 31.5122C246.707 31.6407 246.835 31.8335 246.9 32.0963C247.034 32.4176 247.098 32.6104 247.227 32.7389C247.355 32.8732 247.419 33.1302 247.484 33.4515C247.548 33.8428 247.676 34.1641 247.875 34.4211C248.067 34.7482 248.26 34.9409 248.388 35.0052C248.517 35.0694 248.651 35.268 248.651 35.525C248.651 35.782 248.844 35.9748 249.101 36.2376C249.358 36.4304 249.62 36.7516 249.813 37.143C250.006 37.5285 250.198 37.7212 250.333 37.7913C250.461 37.7913 250.59 37.9841 250.847 38.3053C251.039 38.5623 251.302 38.8894 251.623 39.1464C251.95 39.4035 252.207 39.5378 252.335 39.4735C252.528 39.4735 252.592 39.2749 252.656 39.0179C252.721 38.7609 252.855 38.4981 253.112 38.3053C253.369 38.0483 253.497 37.7913 253.632 37.4C253.76 37.0787 253.824 36.8159 253.953 36.7516C254.081 36.6874 254.21 36.4304 254.402 36.039C254.601 35.7178 254.665 35.525 254.793 35.4608C254.922 35.4608 254.922 35.1337 254.922 34.6197C254.922 34.0998 254.793 33.58 254.537 33.066C254.274 32.5461 254.145 32.0321 254.081 31.5765C254.081 31.1267 253.953 30.7996 253.824 30.7354C253.632 30.6069 253.561 30.2856 253.497 29.7015C253.433 29.1817 253.305 28.7962 253.24 28.5976C253.112 28.4048 253.048 28.3406 253.112 28.2121C253.176 28.0836 253.048 27.8266 252.791 27.371C252.528 26.8511 252.4 26.5941 252.4 26.4656C252.4 26.3371 252.335 26.2086 252.207 26.0743C252.078 25.9458 252.014 25.8173 252.078 25.6888C252.078 25.5603 252.078 25.496 251.95 25.4318C251.88 25.3675 251.752 25.1689 251.752 24.9119C251.752 24.6549 251.623 24.4621 251.495 24.3921C251.366 24.2636 251.173 23.8138 250.847 22.9084C250.525 22.0031 250.198 21.4832 249.942 21.2262C249.685 20.9634 249.556 20.7706 249.62 20.7064C249.62 20.5779 249.62 20.4494 249.492 20.1865C249.422 19.9295 249.229 19.7368 249.037 19.544C248.844 19.3454 248.715 19.2169 248.715 19.0242C248.651 18.8314 248.517 18.5686 248.26 18.3116C248.003 18.0546 247.875 17.7976 247.81 17.599C247.81 17.4062 247.612 17.085 247.227 16.7579C246.835 16.4366 246.643 16.1095 246.643 15.8525C246.579 15.5312 246.514 15.4027 246.45 15.3385C246.322 15.2684 246.257 15.1399 246.129 14.9471C245.995 14.6901 245.93 14.5616 245.995 14.4974C246.059 14.4273 245.866 14.2988 245.609 14.0418C245.352 13.849 245.154 13.6563 245.09 13.5219C245.025 13.3934 245.025 13.3292 244.961 13.3292C244.897 13.3292 244.897 13.3292 244.833 13.3292L244.897 13.2649C244.961 13.2007 244.833 13.0722 244.576 12.8152C244.313 12.5523 244.185 12.4238 244.185 12.2953C244.185 12.1668 244.12 11.9741 243.928 11.7755C243.735 11.5827 243.472 11.2615 243.087 10.9344C242.696 10.6131 242.503 10.3561 242.439 10.2218C242.439 10.0933 242.375 10.029 242.246 10.029C242.118 10.029 241.919 9.77201 241.534 9.31641C241.149 8.86665 240.822 8.4753 240.565 8.28255C240.308 8.0898 240.045 7.89704 239.981 7.6342C239.917 7.44145 239.724 7.24869 239.467 7.12019C239.269 6.99169 239.076 6.85735 238.947 6.60034C238.819 6.34334 238.691 6.21483 238.428 6.08049C238.171 5.95199 238.107 5.88774 237.978 5.69498C237.914 5.50223 237.202 5.04663 235.906 4.33403C234.551 3.55717 233.774 3.17167 233.448 3.23592ZM281.96 26.5299C281.826 26.5941 281.505 26.5941 280.985 26.5299C280.472 26.4656 280.016 26.4656 279.631 26.4656C279.24 26.4656 279.047 26.5299 278.918 26.5941C278.854 26.6584 278.399 26.7226 277.622 26.7226C276.846 26.7226 275.877 26.8511 274.843 27.0497C273.81 27.2425 272.969 27.4995 272.257 27.6922C271.544 27.9551 271.089 28.0836 270.832 28.0193C270.575 28.0193 270.382 28.0836 270.184 28.2121C269.991 28.3406 269.67 28.5333 269.151 28.6677C268.637 28.7962 268.31 28.9247 268.181 29.0532C268.053 29.1817 267.924 29.2459 267.796 29.1817C267.662 29.1174 267.533 29.1817 267.405 29.3102C267.276 29.4445 267.148 29.5088 266.885 29.5088C266.628 29.5088 266.5 29.573 266.371 29.7015C266.179 29.83 265.98 29.8943 265.659 30.0228C265.402 30.087 265.139 30.2155 264.882 30.4784C264.626 30.7354 264.497 30.7996 264.363 30.7996C264.234 30.7996 264.106 30.9281 263.913 31.0566C263.721 31.2552 263.656 31.3195 263.522 31.3195C263.458 31.3195 263.329 31.3195 263.265 31.448C263.201 31.5765 263.073 31.6407 262.816 31.6407C262.553 31.6407 262.36 31.8335 262.103 32.0963C261.841 32.3534 261.455 32.6104 261 32.8089C260.55 33.066 260.223 33.2587 260.095 33.5157C259.966 33.7786 259.71 33.9713 259.383 34.0998C259.061 34.2283 258.805 34.4912 258.542 34.8124C258.285 35.1337 258.156 35.3323 258.028 35.3323C257.9 35.3965 257.765 35.4608 257.765 35.6535C257.701 35.8463 257.573 35.9748 257.38 36.1734C257.187 36.3661 257.059 36.5589 256.925 36.8159C256.86 37.143 256.668 37.3357 256.411 37.5285C256.218 37.7212 256.02 37.8556 256.02 38.1126C255.955 38.3053 255.955 38.4338 255.891 38.4338C255.827 38.4338 255.698 38.5623 255.634 38.8252C255.506 39.0822 255.442 39.3392 255.377 39.4735C255.313 39.6663 255.313 39.7948 255.243 39.7948C255.179 39.7948 255.179 39.7948 255.179 39.7948C255.179 39.859 255.243 39.859 255.243 39.9233C255.313 40.0518 255.179 40.1803 254.922 40.4431C254.665 40.6359 254.402 41.0214 254.21 41.5413C254.017 42.0611 253.888 42.3181 253.824 42.3181C253.76 42.3181 253.696 42.5751 253.561 43.0307C253.497 43.4805 253.305 43.8076 253.112 44.0003C252.919 44.1931 252.855 44.3858 252.855 44.5202C252.855 44.5844 252.855 44.7129 252.855 44.7772C252.785 44.7772 252.785 44.7772 252.785 44.7772C252.721 44.7772 252.592 44.9699 252.528 45.3613C252.4 45.7468 252.271 45.9395 252.207 45.9395H252.143C252.143 46.068 252.143 46.2024 252.143 46.3309C252.143 46.5879 252.078 46.7164 252.014 46.7806C251.944 46.8449 251.88 46.9091 251.88 47.1077C251.88 47.172 251.88 47.3005 251.88 47.3647C251.816 47.3647 251.816 47.3647 251.752 47.3647C251.687 47.3647 251.623 47.6217 251.559 48.1416C251.495 48.6614 251.43 48.9827 251.302 48.9827C251.173 49.047 251.103 49.304 251.039 49.6953C250.975 50.0808 250.847 50.4722 250.718 50.7934C250.59 51.1205 250.461 51.3775 250.461 51.6345C250.461 51.8915 250.397 52.1544 250.263 52.3471C250.134 52.5399 250.07 52.867 250.134 53.2525C250.134 53.4452 250.198 53.6438 250.198 53.9008C250.134 53.9008 250.134 53.9008 250.134 53.9008C250.07 53.9008 250.07 53.9008 250.006 53.9008C250.006 54.0936 250.006 54.2863 250.006 54.4148C250.006 54.7419 249.942 55.1274 249.749 55.583C249.556 56.0328 249.492 56.4241 249.492 56.8739C249.492 57.2653 249.422 57.5223 249.358 57.5223C249.293 57.5865 249.293 57.8494 249.293 58.3634C249.293 58.8832 249.293 59.2045 249.165 59.3972C249.037 59.5958 249.037 59.8528 249.101 60.1098C249.229 60.3727 249.229 60.8224 249.165 61.3423C249.101 61.8563 249.101 62.1191 249.165 62.1834C249.229 62.1834 249.165 62.4404 249.037 62.8317C248.844 63.2172 248.78 63.6728 248.844 64.0583C248.908 64.5139 248.844 64.8352 248.78 64.9637C248.715 65.0922 248.715 65.2207 248.844 65.3551C248.972 65.4193 249.037 65.7406 249.101 66.3247C249.165 66.8387 249.293 67.23 249.422 67.3585C249.556 67.487 249.685 67.6798 249.685 68.0069C249.685 68.2639 249.749 68.4566 249.813 68.5209C249.942 68.5209 250.006 68.7195 250.07 69.0407C250.134 69.2977 250.263 69.5606 250.333 69.6891C250.461 69.8818 250.525 70.0103 250.461 70.2031C250.397 70.4017 250.525 70.5944 250.718 70.8514C250.975 71.1143 251.103 71.4355 251.173 71.7568C251.238 72.0839 251.366 72.3409 251.559 72.5979C251.752 72.8607 251.88 73.0535 251.88 73.3105C251.944 73.5033 252.014 73.7661 252.207 74.0231C252.4 74.2801 252.528 74.4145 252.656 74.4145C252.785 74.4145 252.919 74.6715 253.112 75.1212C253.305 75.5768 253.497 75.8981 253.632 75.9623C253.76 76.0266 253.824 76.1609 253.824 76.2894C253.824 76.4179 253.953 76.6107 254.145 76.8034C254.402 77.002 254.601 77.259 254.729 77.5803C254.922 77.9716 255.05 78.1644 255.313 78.2929C255.57 78.4214 255.827 78.7485 256.218 79.1982C256.539 79.6538 256.86 79.9109 257.187 80.1036C257.444 80.2379 257.9 80.6235 258.413 81.2076C258.933 81.7858 259.383 82.1772 259.645 82.2414C259.902 82.3057 260.095 82.4342 260.159 82.5627C260.223 82.6912 260.358 82.8255 260.422 82.8255C260.55 82.8255 260.679 82.954 260.936 83.211C261.198 83.468 261.519 83.6666 261.841 83.7951C262.168 83.9236 262.424 84.0521 262.617 84.2449C262.816 84.4435 263.008 84.5077 263.265 84.572C263.522 84.6362 263.721 84.7647 263.785 84.8932C263.913 85.086 264.17 85.2145 264.561 85.3488C265.011 85.4773 265.268 85.6058 265.338 85.7343C265.402 85.8628 265.852 86.0614 266.564 86.2542C267.276 86.5112 267.726 86.6397 267.86 86.7682C267.989 86.9025 268.117 86.9668 268.374 86.9668C268.637 86.9668 268.765 87.031 268.958 87.1595C269.151 87.288 269.343 87.3523 269.606 87.3523C269.863 87.3523 270.055 87.4165 270.184 87.6093C270.318 87.8079 270.511 87.8721 270.832 87.8721C271.159 87.9364 271.416 87.9364 271.609 88.0649C271.801 88.1292 271.93 88.2577 271.93 88.3219V88.3862C272.192 88.3862 272.449 88.3862 272.642 88.3862C273.162 88.3862 273.547 88.4504 273.81 88.5847C274.067 88.7132 274.388 88.7775 274.65 88.7775C274.972 88.7775 275.299 88.8418 275.62 89.0345C276.005 89.2273 276.396 89.2273 276.846 89.2273C277.301 89.2273 277.687 89.2273 278.078 89.3558C278.463 89.4901 278.983 89.5544 279.759 89.5544C280.536 89.5544 280.921 89.6186 280.985 89.6186C281.05 89.6829 281.184 89.6829 281.505 89.6829C281.826 89.6829 282.025 89.6829 282.217 89.7471C282.41 89.8114 282.667 89.8114 283.122 89.6829C283.508 89.6186 283.963 89.5544 284.348 89.6186C284.74 89.6829 284.996 89.6186 285.125 89.5544C285.259 89.4258 285.516 89.4259 285.837 89.4901C286.228 89.5544 286.421 89.5544 286.485 89.4901C286.55 89.4259 286.871 89.3558 287.39 89.3558C287.974 89.2915 288.295 89.2273 288.424 89.163C288.552 89.0988 288.686 89.0345 288.943 89.0988C289.136 89.163 289.393 89.0988 289.784 88.906C290.169 88.7132 290.368 88.649 290.561 88.649C290.753 88.649 290.882 88.5847 291.074 88.4504C291.273 88.2577 291.53 88.2577 291.787 88.2577C292.049 88.3219 292.371 88.1934 292.692 88.0006C293.019 87.8079 293.34 87.7436 293.603 87.7436C293.859 87.7436 294.181 87.6093 294.443 87.3523C294.7 87.0953 295.15 86.8324 295.926 86.5112C296.639 86.2542 297.03 85.9913 297.03 85.9271C297.03 85.7986 297.094 85.7986 297.222 85.7986C297.351 85.7986 297.415 85.7343 297.415 85.6701C297.479 85.5416 297.806 85.2846 298.384 84.8932C299.032 84.5077 299.354 84.1806 299.424 84.0521C299.488 83.9236 299.616 83.7951 299.809 83.7951C300.002 83.7309 300.13 83.6024 300.194 83.468C300.264 83.3395 300.393 83.211 300.521 83.1468C300.65 83.0825 300.778 82.954 300.842 82.8255C300.907 82.6912 301.035 82.4984 301.169 82.4342C301.298 82.3699 301.426 82.1772 301.49 81.9844C301.555 81.7858 301.747 81.5931 302.01 81.4646C302.267 81.2718 302.395 81.2076 302.395 81.079C302.395 81.009 302.524 80.8162 302.717 80.4949C302.979 80.2379 303.108 80.1036 303.172 80.1036C303.236 80.1036 303.236 80.1679 303.3 80.1679C303.3 80.0394 303.3 79.9751 303.3 79.8466C303.3 79.6538 303.429 79.391 303.692 79.134C303.949 78.877 304.141 78.62 304.205 78.3571C304.27 78.1644 304.404 77.9716 304.532 77.8431C304.725 77.7789 304.789 77.516 304.918 77.1948C305.046 76.8677 305.175 76.6107 305.437 76.4179C305.63 76.2252 305.758 76.0266 305.758 75.8338C305.758 75.6411 305.823 75.4483 306.015 75.3198C306.214 75.1855 306.278 74.9927 306.278 74.8C306.342 74.543 306.407 74.4145 306.599 74.2801C306.792 74.1516 306.792 74.0231 306.792 73.8946C306.792 73.7661 306.792 73.6376 306.926 73.5734C307.055 73.439 307.119 73.3105 307.183 73.0535C307.247 72.7965 307.376 72.5979 307.633 72.3409C307.895 72.0839 308.024 71.8211 308.024 71.6283C308.024 71.3713 308.152 71.1785 308.345 70.9157C308.538 70.6587 308.736 70.2031 308.865 69.4963C308.993 68.7837 309.186 68.3924 309.314 68.2639C309.448 68.1354 309.513 67.8784 309.577 67.5513C309.577 67.1658 309.641 66.973 309.77 66.9029C309.898 66.8387 309.898 66.7102 309.898 66.5174C309.898 66.3247 309.962 66.0618 310.091 65.8048C310.219 65.4836 310.289 65.2908 310.219 65.0922C310.219 64.8995 310.219 64.8352 310.353 64.7067C310.482 64.6424 310.482 64.4497 310.482 64.1869C310.482 63.9298 310.546 63.7371 310.61 63.6728C310.739 63.5385 310.739 63.0887 310.739 62.3119C310.739 61.535 310.803 61.0152 310.931 60.8224C311.066 60.6297 311.13 59.8528 311.066 58.5561C311.066 57.201 311.066 56.5527 311.13 56.4884C311.194 56.4241 311.258 56.1671 311.258 55.583C311.258 54.9989 311.194 54.6134 311.13 54.4148C311.066 54.2221 310.996 53.8366 311.066 53.1882C311.13 52.5399 311.13 52.0901 310.996 51.6988C310.867 51.3133 310.867 51.0504 310.867 50.8577C310.867 50.6649 310.739 49.9523 310.353 48.79C309.962 47.5575 309.834 46.8449 309.834 46.6521C309.834 46.3951 309.77 46.2024 309.577 46.0038C309.378 45.811 309.314 45.6183 309.314 45.297C309.378 45.0342 309.25 44.7772 309.057 44.5844C308.8 44.3858 308.736 44.1288 308.736 43.8076C308.736 43.4805 308.538 43.095 308.217 42.5751C307.895 42.0611 307.633 41.6055 307.44 41.0857C307.247 40.6359 307.119 40.3146 306.926 40.1803C306.728 40.0518 306.728 39.9233 306.728 39.859C306.792 39.7948 306.663 39.6663 306.471 39.5378C306.278 39.3392 306.15 39.2107 306.085 39.0179C306.015 38.8252 305.887 38.6324 305.566 38.4338C305.245 38.2411 305.11 37.9841 305.046 37.7212C304.982 37.4642 304.789 37.2072 304.532 37.0145C304.27 36.8159 304.141 36.6231 304.013 36.3661C303.884 36.039 303.756 35.8463 303.557 35.6535C303.365 35.4608 303.236 35.3965 303.172 35.3965C303.044 35.3965 302.787 35.1979 302.395 34.7482C301.946 34.2926 301.747 34.0356 301.619 34.0356C301.49 34.0356 301.298 33.8428 301.035 33.5157C300.778 33.1302 300.393 32.8732 299.937 32.6104C299.488 32.4176 299.225 32.2248 299.161 32.0321C299.097 31.8335 298.904 31.705 298.513 31.5765C298.127 31.448 297.871 31.3195 297.672 31.0566C297.479 30.7996 297.287 30.7354 296.966 30.6069C296.639 30.5426 296.317 30.3499 295.991 30.0228C295.669 29.7015 295.412 29.573 295.214 29.573C295.021 29.573 294.572 29.3744 293.859 29.0532C293.147 28.6677 292.563 28.4691 292.178 28.4691C291.787 28.4048 291.466 28.3406 291.273 28.1478C291.074 27.9551 290.753 27.8908 290.368 27.8908C289.913 27.8908 289.656 27.8266 289.463 27.6922C289.264 27.5637 288.815 27.4352 288.038 27.371C287.262 27.3067 286.806 27.1782 286.614 27.114C286.421 27.0497 286.164 26.9855 285.837 26.9855C285.516 26.9855 285.189 26.9855 284.932 26.8511C284.675 26.7226 284.156 26.6584 283.443 26.6584C282.474 26.4656 282.089 26.4656 281.96 26.5299ZM279.111 28.9889C279.438 29.1174 279.631 29.2459 279.759 29.3744C279.823 29.5088 279.952 29.7015 279.952 30.0228C279.952 30.3499 279.888 30.6069 279.759 30.9281C279.567 31.191 279.368 31.3837 279.047 31.448C278.726 31.448 278.463 31.448 278.206 31.3837C278.013 31.3195 277.821 31.191 277.687 31.1267C277.558 30.9924 277.494 30.7354 277.43 30.3499C277.365 29.9585 277.494 29.6373 277.622 29.4445C277.751 29.2459 278.013 29.0532 278.27 28.9889C278.527 28.7962 278.79 28.8604 279.111 28.9889ZM274.65 29.3102C275.036 29.3102 275.363 29.5088 275.62 29.7015C275.877 29.8943 276.005 30.2856 276.005 30.7354C276.005 31.191 275.941 31.5122 275.877 31.6407C275.748 31.7693 275.62 31.8335 275.491 31.8978C275.299 31.8978 275.228 31.9678 275.228 32.0963C275.228 32.2248 275.036 32.2891 274.715 32.3534C274.388 32.4176 274.067 32.4176 273.681 32.3534C273.226 32.2891 272.969 32.3534 272.776 32.4819C272.578 32.6104 272.514 32.6746 272.385 32.6104C272.321 32.6104 272.128 32.6104 271.865 32.6746C271.609 32.7389 271.48 32.8089 271.48 32.8732C271.48 32.9375 271.48 32.9375 271.48 33.0017C271.352 33.0017 271.287 32.9375 271.159 32.9375C270.96 32.8732 270.768 32.9375 270.639 33.066C270.447 33.1945 270.248 33.2587 269.863 33.323C269.477 33.323 269.151 33.5157 268.829 33.7143C268.502 33.9071 268.246 34.0356 268.117 34.0356C267.989 34.0356 267.796 34.1641 267.597 34.2926C267.405 34.4912 267.212 34.6197 267.019 34.6839C266.821 34.7482 266.628 34.8767 266.5 35.0052C266.436 35.1337 266.243 35.2622 265.916 35.3323C265.659 35.3965 265.402 35.5893 265.204 35.782C265.011 35.9748 264.818 36.1091 264.626 36.1734C264.363 36.2376 264.234 36.3661 264.17 36.5589C264.106 36.7516 263.913 36.9502 263.656 37.0787C263.394 37.2072 263.201 37.3357 263.201 37.4C263.201 37.4642 263.073 37.5285 262.88 37.657C262.617 37.7913 262.36 37.7913 261.975 37.657C261.776 37.5927 261.584 37.5285 261.391 37.5285C261.391 37.4642 261.455 37.4642 261.455 37.4C261.455 37.3357 261.391 37.143 261.263 36.8801C261.064 36.6231 261 36.3019 261.064 36.039C261.134 35.782 261.198 35.525 261.327 35.4608C261.519 35.3965 261.712 35.1337 261.905 34.8124C262.103 34.4211 262.36 34.1641 262.553 34.0356C262.746 33.9071 262.944 33.7786 263.137 33.7786C263.329 33.7143 263.458 33.6501 263.656 33.4515C263.785 33.2587 263.978 33.1302 264.17 33.066C264.363 33.0017 264.561 32.8732 264.561 32.8089C264.626 32.6746 264.754 32.5461 264.947 32.4819C265.139 32.4176 265.338 32.3534 265.466 32.3534C265.595 32.3534 265.659 32.3534 265.723 32.2248C265.852 32.0963 266.044 31.9678 266.436 31.7692C266.821 31.5765 267.019 31.5765 267.084 31.5765C267.084 31.5765 267.148 31.5765 267.148 31.6407C267.148 31.5765 267.148 31.5765 267.148 31.5122C267.148 31.448 267.276 31.3837 267.533 31.3195C267.796 31.2552 267.989 31.1267 268.053 30.9924C268.117 30.8639 268.31 30.7996 268.637 30.7354C268.894 30.7354 269.215 30.6069 269.542 30.4784C269.863 30.3499 270.639 30.087 272 29.83C273.419 29.3744 274.259 29.3102 274.65 29.3102ZM337.386 54.1578C337.001 54.2221 336.674 54.2863 336.353 54.2221C336.032 54.1578 335.769 54.1578 335.64 54.2863C335.448 54.4207 335.057 54.4207 334.28 54.4207C333.503 54.4207 333.118 54.4849 332.925 54.5492C332.733 54.6777 332.47 54.6777 332.085 54.6777C331.693 54.6777 331.501 54.6777 331.437 54.7419C331.372 54.8062 331.18 54.8062 330.917 54.8062C330.66 54.8062 330.403 54.8704 330.275 54.9989C330.14 55.1274 329.884 55.1917 329.562 55.1274C329.235 55.0632 328.786 55.1917 328.138 55.3903C327.49 55.583 327.104 55.6473 326.842 55.6473C326.649 55.6473 326.199 55.7758 325.616 56.0328C325.032 56.2957 324.518 56.4241 323.998 56.4884C323.479 56.5527 323.222 56.6169 323.157 56.7454C323.029 56.8739 322.836 57.0083 322.445 57.0725C322.06 57.1368 321.733 57.2653 321.604 57.3938C321.412 57.5865 321.155 57.6508 320.764 57.715C320.378 57.7851 320.18 57.8494 320.051 57.9779C319.987 58.1064 319.794 58.1064 319.473 58.1064C319.146 58.1064 318.954 58.1706 318.761 58.3634C318.568 58.5561 318.37 58.6262 318.049 58.6262C317.792 58.6905 317.336 58.819 316.817 59.076C316.303 59.333 315.976 59.4673 315.783 59.4673C315.719 59.4673 315.591 59.4673 315.526 59.4673C315.526 59.5316 315.526 59.5316 315.526 59.5958C315.526 59.7243 315.27 59.8528 314.686 60.1098C314.102 60.3727 313.781 60.7582 313.652 61.2138C313.588 61.6635 313.454 61.9264 313.39 61.9906C313.325 62.0549 313.261 62.3119 313.261 62.7675C313.325 63.2172 313.261 63.6086 313.133 63.9941C313.004 64.3796 312.94 64.6424 313.004 64.8995C313.068 65.1565 313.518 65.3551 314.294 65.4193C315.071 65.5478 315.783 65.6763 316.431 65.9333C317.079 66.1962 317.593 66.1962 317.984 66.1319C318.37 66.0618 318.697 66.0618 318.825 66.1319C319.018 66.1962 319.473 66.2604 320.18 66.2604C320.892 66.2604 321.347 66.3247 321.604 66.5174C321.861 66.7102 321.996 67.0373 322.06 67.3585C322.124 67.7499 322.06 68.0711 321.931 68.2639C321.733 68.5209 321.412 68.6552 320.892 68.7837C320.378 68.9122 319.923 68.9765 319.602 68.9122C319.275 68.848 319.082 68.848 319.018 68.7837C319.018 68.7195 318.498 68.7195 317.658 68.7195C316.817 68.7195 316.239 68.6552 316.046 68.5209C315.783 68.3924 315.462 68.3281 315.007 68.3924C314.557 68.3924 314.294 68.3924 314.294 68.3281C314.294 68.2639 314.102 68.2639 313.845 68.2639C313.716 68.2639 313.588 68.2639 313.454 68.2639C313.454 68.1996 313.454 68.1996 313.454 68.1996C313.454 68.1354 313.454 68.1354 313.454 68.0711C313.389 68.0711 313.261 68.0711 313.197 68.0711C313.004 68.0711 312.94 68.0069 312.876 67.9426C312.811 67.8141 312.677 67.7499 312.549 67.7499C312.485 67.7499 312.356 67.6798 312.292 67.6798C312.292 67.7499 312.228 67.8784 312.228 67.9426C312.228 68.1354 312.099 68.2639 311.971 68.3924C311.836 68.4566 311.772 68.7195 311.708 69.0407C311.644 69.4321 311.58 69.6248 311.451 69.7533C311.323 69.8818 311.323 70.0103 311.323 70.2732C311.387 70.5302 311.258 70.7872 311.066 70.9799C310.867 71.2428 310.803 71.3713 310.803 71.4998C310.803 71.564 310.803 71.6283 310.803 71.6283C310.739 71.6283 310.739 71.6283 310.675 71.6283C310.61 71.6283 310.61 71.6283 310.546 71.6283C310.546 71.6926 310.546 71.7568 310.546 71.8211C310.546 71.9554 310.739 72.0839 311.13 72.2766C311.515 72.4694 311.708 72.5337 311.708 72.5979C311.708 72.6622 311.906 72.7965 312.228 73.0535C312.613 73.2463 312.876 73.3748 313.004 73.3748C313.133 73.3748 313.39 73.5033 313.652 73.6376C313.973 73.8304 314.294 73.9589 314.686 74.0231C315.071 74.0874 315.27 74.1516 315.334 74.2801C315.334 74.3444 315.462 74.4787 315.591 74.543C315.719 74.6072 315.976 74.6072 316.175 74.6072C316.367 74.6072 316.624 74.7357 316.753 74.9285C316.951 75.1212 317.144 75.1855 317.401 75.1855C317.529 75.1855 317.728 75.1855 317.856 75.1855C317.856 75.2556 317.856 75.2556 317.856 75.2556C317.856 75.3198 317.984 75.3841 318.113 75.3841C318.306 75.4483 318.434 75.4483 318.498 75.5768C318.568 75.6411 318.761 75.7696 319.018 75.8338C319.275 75.8981 319.538 75.9623 319.602 76.0967C319.73 76.1609 319.794 76.2252 319.987 76.2252C320.18 76.2252 320.314 76.2894 320.507 76.4179C320.699 76.5464 320.956 76.6107 321.219 76.6107C321.476 76.6107 321.733 76.7392 321.931 76.9378C322.124 77.1948 322.252 77.3233 322.252 77.4518C322.252 77.5803 322.317 77.6445 322.381 77.6445C322.445 77.6445 322.574 77.8431 322.638 78.1001C322.708 78.3571 322.708 78.5499 322.638 78.7485C322.574 78.9412 322.445 79.0697 322.252 79.134C322.06 79.1982 321.931 79.3268 321.931 79.391C321.861 79.5253 321.733 79.5253 321.412 79.5253C321.091 79.5253 320.699 79.391 320.314 79.2625C319.923 79.0697 319.538 78.9412 319.211 78.9412C318.825 78.877 318.633 78.8127 318.498 78.6842C318.37 78.5499 317.984 78.3571 317.272 78.1001C316.496 77.8431 316.11 77.6445 316.046 77.5803C315.976 77.4518 315.462 77.3233 314.557 77.0663C313.652 76.8034 313.068 76.5464 312.876 76.4179C312.677 76.2252 312.356 76.0266 311.836 75.8981C311.323 75.7696 310.803 75.5126 310.155 75.1212C309.834 74.9285 309.513 74.7357 309.186 74.6072C309.121 74.7357 309.121 74.8642 309.057 74.9285C308.993 75.1855 308.865 75.4483 308.538 75.7696C308.217 76.0967 308.088 76.4179 308.024 76.7392C307.895 77.0663 307.96 77.259 308.088 77.3233C308.217 77.3875 308.345 77.516 308.409 77.7789C308.473 78.0359 308.608 78.1644 308.736 78.1644C308.865 78.1644 309.057 78.3571 309.25 78.5499C309.448 78.8127 309.641 79.0055 309.705 79.2625C309.77 79.5253 309.898 79.7181 310.091 79.7823C310.289 79.9109 310.418 80.0394 310.418 80.3022C310.418 80.5592 310.482 80.6877 310.61 80.6877C310.739 80.6877 310.803 80.8162 310.803 80.9447C310.803 81.079 310.931 81.1433 310.996 81.1433C311.13 81.1433 311.194 81.3361 311.323 81.6573C311.451 81.9844 311.515 82.2414 311.58 82.3057C311.708 82.3699 311.836 82.6912 312.099 83.3395C312.356 83.9236 312.485 84.572 312.42 85.1502C312.42 85.7343 312.228 86.1899 311.907 86.3827C311.58 86.6397 311.323 86.7682 311.066 86.7682C310.803 86.7682 310.61 86.7039 310.418 86.5112C310.155 86.3184 309.962 86.0556 309.834 85.6701C309.641 85.2846 309.577 84.9575 309.577 84.7647C309.577 84.5077 309.448 84.1806 309.25 83.7951C309.057 83.3395 308.929 83.1468 308.8 83.0825C308.672 83.0183 308.672 82.8898 308.672 82.8255C308.672 82.6912 308.473 82.3699 308.152 81.8501C307.831 81.3361 307.504 81.009 307.312 80.9447C307.119 80.8162 306.926 80.6235 306.663 80.2379C306.535 80.0394 306.471 79.8466 306.342 79.6538C306.214 79.7823 306.15 79.9109 306.015 79.9751C305.758 80.1679 305.694 80.3664 305.694 80.4307C305.758 80.4949 305.694 80.6235 305.566 80.9447C305.437 81.2076 305.309 81.3361 305.175 81.4646C305.046 81.5288 304.982 81.5931 304.982 81.7216C304.982 81.7858 304.918 81.9202 304.853 81.9202C304.725 81.9844 304.661 82.1129 304.597 82.3057C304.468 82.5627 304.334 82.7613 304.141 82.954C303.949 83.1468 303.756 83.2753 303.627 83.2753C303.493 83.2753 303.365 83.468 303.236 83.7951C303.108 84.1164 302.915 84.3734 302.717 84.6362C302.524 84.829 302.46 85.1502 302.524 85.6058C302.588 85.7986 302.652 85.9913 302.652 86.2542C302.588 86.2542 302.524 86.2542 302.524 86.2542C302.46 86.2542 302.395 86.2542 302.395 86.2542C302.395 86.3184 302.395 86.3827 302.395 86.4469C302.395 86.5754 302.46 86.7682 302.588 87.031C302.717 87.288 302.787 87.8079 302.851 88.5147C302.915 89.2273 302.915 89.6186 302.979 89.6829C303.044 89.7471 303.172 90.1969 303.3 90.9737C303.429 91.8148 303.563 92.2062 303.627 92.2704C303.692 92.3347 303.82 92.5274 303.82 92.7903C303.884 93.0473 303.949 93.3043 304.013 93.3685C304.141 93.4328 304.141 93.6314 304.141 93.9526C304.141 94.2739 304.205 94.4725 304.334 94.601C304.468 94.7295 304.597 95.115 304.725 95.7634C304.853 96.4117 304.982 96.7972 305.11 96.8615C305.245 96.9315 305.502 97.5741 305.887 98.7423C306.278 99.9046 306.535 100.553 306.663 100.553C306.792 100.617 306.99 101.003 307.247 101.651C307.504 102.364 307.767 102.819 308.024 103.141C308.281 103.462 308.608 104.046 309.121 105.016C309.577 105.921 309.898 106.505 310.155 106.698C310.353 106.896 310.546 107.153 310.61 107.346C310.675 107.539 310.803 107.667 310.996 107.802C311.194 107.93 311.323 108.059 311.323 108.251C311.323 108.444 311.515 108.707 311.836 108.964C312.099 109.221 312.292 109.484 312.356 109.677C312.356 109.869 312.485 109.934 312.549 109.934C312.677 109.934 312.811 110.062 312.94 110.261C313.133 110.518 313.261 110.646 313.454 110.646C313.652 110.646 313.973 110.967 314.429 111.487C314.943 112.071 315.27 112.328 315.398 112.328C315.526 112.328 315.719 112.393 315.912 112.585C316.11 112.784 316.367 112.913 316.688 112.977C317.015 113.041 317.208 113.105 317.208 113.234C317.208 113.298 317.336 113.427 317.529 113.491C317.728 113.561 318.113 113.625 318.633 113.561C319.146 113.491 319.602 113.234 319.923 112.72C320.25 112.2 320.443 111.744 320.443 111.23C320.443 110.71 320.507 110.389 320.571 110.261C320.635 110.126 320.699 109.934 320.699 109.741C320.699 109.548 320.635 109.42 320.571 109.285C320.507 109.157 320.443 108.9 320.443 108.38C320.443 107.866 320.378 107.475 320.25 107.282C320.116 107.089 320.051 106.698 319.987 106.248C319.923 105.728 319.859 105.214 319.666 104.694C319.473 104.174 319.409 103.66 319.538 103.269C319.666 102.884 319.73 102.685 319.794 102.685C319.859 102.685 320.051 102.556 320.314 102.364C320.571 102.107 320.828 101.978 321.091 101.978C321.347 101.978 321.669 102.042 321.996 102.171C322.317 102.364 322.509 102.428 322.574 102.556C322.638 102.621 322.708 102.685 322.772 102.685C322.836 102.685 322.901 102.685 322.901 102.685C322.901 102.755 322.901 102.819 322.901 102.819C322.901 102.884 322.965 103.012 323.157 103.012C323.35 103.012 323.549 103.205 323.806 103.462C324.062 103.725 324.319 103.917 324.646 103.982C324.967 104.046 325.16 104.239 325.359 104.437C325.551 104.63 326.071 104.823 326.842 105.016C327.618 105.214 328.202 105.214 328.529 104.887C328.914 104.63 329.107 104.11 329.235 103.269C329.37 102.428 329.37 101.844 329.171 101.458C328.979 101.073 328.914 100.681 328.85 100.36C328.85 99.9689 328.593 99.3205 328.074 98.3509C327.554 97.3813 327.361 96.6687 327.361 96.2832C327.425 95.8919 327.554 95.5063 327.817 95.1792C328.074 94.7937 328.529 94.601 329.107 94.5367C329.691 94.4725 330.076 94.4725 330.275 94.601C330.467 94.7295 330.853 94.7937 331.437 94.858C332.02 94.9222 332.406 94.9865 332.534 95.115C332.663 95.2493 332.797 95.2493 333.054 95.2493C333.311 95.2493 333.439 95.3136 333.503 95.3136C333.574 95.3778 333.959 95.4421 334.671 95.5063C335.383 95.5706 335.897 95.6991 336.288 95.8276C336.674 96.0204 337.258 96.0904 338.034 96.0904C338.875 96.0904 339.325 96.1547 339.523 96.2189C339.716 96.2832 340.3 96.3475 341.14 96.3475C342.045 96.3475 342.623 96.2832 342.758 96.2189C342.95 96.1547 343.4 96.0204 344.112 96.0204C344.824 95.9561 345.408 95.9561 345.794 95.8276C346.185 95.7633 346.506 95.6348 346.634 95.5063C346.763 95.3778 347.026 95.3136 347.283 95.3136C347.604 95.3136 347.802 95.2493 347.866 95.115C347.995 94.9865 348.187 94.9222 348.444 94.858C348.707 94.7937 349.092 94.6652 349.484 94.4082C349.869 94.2096 350.126 93.9526 350.324 93.6956C350.517 93.4328 350.581 93.3043 350.646 93.3685C350.71 93.4328 350.838 93.3043 351.037 93.1115C351.229 92.9188 351.358 92.726 351.358 92.5917C351.358 92.3989 351.551 92.2704 351.743 92.1419C351.942 92.0134 352.263 91.6221 352.584 90.9095C352.975 90.1969 353.168 89.3558 353.296 88.3862C353.36 87.3523 353.36 86.7039 353.296 86.4469C353.168 86.1257 353.104 85.6701 353.104 84.9575C353.104 84.2449 352.911 83.6666 352.584 83.1468C352.327 82.6269 352.134 82.2414 352.134 81.9844C352.134 81.7216 352.006 81.3361 351.743 80.8805C351.486 80.3664 351.229 80.0394 351.037 79.8466C350.774 79.6538 350.646 79.4611 350.581 79.2625C350.517 79.0697 350.389 78.877 350.196 78.7485C349.997 78.62 349.869 78.4214 349.805 78.2286C349.741 77.9716 349.285 77.516 348.514 76.8034C347.738 76.0967 347.218 75.7053 347.026 75.7053C346.827 75.6411 346.506 75.5126 346.185 75.1212C345.858 74.7357 345.537 74.543 345.216 74.543C344.889 74.543 344.439 74.2801 343.855 73.8946C343.271 73.5033 342.302 73.0535 340.942 72.4694C339.587 71.8853 338.811 71.4355 338.682 70.9157C338.554 70.4017 338.484 69.9461 338.618 69.5606C338.746 69.1692 338.939 68.848 339.26 68.7195C339.587 68.591 339.716 68.4566 339.78 68.3924C339.78 68.3281 340.037 68.1996 340.428 68.1996C340.813 68.1996 341.333 68.0069 342.045 67.6798C342.693 67.4228 343.336 67.1658 343.855 67.1015C344.375 67.0373 344.696 66.9029 344.696 66.8387C344.76 66.7102 344.889 66.7102 345.017 66.7102C345.146 66.7744 345.344 66.7102 345.537 66.6459C345.729 66.5817 345.858 66.4532 345.858 66.3889C345.858 66.3247 345.986 66.2604 346.249 66.2604C346.506 66.2604 346.763 66.1319 347.09 65.9976C347.347 65.8048 347.604 65.7406 347.802 65.7406C347.995 65.7406 348.316 65.6121 348.643 65.3551C349.028 65.0922 349.355 64.8995 349.612 64.8352C349.869 64.771 350.062 64.6424 350.126 64.5139C350.196 64.3796 350.517 64.1869 351.101 63.8656C351.679 63.5385 352.07 63.2815 352.199 63.0245C352.327 62.8317 352.456 62.6331 352.648 62.5689C352.847 62.5046 352.975 62.3119 353.168 62.0549C353.36 61.792 353.36 61.278 353.232 60.5654C353.104 59.8528 352.975 59.333 352.782 59.076C352.584 58.819 352.52 58.6905 352.391 58.6905C352.263 58.6905 352.134 58.6262 351.942 58.4276C351.743 58.2349 351.615 58.0421 351.615 57.9136C351.615 57.7851 351.486 57.715 351.294 57.6508C351.101 57.5865 350.967 57.458 350.774 57.2653C350.581 57.0083 350.389 56.8739 350.126 56.8097C349.933 56.7454 349.741 56.6169 349.612 56.4884C349.484 56.2956 349.221 56.2314 348.771 56.1671C348.316 56.1029 347.866 55.9043 347.347 55.6473C346.827 55.3903 346.121 55.1274 345.216 54.9989C344.241 54.8704 343.791 54.8062 343.727 54.7419C343.663 54.6777 343.534 54.6777 343.271 54.6777C343.014 54.7419 342.693 54.6777 342.366 54.5492C342.045 54.4207 341.526 54.3506 340.878 54.4207C340.235 54.4207 339.78 54.4207 339.459 54.2863C339.132 54.2221 338.939 54.1578 338.875 54.2221C338.811 54.2863 338.618 54.2863 338.355 54.2863C338.034 54.2863 337.842 54.2221 337.643 54.1578C338.034 54.0936 337.777 54.0936 337.386 54.1578ZM297.03 80.4949C297.415 80.5592 297.608 80.6235 297.742 80.752C297.871 80.8805 297.935 81.2076 297.999 81.6573C298.063 82.1129 297.999 82.4984 297.871 82.6912C297.672 82.954 297.608 83.0825 297.479 83.0825C297.415 83.0825 297.351 83.0825 297.351 83.0825C297.351 83.1468 297.351 83.1468 297.351 83.1468C297.351 83.211 297.287 83.2753 297.094 83.3395C296.901 83.4038 296.831 83.468 296.831 83.6024C296.831 83.7309 296.767 83.7951 296.574 83.8594C296.382 83.9236 296.317 83.9879 296.317 84.1164C296.317 84.1806 296.317 84.1806 296.317 84.2449L296.253 84.1806C296.189 84.1806 296.055 84.2449 295.862 84.4435C295.669 84.6362 295.477 84.7647 295.284 84.7647C295.086 84.7647 294.829 84.8932 294.572 85.1502C294.309 85.4131 294.052 85.5416 293.795 85.6058C293.532 85.6701 293.276 85.7986 293.019 85.9913C292.762 86.1899 292.435 86.3827 291.985 86.4469C291.53 86.5112 291.337 86.5754 291.273 86.7039C291.209 86.8324 291.01 86.9668 290.561 87.0953C290.105 87.2238 289.463 87.4165 288.552 87.545C287.647 87.6736 287.005 87.7436 286.678 87.6736C286.357 87.6736 286.164 87.6093 286.164 87.545C286.164 87.4808 286.1 87.4165 285.901 87.3523C285.709 87.288 285.516 87.0953 285.388 86.8324C285.259 86.5754 285.189 86.3184 285.189 86.1257C285.189 85.9271 285.323 85.6701 285.58 85.4131C285.837 85.1502 286.164 85.0217 286.485 84.9575C286.806 84.8932 287.198 84.829 287.519 84.7005C287.846 84.572 288.167 84.4435 288.552 84.4435C288.943 84.4435 289.264 84.3734 289.527 84.1806C289.784 83.9879 290.169 83.9236 290.625 83.8594C291.08 83.7951 291.337 83.6666 291.466 83.468C291.594 83.2753 291.851 83.1468 292.178 83.0183C292.563 82.954 292.762 82.8255 292.826 82.6912C292.89 82.5627 293.019 82.4984 293.276 82.4342C293.468 82.3699 293.731 82.2414 293.988 81.9202C294.245 81.6573 294.7 81.3361 295.284 81.009C296.189 80.5592 296.703 80.4307 297.03 80.4949ZM283.77 85.3488C284.027 85.5416 284.22 85.7986 284.284 86.2542C284.348 86.6397 284.22 87.031 284.091 87.288C283.963 87.545 283.642 87.6736 283.251 87.7436C282.865 87.8079 282.538 87.6736 282.281 87.4808C282.025 87.2238 281.89 86.9668 281.762 86.6397C281.633 86.3184 281.762 85.9913 282.025 85.7343C282.281 85.4773 282.538 85.2846 282.865 85.2145C283.122 85.086 283.443 85.1502 283.77 85.3488Z" fill="#DF2F4F"/>
</svg>
